<svg width="20" height="20" viewBox="0 0 20 20" fill="none" xmlns="http://www.w3.org/2000/svg">
<g clip-path="url(#clip0_834_46)">
<path d="M14.2305 1.83984C13.4922 1.96484 12.7344 2.45312 12.3008 3.08984C11.9766 3.56641 11.8477 3.98047 11.793 4.72266C11.7656 5.08984 11.7266 5.29688 11.6367 5.5625C11.5234 5.89844 11.2422 6.41406 11.1133 6.52344C11.0195 6.60156 11.043 6.65625 11.2305 6.75391C11.4766 6.88281 11.8828 7.26562 12.0938 7.56641C12.5703 8.23047 12.7383 9.19141 12.5195 10.0195C12.2383 11.0703 11.3477 11.9609 10.293 12.2422C9.59375 12.4297 8.37891 12.3281 7.38672 11.9961C6.64063 11.7461 5.76563 11.25 5.15625 10.7266C4.98438 10.5781 4.89844 10.5273 4.89063 10.5664C4.88282 10.5977 4.92969 10.8203 4.9961 11.0625C5.47657 12.8594 6.64844 14.3164 8.28125 15.1367C8.88282 15.4375 9.76563 15.707 10.3516 15.7656L10.625 15.793V16.4102V17.0312H9.6875C8.82032 17.0312 8.73438 17.0391 8.59375 17.1094C8.41797 17.1992 8.28125 17.4219 8.28125 17.6172C8.28125 17.8125 8.41797 18.0352 8.59375 18.125C8.73828 18.1992 8.82032 18.2031 10.0391 18.2031C11.2383 18.2031 11.3438 18.1992 11.4805 18.1289C11.5586 18.0859 11.6523 18.0234 11.6836 17.9844C11.793 17.8477 12.1133 17.7344 12.3828 17.7344C12.6523 17.7344 12.9727 17.8477 13.082 17.9844C13.168 18.0859 13.418 18.2031 13.5547 18.2031C13.8516 18.2031 14.1406 17.9141 14.1406 17.6172C14.1406 17.2422 13.5703 16.7734 12.9219 16.6211C12.6484 16.5586 12.168 16.5469 11.9453 16.5977L11.7969 16.6328V16.2344V15.832L12.1211 15.7852C15.0273 15.3477 17.2813 12.9258 17.6133 9.875C17.668 9.375 17.6719 5.20703 17.6133 4.76562C17.4453 3.39844 16.8008 2.41797 15.8008 2.00391C15.3672 1.82031 14.7344 1.75781 14.2305 1.83984ZM15 4.21875C15.1758 4.30859 15.3125 4.53125 15.3125 4.72656C15.3125 5.02344 15.0234 5.3125 14.7227 5.3125C14.4375 5.3125 14.1406 5.01562 14.1406 4.72656C14.1406 4.53906 14.2773 4.30859 14.4453 4.22266C14.6328 4.12109 14.8086 4.12109 15 4.21875Z" fill="#586CF5"/>
<path d="M18.5703 1.98443L17.8594 2.16802L18.0664 2.50787C18.3867 3.03521 18.5742 3.54302 18.7305 4.31255C18.7539 4.41802 18.7969 4.36724 19.3008 3.60943C19.9297 2.67193 20 2.54693 20 2.38287C20 2.08209 19.707 1.79302 19.4062 1.80084C19.3359 1.80084 18.957 1.88677 18.5703 1.98443Z" fill="#586CF5"/>
<path d="M0.304687 3.63676C0.132812 3.72661 0 3.95317 0 4.1563C0 4.3438 0.300781 4.91411 0.597656 5.29301C0.796875 5.54692 1.30469 5.98833 3.53125 7.8438C6.07031 9.96098 6.58203 10.3633 7.05078 10.5977C7.89453 11.0157 9.18359 11.2657 9.85156 11.1368C10.9453 10.918 11.6602 9.82036 11.3828 8.76958C11.3047 8.46489 11.1641 8.23052 10.918 7.98833C10.668 7.74614 10.3516 7.58598 9.94922 7.50786C9.65234 7.44927 9.62109 7.44927 9.14453 7.53911C8.51172 7.6563 8.12891 7.67583 7.72656 7.62114C7.34375 7.56255 6.77734 7.38286 6.50391 7.23052C6.39844 7.16802 5.16797 6.38286 3.76953 5.48833C2.375 4.58989 1.11719 3.7852 0.976562 3.70317C0.6875 3.5352 0.527344 3.51567 0.304687 3.63676Z" fill="#586CF5"/>
</g>
<defs>
<clipPath id="clip0_834_46">
<rect width="20" height="20" fill="white"/>
</clipPath>
</defs>
</svg>
