<svg width="93" height="93" viewBox="0 0 93 93" fill="none" xmlns="http://www.w3.org/2000/svg">
<g clip-path="url(#clip0_603_503)">
<path d="M66.1718 8.55528C62.7388 9.13653 59.2149 11.407 57.1987 14.3678C55.6911 16.5838 55.0917 18.5092 54.8374 21.9604C54.7103 23.6678 54.5286 24.6305 54.1108 25.8656C53.5841 27.4277 52.2763 29.8254 51.6769 30.334C51.2409 30.6973 51.3499 30.9516 52.2218 31.4057C53.3661 32.0051 55.2552 33.7852 56.236 35.1838C58.452 38.2717 59.2331 42.74 58.2159 46.5908C56.9081 51.477 52.7667 55.6184 47.8624 56.9262C44.611 57.798 38.962 57.3258 34.3483 55.7818C30.879 54.6193 26.8103 52.3125 23.9767 49.8785C23.1774 49.1883 22.7778 48.9522 22.7415 49.1338C22.7052 49.2791 22.9231 50.3145 23.2319 51.4406C25.4661 59.7961 30.9153 66.5713 38.5079 70.3857C41.3052 71.7844 45.4103 73.0377 48.1349 73.3102L49.4063 73.4373V76.3072V79.1953H45.047C41.0145 79.1953 40.6149 79.2316 39.961 79.5586C39.1437 79.9764 38.5079 81.0117 38.5079 81.9199C38.5079 82.8281 39.1437 83.8635 39.961 84.2813C40.6331 84.6264 41.0145 84.6445 46.6817 84.6445C52.2581 84.6445 52.7485 84.6264 53.3843 84.2994C53.7476 84.0996 54.1835 83.809 54.3288 83.6273C54.8374 82.9916 56.3269 82.4648 57.5802 82.4648C58.8335 82.4648 60.323 82.9916 60.8315 83.6273C61.2312 84.0996 62.3937 84.6445 63.0294 84.6445C64.4099 84.6445 65.754 83.3004 65.754 81.9199C65.754 80.1762 63.1021 77.9965 60.0868 77.2881C58.8153 76.9975 56.5812 76.943 55.5458 77.1791L54.8556 77.3426V75.4898V73.6189L56.3632 73.401C69.8772 71.3666 80.3579 60.1049 81.9019 45.9188C82.1562 43.5938 82.1743 24.2127 81.9019 22.1602C81.1208 15.8027 78.1237 11.2436 73.4737 9.31817C71.4575 8.46446 68.5149 8.17384 66.1718 8.55528ZM69.7501 19.6172C70.5675 20.035 71.2032 21.0703 71.2032 21.9785C71.2032 23.359 69.8591 24.7031 68.4604 24.7031C67.1345 24.7031 65.754 23.3227 65.754 21.9785C65.754 21.1066 66.3897 20.035 67.1708 19.6354C68.0427 19.1631 68.8601 19.1631 69.7501 19.6172Z" fill="#586CF5"/>
<path d="M86.352 9.22734L83.0461 10.0811L84.0088 11.6613C85.4983 14.1135 86.3702 16.4748 87.0967 20.0531C87.2057 20.5436 87.4055 20.3074 89.7487 16.7836C92.6731 12.4242 93 11.843 93 11.0801C93 9.68145 91.6377 8.33731 90.2391 8.37363C89.9122 8.37363 88.1502 8.77324 86.352 9.22734Z" fill="#586CF5"/>
<path d="M1.4168 16.9108C0.617578 17.3285 0 18.382 0 19.3266C0 20.1985 1.39863 22.8504 2.7791 24.6123C3.70547 25.793 6.0668 27.8455 16.4203 36.4735C28.227 46.3184 30.6064 48.1893 32.7861 49.2791C36.7096 51.2227 42.7037 52.3852 45.8098 51.7858C50.8957 50.7686 54.2197 45.6645 52.9301 40.7783C52.5668 39.3615 51.9129 38.2717 50.7686 37.1455C49.6061 36.0194 48.1348 35.2746 46.2639 34.9113C44.8834 34.6389 44.7381 34.6389 42.5221 35.0567C39.5795 35.6016 37.7994 35.6924 35.9285 35.4381C34.1484 35.1656 31.5146 34.3301 30.2432 33.6217C29.7527 33.3311 24.0311 29.6801 17.5283 25.5205C11.0437 21.3428 5.19492 17.601 4.54102 17.2195C3.19688 16.4385 2.45215 16.3477 1.4168 16.9108Z" fill="#586CF5"/>
</g>
<defs>
<clipPath id="clip0_603_503">
<rect width="93" height="93" fill="white"/>
</clipPath>
</defs>
</svg>
