<svg width="178" height="190" viewBox="0 0 178 190" fill="none" xmlns="http://www.w3.org/2000/svg">
<g clip-path="url(#clip0_603_508)">
<path opacity="0.993" fill-rule="evenodd" clip-rule="evenodd" d="M129.241 142.91C131.849 142.91 134.456 142.91 137.063 142.91C137.063 158.338 137.063 173.765 137.063 189.193C134.456 189.193 131.849 189.193 129.241 189.193C129.27 188.353 129.241 187.516 129.154 186.681C127.288 188.341 125.115 189.268 122.636 189.462C115.391 189.818 110.842 186.38 108.99 179.147C108.102 174.817 108.739 170.751 110.902 166.948C113.905 162.784 117.932 161.02 122.983 161.656C125.404 161.964 127.461 163.01 129.154 164.796C129.241 157.501 129.27 150.206 129.241 142.91ZM122.288 167.487C125.823 167.696 128.112 169.55 129.154 173.048C130.388 177.429 129.142 180.748 125.417 183.004C121.237 184.325 118.485 182.8 117.16 178.429C116.153 174.542 117.051 171.223 119.855 168.473C120.64 168.015 121.451 167.686 122.288 167.487Z" fill="#A0C6FF"/>
<path opacity="0.985" d="M139.823 143.41H139.834H139.85H139.866H139.882H139.898H139.914H139.93H139.946H139.962H139.977H139.993H140.009H140.025H140.041H140.057H140.073H140.089H140.105H140.121H140.137H140.153H140.169H140.185H140.201H140.217H140.233H140.249H140.265H140.281H140.297H140.313H140.329H140.344H140.36H140.376H140.392H140.408H140.424H140.44H140.456H140.472H140.488H140.504H140.52H140.536H140.552H140.568H140.584H140.6H140.616H140.632H140.648H140.664H140.68H140.696H140.712H140.727H140.743H140.759H140.775H140.791H140.807H140.823H140.839H140.855H140.871H140.887H140.903H140.919H140.935H140.951H140.967H140.983H140.999H141.015H141.031H141.047H141.063H141.079H141.094H141.11H141.126H141.142H141.158H141.174H141.19H141.206H141.222H141.238H141.254H141.27H141.286H141.302H141.318H141.334H141.35H141.366H141.382H141.398H141.414H141.43H141.446H141.461H141.477H141.493H141.509H141.525H141.541H141.557H141.573H141.589H141.605H141.621H141.637H141.653H141.669H141.685H141.701H141.717H141.733H141.749H141.765H141.781H141.797H141.813H141.828H141.844H141.86H141.876H141.892H141.908H141.924H141.94H141.956H141.972H141.988H142.004H142.02H142.036H142.052H142.068H142.084H142.1H142.116H142.132H142.148H142.164H142.18H142.195H142.211H142.227H142.243H142.259H142.275H142.291H142.307H142.323H142.339H142.355H142.371H142.387H142.403H142.419H142.435H142.451H142.467H142.483H142.499H142.515H142.531H142.547H142.562H142.578H142.594H142.61H142.626H142.642H142.658H142.674H142.69H142.706H142.722H142.738H142.754H142.77H142.786H142.802H142.818H142.834H142.85H142.866H142.882H142.898H142.914H142.93H142.945H142.961H142.977H142.993H143.009H143.025H143.041H143.057H143.073H143.089H143.105H143.121H143.137H143.153H143.169H143.185H143.201H143.217H143.233H143.249H143.265H143.281H143.297H143.312H143.328H143.344H143.36H143.376H143.392H143.408H143.424H143.44H143.456H143.472H143.488H143.504H143.52H143.536H143.552H143.568H143.584H143.6H143.616H143.632H143.648H143.664H143.679H143.695H143.711H143.727H143.743H143.759H143.775H143.791H143.807H143.823H143.839H143.855H143.871H143.887H143.903H143.919H143.935H143.951H143.967H143.983H143.999H144.015H144.031H144.046H144.062H144.078H144.094H144.11H144.126H144.142H144.158H144.174H144.19H144.206H144.222H144.238H144.254H144.27H144.286H144.302H144.318H144.334H144.35H144.366H144.382H144.398H144.413H144.429H144.445H144.461H144.477H144.493H144.509H144.525H144.541H144.557H144.573H144.589H144.605H144.621H144.637H144.653H144.669H144.685H144.701H144.717H144.733H144.749H144.765H144.78H144.796H144.812H144.828H144.844H144.86H144.876H144.892H144.908H144.924H144.94H144.956H144.972H144.988H145.004H145.02H145.036H145.052H145.068H145.084H145.1H145.116H145.132H145.147H145.163H145.179H145.195H145.211H145.227H145.243H145.259H145.275H145.291H145.307H145.323H145.339H145.355H145.371H145.387H145.403H145.419H145.435H145.451H145.467H145.483H145.499H145.514H145.53H145.546H145.562H145.578H145.594H145.61H145.626H145.642H145.658H145.674H145.69H145.706H145.722H145.738H145.754H145.77H145.786H145.802H145.818H145.834H145.85H145.866H145.882H145.897H145.913H145.929H145.945H145.961H145.977H145.993H146.009H146.025H146.041H146.057H146.073H146.089H146.105H146.121H146.137H146.153H146.169H146.185H146.201H146.217H146.233H146.249H146.264H146.28H146.296H146.312H146.328H146.344H146.36H146.376H146.392H146.408H146.424H146.44H146.456H146.472H146.488H146.504H146.52H146.536H146.552H146.568H146.584H146.6H146.616H146.631H146.647H146.663H146.679H146.695H146.711H146.727H146.743H146.759H146.775H146.791H146.807H146.823H146.839H146.855H146.871H146.887H146.903H146.919H146.935H146.951H146.967H146.983H146.993V143.453V143.543V143.633V143.724V143.814V143.905V143.995V144.085V144.176V144.266V144.357V144.447V144.537V144.628V144.718V144.809V144.899V144.989V145.08V145.17V145.261V145.351V145.441V145.532V145.622V145.713V145.803V145.893V145.984V146.074V146.165V146.255V146.345V146.436V146.526V146.616V146.707V146.797V146.888V146.978V147.068V147.159V147.249V147.34V147.43V147.52V147.611V147.701V147.792V147.882V147.972V148.063V148.153V148.244V148.334V148.424V148.515V148.605V148.696V148.786V148.876V148.967V149.057V149.148V149.238V149.328V149.419V149.509V149.6V149.69V149.78V149.871V149.961V150.052V150.142V150.232V150.323V150.413V150.503V150.594V150.684V150.775V150.865V150.955V151.046V151.136V151.227V151.317V151.407V151.498V151.588V151.679V151.769V151.859V151.95V152.04V152.131V152.221V152.311V152.402V152.492V152.583V152.673V152.763V152.854V152.944V153.035V153.125V153.215V153.306V153.396V153.487V153.577V153.667V153.758V153.848V153.939V154.029V154.119V154.21V154.3V154.39V154.481V154.571V154.662V154.752V154.842V154.933V155.023V155.114V155.204V155.294V155.385V155.475V155.566V155.656V155.746V155.837V155.927V156.018V156.108V156.198V156.289V156.379V156.47V156.56V156.65V156.741V156.831V156.922V157.012V157.102V157.193V157.283V157.374V157.464V157.554V157.645V157.735V157.826V157.916V158.006V158.097V158.187V158.277V158.368V158.458V158.549V158.639V158.729V158.82V158.91V159.001V159.091V159.181V159.272V159.362V159.453V159.543V159.633V159.724V159.814V159.905V159.995V160.085V160.176V160.266V160.357V160.447V160.537V160.628V160.718V160.809V160.899V160.989V161.08V161.17V161.261V161.351V161.441V161.532V161.622V161.713V161.803V161.893V161.984V162.074V162.164V162.255V162.345V162.436V162.526V162.616V162.707V162.797V162.888V162.978V163.068V163.159V163.249V163.34V163.43V163.52V163.611V163.701V163.792V163.882V163.972V164.063V164.153V164.244V164.334V164.424V164.515V164.605V164.696V164.786V164.876V164.967V165.057V165.148V165.238V165.328V165.419V165.509V165.6V165.69V165.78V165.871V165.961V166.051V166.142V166.232V166.323V166.413V166.503V166.594V166.684V166.775V166.865V166.955V167.046V167.136V167.227V167.317V167.407V167.498V167.588V167.679V167.769V167.859V167.95V168.04V168.131V168.221V168.311V168.402V168.492V168.583V168.673V168.763V168.854V168.944V169.035V169.125V169.215V169.306V169.396V169.487V169.577V169.667V169.758V169.848V169.938V170.029V170.119V170.21V170.3V170.39V170.481V170.571V170.662V170.752V170.842V170.933V171.023V171.114V171.204V171.294V171.385V171.475V171.566V171.656V171.746V171.837V171.927V172.018V172.108V172.198V172.289V172.379V172.47V172.56V172.65V172.741V172.831V172.922V173.012V173.102V173.193V173.283V173.374V173.464V173.554V173.645V173.735V173.826V173.916V174.006V174.097V174.187V174.277V174.368V174.458V174.549V174.639V174.729V174.82V174.91V175.001V175.091V175.181V175.272V175.362V175.453V175.543V175.633V175.724V175.814V175.905V175.995V176.085V176.176V176.266V176.357V176.447V176.537V176.628V176.718V176.809V176.899V176.989V177.08V177.17V177.261V177.351V177.441V177.532V177.622V177.713V177.803V177.893V177.984V178.074V178.164V178.255V178.345V178.436V178.526V178.616V178.707V178.797V178.888V178.978V179.068V179.159V179.249V179.34V179.43V179.52V179.611V179.701V179.792V179.882V179.972V180.063V180.153V180.244V180.334V180.424V180.515V180.605V180.696V180.786V180.876V180.967V181.057V181.148V181.238V181.328V181.419V181.509V181.6V181.69V181.78V181.871V181.961V182.051V182.142V182.232V182.323V182.413V182.503V182.594V182.684V182.775V182.865V182.955V183.046V183.136V183.227V183.317V183.407V183.498V183.588V183.679V183.769V183.859V183.95V184.04V184.131V184.221V184.311V184.402V184.492V184.583V184.673V184.763V184.854V184.944V185.035V185.125V185.215V185.306V185.396V185.487V185.577V185.667V185.758V185.848V185.938V186.029V186.119V186.21V186.3V186.39V186.481V186.571V186.662V186.752V186.842V186.933V187.023V187.114V187.204V187.294V187.385V187.475V187.566V187.656V187.746V187.837V187.927V188.018V188.108V188.198V188.289V188.379V188.47V188.56V188.65V188.693H146.983H146.967H146.951H146.935H146.919H146.903H146.887H146.871H146.855H146.839H146.823H146.807H146.791H146.775H146.759H146.743H146.727H146.711H146.695H146.679H146.663H146.647H146.631H146.616H146.6H146.584H146.568H146.552H146.536H146.52H146.504H146.488H146.472H146.456H146.44H146.424H146.408H146.392H146.376H146.36H146.344H146.328H146.312H146.296H146.28H146.264H146.249H146.233H146.217H146.201H146.185H146.169H146.153H146.137H146.121H146.105H146.089H146.073H146.057H146.041H146.025H146.009H145.993H145.977H145.961H145.945H145.929H145.913H145.897H145.882H145.866H145.85H145.834H145.818H145.802H145.786H145.77H145.754H145.738H145.722H145.706H145.69H145.674H145.658H145.642H145.626H145.61H145.594H145.578H145.562H145.546H145.53H145.514H145.499H145.483H145.467H145.451H145.435H145.419H145.403H145.387H145.371H145.355H145.339H145.323H145.307H145.291H145.275H145.259H145.243H145.227H145.211H145.195H145.179H145.163H145.147H145.132H145.116H145.1H145.084H145.068H145.052H145.036H145.02H145.004H144.988H144.972H144.956H144.94H144.924H144.908H144.892H144.876H144.86H144.844H144.828H144.812H144.796H144.78H144.765H144.749H144.733H144.717H144.701H144.685H144.669H144.653H144.637H144.621H144.605H144.589H144.573H144.557H144.541H144.525H144.509H144.493H144.477H144.461H144.445H144.429H144.413H144.398H144.382H144.366H144.35H144.334H144.318H144.302H144.286H144.27H144.254H144.238H144.222H144.206H144.19H144.174H144.158H144.142H144.126H144.11H144.094H144.078H144.062H144.046H144.031H144.015H143.999H143.983H143.967H143.951H143.935H143.919H143.903H143.887H143.871H143.855H143.839H143.823H143.807H143.791H143.775H143.759H143.743H143.727H143.711H143.695H143.679H143.664H143.648H143.632H143.616H143.6H143.584H143.568H143.552H143.536H143.52H143.504H143.488H143.472H143.456H143.44H143.424H143.408H143.392H143.376H143.36H143.344H143.328H143.312H143.297H143.281H143.265H143.249H143.233H143.217H143.201H143.185H143.169H143.153H143.137H143.121H143.105H143.089H143.073H143.057H143.041H143.025H143.009H142.993H142.977H142.961H142.945H142.93H142.914H142.898H142.882H142.866H142.85H142.834H142.818H142.802H142.786H142.77H142.754H142.738H142.722H142.706H142.69H142.674H142.658H142.642H142.626H142.61H142.594H142.578H142.562H142.547H142.531H142.515H142.499H142.483H142.467H142.451H142.435H142.419H142.403H142.387H142.371H142.355H142.339H142.323H142.307H142.291H142.275H142.259H142.243H142.227H142.211H142.195H142.18H142.164H142.148H142.132H142.116H142.1H142.084H142.068H142.052H142.036H142.02H142.004H141.988H141.972H141.956H141.94H141.924H141.908H141.892H141.876H141.86H141.844H141.828H141.813H141.797H141.781H141.765H141.749H141.733H141.717H141.701H141.685H141.669H141.653H141.637H141.621H141.605H141.589H141.573H141.557H141.541H141.525H141.509H141.493H141.477H141.461H141.446H141.43H141.414H141.398H141.382H141.366H141.35H141.334H141.318H141.302H141.286H141.27H141.254H141.238H141.222H141.206H141.19H141.174H141.158H141.142H141.126H141.11H141.094H141.079H141.063H141.047H141.031H141.015H140.999H140.983H140.967H140.951H140.935H140.919H140.903H140.887H140.871H140.855H140.839H140.823H140.807H140.791H140.775H140.759H140.743H140.727H140.712H140.696H140.68H140.664H140.648H140.632H140.616H140.6H140.584H140.568H140.552H140.536H140.52H140.504H140.488H140.472H140.456H140.44H140.424H140.408H140.392H140.376H140.36H140.344H140.329H140.313H140.297H140.281H140.265H140.249H140.233H140.217H140.201H140.185H140.169H140.153H140.137H140.121H140.105H140.089H140.073H140.057H140.041H140.025H140.009H139.993H139.977H139.962H139.946H139.93H139.914H139.898H139.882H139.866H139.85H139.834H139.823V188.65V188.56V188.47V188.379V188.289V188.198V188.108V188.018V187.927V187.837V187.746V187.656V187.566V187.475V187.385V187.294V187.204V187.114V187.023V186.933V186.842V186.752V186.662V186.571V186.481V186.39V186.3V186.21V186.119V186.029V185.938V185.848V185.758V185.667V185.577V185.487V185.396V185.306V185.215V185.125V185.035V184.944V184.854V184.763V184.673V184.583V184.492V184.402V184.311V184.221V184.131V184.04V183.95V183.859V183.769V183.679V183.588V183.498V183.407V183.317V183.227V183.136V183.046V182.955V182.865V182.775V182.684V182.594V182.503V182.413V182.323V182.232V182.142V182.051V181.961V181.871V181.78V181.69V181.6V181.509V181.419V181.328V181.238V181.148V181.057V180.967V180.876V180.786V180.696V180.605V180.515V180.424V180.334V180.244V180.153V180.063V179.972V179.882V179.792V179.701V179.611V179.52V179.43V179.34V179.249V179.159V179.068V178.978V178.888V178.797V178.707V178.616V178.526V178.436V178.345V178.255V178.164V178.074V177.984V177.893V177.803V177.713V177.622V177.532V177.441V177.351V177.261V177.17V177.08V176.989V176.899V176.809V176.718V176.628V176.537V176.447V176.357V176.266V176.176V176.085V175.995V175.905V175.814V175.724V175.633V175.543V175.453V175.362V175.272V175.181V175.091V175.001V174.91V174.82V174.729V174.639V174.549V174.458V174.368V174.277V174.187V174.097V174.006V173.916V173.826V173.735V173.645V173.554V173.464V173.374V173.283V173.193V173.102V173.012V172.922V172.831V172.741V172.65V172.56V172.47V172.379V172.289V172.198V172.108V172.018V171.927V171.837V171.746V171.656V171.566V171.475V171.385V171.294V171.204V171.114V171.023V170.933V170.842V170.752V170.662V170.571V170.481V170.39V170.3V170.21V170.119V170.029V169.938V169.848V169.758V169.667V169.577V169.487V169.396V169.306V169.215V169.125V169.035V168.944V168.854V168.763V168.673V168.583V168.492V168.402V168.311V168.221V168.131V168.04V167.95V167.859V167.769V167.679V167.588V167.498V167.407V167.317V167.227V167.136V167.046V166.955V166.865V166.775V166.684V166.594V166.503V166.413V166.323V166.232V166.142V166.051V165.961V165.871V165.78V165.69V165.6V165.509V165.419V165.328V165.238V165.148V165.057V164.967V164.876V164.786V164.696V164.605V164.515V164.424V164.334V164.244V164.153V164.063V163.972V163.882V163.792V163.701V163.611V163.52V163.43V163.34V163.249V163.159V163.068V162.978V162.888V162.797V162.707V162.616V162.526V162.436V162.345V162.255V162.164V162.074V161.984V161.893V161.803V161.713V161.622V161.532V161.441V161.351V161.261V161.17V161.08V160.989V160.899V160.809V160.718V160.628V160.537V160.447V160.357V160.266V160.176V160.085V159.995V159.905V159.814V159.724V159.633V159.543V159.453V159.362V159.272V159.181V159.091V159.001V158.91V158.82V158.729V158.639V158.549V158.458V158.368V158.277V158.187V158.097V158.006V157.916V157.826V157.735V157.645V157.554V157.464V157.374V157.283V157.193V157.102V157.012V156.922V156.831V156.741V156.65V156.56V156.47V156.379V156.289V156.198V156.108V156.018V155.927V155.837V155.746V155.656V155.566V155.475V155.385V155.294V155.204V155.114V155.023V154.933V154.842V154.752V154.662V154.571V154.481V154.39V154.3V154.21V154.119V154.029V153.939V153.848V153.758V153.667V153.577V153.487V153.396V153.306V153.215V153.125V153.035V152.944V152.854V152.763V152.673V152.583V152.492V152.402V152.311V152.221V152.131V152.04V151.95V151.859V151.769V151.679V151.588V151.498V151.407V151.317V151.227V151.136V151.046V150.955V150.865V150.775V150.684V150.594V150.503V150.413V150.323V150.232V150.142V150.052V149.961V149.871V149.78V149.69V149.6V149.509V149.419V149.328V149.238V149.148V149.057V148.967V148.876V148.786V148.696V148.605V148.515V148.424V148.334V148.244V148.153V148.063V147.972V147.882V147.792V147.701V147.611V147.52V147.43V147.34V147.249V147.159V147.068V146.978V146.888V146.797V146.707V146.616V146.526V146.436V146.345V146.255V146.165V146.074V145.984V145.893V145.803V145.713V145.622V145.532V145.441V145.351V145.261V145.17V145.08V144.989V144.899V144.809V144.718V144.628V144.537V144.447V144.357V144.266V144.176V144.085V143.995V143.905V143.814V143.724V143.633V143.543V143.453V143.41Z" fill="#A0C6FF" stroke="#A0C6FF"/>
<path opacity="0.973" fill-rule="evenodd" clip-rule="evenodd" d="M28.4209 163.181C27.7988 164.164 27.1325 165.121 26.4219 166.052C25.4818 166.874 24.5838 167.711 23.7275 168.563C21.9484 169.634 20.0363 170.351 17.9912 170.716C16.252 170.745 14.5137 170.716 12.7764 170.626C11.7664 170.44 10.7814 170.171 9.82129 169.819C9.68078 168.208 9.62285 166.594 9.64746 164.975C6.9821 164.975 4.31673 164.975 1.65137 164.975C1.45844 167.301 1.42947 169.633 1.56445 171.971C2.30515 175.277 2.53692 178.626 2.25977 182.017C0.341037 178.634 -0.0935332 175.046 0.956055 171.254C0.758993 169.102 0.758993 166.949 0.956055 164.796C0.608398 164.796 0.260742 164.796 -0.0869141 164.796C-0.0869141 164.616 -0.0869141 164.437 -0.0869141 164.258C4.458 161.584 9.20929 159.342 14.167 157.531C16.7406 156.732 19.3481 156.074 21.9893 155.557C25.6695 154.938 29.349 154.37 33.0273 153.853C33.35 154.254 33.2631 154.583 32.7666 154.84C30.2842 156.624 27.8506 158.478 25.4658 160.401C26.5295 161.247 27.5144 162.174 28.4209 163.181Z" fill="#4991FD"/>
<path opacity="0.99" fill-rule="evenodd" clip-rule="evenodd" d="M65.794 189.91C65.1565 189.91 64.5193 189.91 63.8819 189.91C57.7737 189.378 53.6307 186.149 51.4531 180.223C50.1962 175.49 50.8336 171.065 53.3653 166.948C56.943 162.46 61.5494 160.636 67.1846 161.477C73.4151 162.521 77.2682 166.198 78.7442 172.51C79.9081 179.944 77.2717 185.356 70.835 188.744C69.1803 189.366 67.5001 189.755 65.794 189.91ZM63.3604 168.204C67.6146 167.78 70.0773 169.753 70.7481 174.124C71.0933 176.765 70.5139 179.157 69.0098 181.3C66.0671 183.993 63.2279 183.874 60.4922 180.941C58.5222 177.413 58.5222 173.885 60.4922 170.357C61.2405 169.311 62.1966 168.594 63.3604 168.204Z" fill="#A0C6FF"/>
<path opacity="0.99" d="M93.6373 167.526L93.5975 167.523L93.5578 167.527C92.2452 167.656 91.1086 168.073 90.1692 168.796C89.2307 169.518 88.5165 170.524 88.014 171.786L88.0085 171.8L88.0038 171.814C86.9209 175.086 87.2238 178.223 88.9132 181.188L88.9413 181.238L88.9797 181.279C90.3437 182.762 91.8062 183.611 93.3682 183.712C94.9307 183.812 96.4841 183.157 98.0146 181.86L98.0605 181.822L98.0958 181.773C100.112 178.999 100.659 175.912 99.738 172.557L99.738 172.557L99.7366 172.552C99.2974 171.014 98.5713 169.797 97.5344 168.941C96.496 168.084 95.1857 167.622 93.6373 167.526ZM105.261 183.37C102.636 187.125 99.1051 189.128 94.6338 189.41H94.6307H94.627H94.6233H94.6195H94.6158H94.612H94.6083H94.6046H94.6008H94.5971H94.5934H94.5896H94.5859H94.5822H94.5784H94.5747H94.571H94.5672H94.5635H94.5598H94.556H94.5523H94.5486H94.5448H94.5411H94.5374H94.5336H94.5299H94.5261H94.5224H94.5187H94.5149H94.5112H94.5075H94.5037H94.5H94.4963H94.4925H94.4888H94.4851H94.4813H94.4776H94.4739H94.4701H94.4664H94.4627H94.4589H94.4552H94.4515H94.4477H94.444H94.4402H94.4365H94.4328H94.429H94.4253H94.4216H94.4178H94.4141H94.4104H94.4066H94.4029H94.3992H94.3954H94.3917H94.388H94.3842H94.3805H94.3768H94.373H94.3693H94.3656H94.3618H94.3581H94.3543H94.3506H94.3469H94.3431H94.3394H94.3357H94.3319H94.3282H94.3245H94.3207H94.317H94.3133H94.3095H94.3058H94.3021H94.2983H94.2946H94.2909H94.2871H94.2834H94.2797H94.2759H94.2722H94.2685H94.2647H94.261H94.2572H94.2535H94.2498H94.246H94.2423H94.2386H94.2348H94.2311H94.2274H94.2236H94.2199H94.2162H94.2124H94.2087H94.205H94.2012H94.1975H94.1938H94.19H94.1863H94.1826H94.1788H94.1751H94.1714H94.1676H94.1639H94.1601H94.1564H94.1527H94.1489H94.1452H94.1415H94.1377H94.134H94.1303H94.1265H94.1228H94.1191H94.1153H94.1116H94.1079H94.1041H94.1004H94.0967H94.0929H94.0892H94.0855H94.0817H94.078H94.0743H94.0705H94.0668H94.0631H94.0593H94.0556H94.0518H94.0481H94.0444H94.0406H94.0369H94.0332H94.0294H94.0257H94.022H94.0182H94.0145H94.0108H94.007H94.0033H93.9996H93.9958H93.9921H93.9884H93.9846H93.9809H93.9772H93.9734H93.9697H93.966H93.9622H93.9585H93.9548H93.951H93.9473H93.9435H93.9398H93.9361H93.9323H93.9286H93.9249H93.9211H93.9174H93.9137H93.9099H93.9062H93.9025H93.8987H93.895H93.8913H93.8875H93.8838H93.8801H93.8763H93.8726H93.8689H93.8651H93.8614H93.8577H93.8539H93.8502H93.8465H93.8427H93.839H93.8352H93.8315H93.8278H93.824H93.8203H93.8166H93.8128H93.8091H93.8054H93.8016H93.7979H93.7942H93.7904H93.7867H93.783H93.7792H93.7755H93.7718H93.768H93.7643H93.7606H93.7568H93.7531H93.7494H93.7456H93.7419H93.7382H93.7344H93.7307H93.727H93.7232H93.7195H93.7157H93.712H93.7083H93.7045H93.7008H93.6971H93.6933H93.6896H93.6859H93.6821H93.6784H93.6747H93.6709H93.6672H93.6635H93.6597H93.656H93.6523H93.6485H93.6448H93.6411H93.6373H93.6336H93.6299H93.6261H93.6224H93.6187H93.6149H93.6112H93.6075H93.6037H93.6H93.5962H93.5925H93.5888H93.585H93.5813H93.5776H93.5738H93.5701H93.5664H93.5626H93.5589H93.5552H93.5514H93.5477H93.544H93.5402H93.5365H93.5328H93.529H93.5253H93.5216H93.5178H93.5141H93.5104H93.5066H93.5029H93.4992H93.4954H93.4917H93.4879H93.4842H93.4805H93.4767H93.473H93.4693H93.4655H93.4618H93.4581H93.4543H93.4506H93.4469H93.4431H93.4394H93.4357H93.4319H93.4282H93.4245H93.4207H93.417H93.4133H93.4095H93.4058H93.4021H93.3983H93.3946H93.3909H93.3871H93.3834H93.3796H93.3759H93.3722H93.3684H93.3647H93.361H93.3572H93.3535H93.3498H93.346H93.3423H93.3386H93.3348H93.3311H93.3274H93.3236H93.3199H93.3162H93.3124H93.3087H93.305H93.3012H93.2975H93.2938H93.29H93.2863H93.2826H93.2788H93.2751H93.2713H93.2676H93.2639H93.2601H93.2564H93.2527H93.2489H93.2452H93.2415H93.2377H93.234H93.2303H93.2265H93.2228H93.2191H93.2153H93.2116H93.2079H93.2041H93.2004H93.1967H93.1929H93.1892H93.1855H93.1817H93.178H93.1743H93.1705H93.1668H93.163H93.1593H93.1556H93.1518H93.1481H93.1444H93.1406H93.1369H93.1332H93.1294H93.1257H93.122H93.1182H93.1145H93.1108H93.107H93.1033H93.0996H93.0958H93.0921H93.0884H93.0846H93.0809H93.0772H93.0734H93.0697H93.0659H93.0622H93.0585H93.0547H93.051H93.0473H93.0435H93.0398H93.0361H93.0323H93.0286H93.0249H93.0211H93.0174H93.0137H93.0099H93.0062H93.0025H92.9987H92.995H92.9913H92.9875H92.9838H92.9801H92.9763H92.9726H92.9688H92.9651H92.9614H92.9576H92.9539H92.9502H92.9464H92.9427H92.939H92.9352H92.9315H92.9278H92.924H92.9203H92.9166H92.9128H92.9091H92.9054H92.9016H92.8979H92.8942H92.8904H92.8867H92.8829H92.8792H92.8755H92.8717H92.868H92.8643H92.8605H92.8568H92.8531H92.8493H92.8456H92.8419H92.8381H92.8344H92.8307H92.8269H92.8232H92.8195H92.8157H92.812H92.8082H92.8045H92.8008H92.797H92.7933H92.7896H92.7858H92.7821H92.7784H92.7746H92.7709H92.7672H92.7634H92.7597H92.7587C89.8298 189.157 87.3869 188.264 85.4074 186.749C83.4279 185.235 81.8823 183.077 80.7842 180.246C79.5469 175.696 80.1057 171.428 82.4609 167.41C85.9504 162.978 90.4301 161.176 95.9644 161.971C100.734 162.745 104.156 165.35 106.268 169.83C107.928 174.516 107.592 179.017 105.261 183.37Z" fill="#A0C6FF" stroke="#A0C6FF"/>
<path opacity="0.991" fill-rule="evenodd" clip-rule="evenodd" d="M177.913 175.559C177.913 176.456 177.913 177.353 177.913 178.25C170.96 178.25 164.007 178.25 157.054 178.25C158.103 182.293 160.652 184.236 164.702 184.08C166.75 183.832 168.314 182.816 169.396 181.031C172.229 180.792 175.069 180.703 177.913 180.761C177.913 180.941 177.913 181.12 177.913 181.3C176.375 184.77 173.884 187.252 170.438 188.744C169.055 189.25 167.664 189.639 166.267 189.91C164.47 189.91 162.674 189.91 160.878 189.91C156.577 189.291 153.188 187.138 150.709 183.452C149.349 181.039 148.741 178.438 148.884 175.649C148.811 169.218 151.65 164.793 157.401 162.374C161.479 161.012 165.535 161.072 169.569 162.553C173.196 164.322 175.659 167.163 176.957 171.074C177.357 172.576 177.677 174.071 177.913 175.559ZM162.442 166.949C166.319 166.881 168.753 168.794 169.743 172.689C165.571 172.928 161.399 172.928 157.228 172.689C157.972 169.77 159.71 167.856 162.442 166.949Z" fill="#A0C6FF"/>
<path opacity="0.988" fill-rule="evenodd" clip-rule="evenodd" d="M23.7275 168.563C24.5838 167.711 25.4818 166.874 26.4219 166.051C27.1325 165.121 27.7988 164.164 28.4209 163.181C28.9274 163.433 29.362 163.792 29.7246 164.258C30.9165 162.91 32.3941 162.103 34.1572 161.836C37.7958 161.197 41.3304 161.556 44.7607 162.912C47.5317 164.355 49.1831 166.657 49.7148 169.819C49.8018 176.276 49.8308 182.734 49.8018 189.193C47.1365 189.193 44.471 189.193 41.8057 189.193C41.8839 183.148 41.797 177.108 41.5449 171.074C40.8178 168.526 39.1664 167.539 36.5908 168.114C34.9699 168.676 34.0717 169.842 33.8965 171.613C33.8096 177.472 33.7805 183.332 33.8096 189.193C31.0862 189.193 28.363 189.193 25.6396 189.193C25.6687 183.273 25.6396 177.353 25.5527 171.433C25.4156 170.128 24.8072 169.171 23.7275 168.563Z" fill="#A0C6FF"/>
<path opacity="0.988" fill-rule="evenodd" clip-rule="evenodd" d="M9.8213 169.819C10.7814 170.171 11.7664 170.44 12.7764 170.626C14.5137 170.716 16.252 170.745 17.9912 170.716C17.8233 176.871 17.7654 183.03 17.8174 189.193C15.0941 189.193 12.3708 189.193 9.64747 189.193C9.59402 182.73 9.65197 176.272 9.8213 169.819Z" fill="#A0C6FF"/>
</g>
<g clip-path="url(#clip1_603_508)">
<path d="M105.172 8.55528C101.739 9.13653 98.2148 11.407 96.1986 14.3678C94.691 16.5838 94.0916 18.5092 93.8373 21.9604C93.7101 23.6678 93.5285 24.6305 93.1107 25.8656C92.584 27.4277 91.2761 29.8254 90.6767 30.334C90.2408 30.6973 90.3498 30.9516 91.2217 31.4057C92.366 32.0051 94.2551 33.7852 95.2359 35.1838C97.4519 38.2717 98.233 42.74 97.2158 46.5908C95.908 51.477 91.7666 55.6184 86.8623 56.9262C83.6109 57.798 77.9619 57.3258 73.3482 55.7818C69.8789 54.6193 65.8101 52.3125 62.9765 49.8785C62.1773 49.1883 61.7777 48.9522 61.7414 49.1338C61.7051 49.2791 61.923 50.3145 62.2318 51.4406C64.466 59.7961 69.9152 66.5713 77.5078 70.3857C80.3051 71.7844 84.4101 73.0377 87.1347 73.3102L88.4062 73.4373V76.3072V79.1953H84.0469C80.0144 79.1953 79.6148 79.2316 78.9609 79.5586C78.1435 79.9764 77.5078 81.0117 77.5078 81.9199C77.5078 82.8281 78.1435 83.8635 78.9609 84.2813C79.633 84.6264 80.0144 84.6445 85.6816 84.6445C91.258 84.6445 91.7484 84.6264 92.3842 84.2994C92.7474 84.0996 93.1834 83.809 93.3287 83.6273C93.8373 82.9916 95.3267 82.4648 96.5801 82.4648C97.8334 82.4648 99.3228 82.9916 99.8314 83.6273C100.231 84.0996 101.394 84.6445 102.029 84.6445C103.41 84.6445 104.754 83.3004 104.754 81.9199C104.754 80.1762 102.102 77.9965 99.0867 77.2881C97.8152 76.9975 95.581 76.943 94.5457 77.1791L93.8554 77.3426V75.4898V73.6189L95.3631 73.401C108.877 71.3666 119.358 60.1049 120.902 45.9188C121.156 43.5938 121.174 24.2127 120.902 22.1602C120.121 15.8027 117.124 11.2436 112.474 9.31817C110.457 8.46446 107.515 8.17384 105.172 8.55528ZM108.75 19.6172C109.567 20.035 110.203 21.0703 110.203 21.9785C110.203 23.359 108.859 24.7031 107.46 24.7031C106.134 24.7031 104.754 23.3227 104.754 21.9785C104.754 21.1066 105.39 20.035 106.171 19.6354C107.043 19.1631 107.86 19.1631 108.75 19.6172Z" fill="#586CF5"/>
<path d="M125.352 9.2274L122.046 10.0811L123.009 11.6614C124.498 14.1135 125.37 16.4749 126.097 20.0532C126.206 20.5436 126.405 20.3075 128.749 16.7837C131.673 12.4243 132 11.843 132 11.0801C132 9.68151 130.638 8.33737 129.239 8.37369C128.912 8.37369 127.15 8.7733 125.352 9.2274Z" fill="#586CF5"/>
<path d="M40.4168 16.9107C39.6176 17.3285 39 18.382 39 19.3265C39 20.1984 40.3986 22.8503 41.7791 24.6123C42.7055 25.7929 45.0668 27.8455 55.4203 36.4734C67.227 46.3183 69.6064 48.1892 71.7861 49.2791C75.7096 51.2226 81.7037 52.3851 84.8098 51.7857C89.8957 50.7685 93.2197 45.6644 91.9301 40.7783C91.5668 39.3615 90.9129 38.2716 89.7686 37.1455C88.6061 36.0193 87.1348 35.2746 85.2639 34.9113C83.8834 34.6388 83.7381 34.6388 81.5221 35.0566C78.5795 35.6015 76.7994 35.6923 74.9285 35.438C73.1484 35.1656 70.5146 34.33 69.2432 33.6216C68.7527 33.331 63.0311 29.68 56.5283 25.5205C50.0437 21.3427 44.1949 17.6009 43.541 17.2195C42.1969 16.4384 41.4521 16.3476 40.4168 16.9107Z" fill="#586CF5"/>
</g>
<path d="M91.5 94L91 117" stroke="#586CF5" stroke-width="3" stroke-linecap="round" stroke-dasharray="3 5"/>
<path d="M91.5 129L91 152" stroke="#A0C6FF" stroke-width="3" stroke-linecap="round" stroke-dasharray="3 5"/>
<path d="M89.575 123.975L86.6188 121.019C86.3667 120.767 86.0458 120.641 85.6562 120.641C85.2667 120.641 84.9458 120.767 84.6938 121.019C84.4417 121.271 84.3156 121.592 84.3156 121.981C84.3156 122.371 84.4417 122.692 84.6938 122.944L88.6125 126.863C88.8875 127.138 89.2083 127.275 89.575 127.275C89.9417 127.275 90.2625 127.138 90.5375 126.863L98.3062 119.094C98.5583 118.842 98.6844 118.521 98.6844 118.131C98.6844 117.742 98.5583 117.421 98.3062 117.169C98.0542 116.917 97.7333 116.791 97.3438 116.791C96.9542 116.791 96.6333 116.917 96.3813 117.169L89.575 123.975ZM91.5 135.25C89.5979 135.25 87.8104 134.889 86.1375 134.167C84.4646 133.445 83.0094 132.466 81.7719 131.228C80.5344 129.991 79.5547 128.535 78.8328 126.863C78.1109 125.19 77.75 123.402 77.75 121.5C77.75 119.598 78.1109 117.81 78.8328 116.137C79.5547 114.465 80.5344 113.009 81.7719 111.772C83.0094 110.534 84.4646 109.555 86.1375 108.833C87.8104 108.111 89.5979 107.75 91.5 107.75C93.4021 107.75 95.1896 108.111 96.8625 108.833C98.5354 109.555 99.9906 110.534 101.228 111.772C102.466 113.009 103.445 114.465 104.167 116.137C104.889 117.81 105.25 119.598 105.25 121.5C105.25 123.402 104.889 125.19 104.167 126.863C103.445 128.535 102.466 129.991 101.228 131.228C99.9906 132.466 98.5354 133.445 96.8625 134.167C95.1896 134.889 93.4021 135.25 91.5 135.25Z" fill="#586CF5"/>
<defs>
<clipPath id="clip0_603_508">
<rect width="178" height="47" fill="white" transform="translate(0 143)"/>
</clipPath>
<clipPath id="clip1_603_508">
<rect width="93" height="93" fill="white" transform="translate(39)"/>
</clipPath>
</defs>
</svg>
