<svg width="300" height="300" viewBox="0 0 300 300" fill="none" xmlns="http://www.w3.org/2000/svg">
<path d="M260.82 107.25C258.57 102.63 244.155 82.215 240.99 79.62C239.616 78.6179 238.099 77.829 236.49 77.28L236.37 77.61C234.035 88.939 236.232 100.732 242.49 110.46C244.74 114.21 246.87 116.805 247.71 118.065C248.76 119.835 246.645 122.295 243.33 124.755C237.904 128.59 231.953 131.621 225.66 133.755V133.635C225.99 132.945 223.935 130.98 221.505 130.83H221.1V132.555C220.26 134.97 215.925 134.55 214.035 134.235C213.39 134.115 210.345 132.87 210.345 131.94V131.79C210.117 131.767 209.887 131.791 209.669 131.861C209.451 131.931 209.249 132.044 209.076 132.194C208.903 132.345 208.763 132.529 208.664 132.735C208.565 132.942 208.509 133.166 208.5 133.395C208.578 133.899 208.774 134.377 209.071 134.791C209.368 135.205 209.758 135.544 210.21 135.78C210.01 135.736 209.803 135.736 209.603 135.781C209.403 135.825 209.215 135.912 209.053 136.036C208.89 136.161 208.756 136.319 208.661 136.5C208.565 136.681 208.51 136.881 208.5 137.085C208.596 137.54 208.796 137.967 209.085 138.331C209.374 138.696 209.744 138.988 210.165 139.185C209.981 139.128 209.785 139.113 209.594 139.143C209.404 139.172 209.222 139.244 209.063 139.354C208.904 139.464 208.772 139.608 208.677 139.776C208.582 139.945 208.527 140.132 208.515 140.325C208.515 140.865 209.19 141.495 210.36 142.035C213.781 143.297 217.491 143.557 221.055 142.785C222.931 142.632 224.783 142.265 226.575 141.69L226.95 141.135C232.799 141.253 238.607 140.128 243.99 137.835C254.31 133.74 263.82 126.315 264.345 118.23C264.525 114.165 262.59 111 260.82 107.25Z" fill="black"/>
<path d="M216.15 216.645C219.15 229.86 223.005 242.595 226.845 254.52H226.965H244.5C244.59 243.825 244.665 230.52 244.71 216.585H216.21L216.15 216.645Z" fill="black"/>
<path d="M227.055 274.815C217.56 275.985 211.2 271.23 209.745 277.035L209.97 278.415H244.26C244.26 278.415 244.26 275.67 244.335 270.915H243.945C237.915 270.525 232.5 274.14 227.055 274.815Z" fill="black"/>
<path d="M215.235 92.31C217.44 92.97 225.285 78.345 226.23 74.46C226.23 65.715 224.91 58.05 224.175 49.29V49.155C224.787 49.3917 225.455 49.4426 226.095 49.3012C226.736 49.1597 227.32 48.8323 227.775 48.36C229.275 46.455 226.89 39.75 223.395 42.78H223.32C223.32 42.24 223.23 42.045 223.14 41.46V41.16H223.005C223.005 41.16 217.14 40.455 212.925 40.455C208.98 40.455 203.085 41.16 203.085 41.16C202.925 41.1756 202.765 41.1756 202.605 41.16V41.295C202.277 42.8788 202.116 44.4926 202.125 46.11C202.125 51.48 208.125 63 210.24 63.84C210.5 63.9465 210.772 64.022 211.05 64.065C210.464 68.0106 209.412 71.8727 207.915 75.57C208.14 78 212.61 91.5 215.235 92.31Z" fill="black"/>
<path d="M213 34.68C215.655 34.68 219.885 35.04 221.91 35.22V35.13C221.513 33.8377 220.843 32.6458 219.945 31.635C214.785 25.86 208.53 28.56 204.945 34.98V35.16C207.165 34.965 210.795 34.68 213 34.68Z" fill="black"/>
<path d="M210.525 116.475C210.505 116.585 210.51 116.698 210.538 116.806C210.567 116.914 210.619 117.014 210.69 117.1C210.762 117.186 210.851 117.255 210.952 117.302C211.053 117.35 211.163 117.375 211.275 117.375H219.96C220.072 117.375 220.182 117.35 220.283 117.302C220.384 117.255 220.473 117.186 220.545 117.1C220.616 117.014 220.668 116.914 220.697 116.806C220.725 116.698 220.73 116.585 220.71 116.475C220.494 115.281 219.866 114.202 218.935 113.424C218.005 112.646 216.83 112.22 215.617 112.22C214.405 112.22 213.23 112.646 212.299 113.424C211.369 114.202 210.741 115.281 210.525 116.475Z" fill="black"/>
<path d="M198.615 76.71C197.654 76.9671 196.727 77.3398 195.855 77.82C190.86 80.67 175.155 93.99 175.155 93.99C170.501 87.5862 166.482 80.7438 163.155 73.56L162.765 73.74L155.745 74.73C156.42 77.025 157.245 79.92 158.28 83.1C162.135 95.4 167.895 111.6 171.36 111.39C177.66 110.895 192.36 102.63 192.885 102.39C193.027 102.312 193.163 102.221 193.29 102.12C194.88 100.95 200.355 95.52 199.02 77.085L198.615 76.71Z" fill="black"/>
<path d="M179.835 241.035C174.075 240.645 168.855 244.26 163.665 244.935C154.5 246.105 148.5 241.35 147 247.155V247.74L180 247.59C180 247.59 179.895 245.04 179.76 241.035H179.835Z" fill="black"/>
<path d="M157.59 176.55C154.815 184.32 160.38 207.93 164.22 222.3H179.445C179.325 209.55 179.58 196.155 181.095 193.17C180.015 192.405 169.71 185.145 157.755 176.13C157.695 176.265 157.635 176.415 157.59 176.55Z" fill="black"/>
<path d="M154.185 69.615L161.085 68.91C162.285 63.63 162.765 52.41 160.995 50.91C160.38 50.355 159.495 50.205 159.255 51.135C159 50.145 158.595 49.515 157.935 49.515C156.93 49.515 156.435 50.085 156.315 51.195C156.254 51.0253 156.154 50.872 156.024 50.7471C155.894 50.6222 155.737 50.5291 155.565 50.475C153.795 50.1 154.26 53.85 154.275 54.765C154.275 57.435 154.5 59.67 154.275 62.655C154.275 62.13 154.14 61.605 154.065 61.155C153.995 60.4571 153.818 59.7741 153.54 59.13C153.33 58.71 152.82 58.14 152.235 58.425C151.335 58.86 151.44 60.165 151.47 60.885C151.5 63 152.415 69.825 154.185 69.615Z" fill="black"/>
<path d="M145.785 69.315C141.54 67.815 139.32 68.67 138.9 68.865C138.255 70.485 137.55 72.12 136.785 73.74C133.439 80.852 129.421 87.6278 124.785 93.975C124.785 93.975 110.34 83.235 105.285 80.475C100.785 78.03 93.435 78.33 93.435 78.33C93.3394 77.6378 93.0745 76.98 92.6637 76.4148C92.2528 75.8496 91.7089 75.3945 91.08 75.09L90.75 75C85.734 74.0296 80.5721 74.1011 75.585 75.21L75.375 75.315C74.411 76.0776 73.747 77.1559 73.5 78.36C73.5 78.36 61.23 80.175 57.645 83.13C54.465 85.74 41.49 102.63 39.255 107.25C37.485 110.925 35.55 114.165 35.805 118.275C36.345 126.51 46.125 134.025 56.61 138.075V138.24C56.22 146.76 55.68 153.24 55.38 158.91H57L113.04 158.82H114.255C114.075 149.595 109.965 120.12 107.265 102.36C107.73 102.585 122.49 110.85 128.79 111.36C131.97 111.6 137.13 97.86 140.97 85.965C143.82 77.115 145.935 69.375 145.935 69.375H145.815L145.785 69.315ZM96.165 115.815H89.235L88.305 122.19H88.59C88.7482 122.21 88.9008 122.262 89.0388 122.342C89.1769 122.422 89.2976 122.528 89.394 122.655C89.4903 122.782 89.5604 122.927 89.6001 123.082C89.6397 123.236 89.6482 123.397 89.625 123.555L89.325 129.045L89.19 131.415C89.4143 131.401 89.6392 131.432 89.8513 131.506C90.0635 131.58 90.2585 131.697 90.425 131.848C90.5914 131.999 90.7259 132.182 90.8203 132.386C90.9148 132.59 90.9674 132.81 90.975 133.035C90.8932 133.538 90.6963 134.014 90.3997 134.428C90.103 134.842 89.7147 135.181 89.265 135.42C89.4633 135.39 89.6656 135.401 89.8598 135.451C90.054 135.501 90.2362 135.59 90.3957 135.711C90.5551 135.833 90.6885 135.985 90.788 136.159C90.8875 136.334 90.9511 136.526 90.975 136.725C90.8872 137.183 90.69 137.614 90.4001 137.979C90.1102 138.345 89.7362 138.635 89.31 138.825C89.4957 138.764 89.6929 138.748 89.8862 138.777C90.0794 138.805 90.2633 138.879 90.4233 138.991C90.5833 139.103 90.7151 139.25 90.8082 139.422C90.9014 139.594 90.9533 139.785 90.96 139.98C90.96 140.685 89.94 141.6 88.11 142.23L88.53 142.395L88.35 145.74C88.3591 146.032 88.2575 146.316 88.0655 146.536C87.8734 146.756 87.6053 146.895 87.315 146.925H80.1C79.8097 146.895 79.5415 146.756 79.3495 146.536C79.1575 146.316 79.0558 146.032 79.065 145.74L78.9 142.74V142.575C77.1502 142.223 75.4339 141.721 73.77 141.075H73.335C74.835 139.995 74.37 133.35 74.37 133.35C74.205 132.615 75.975 130.755 78.06 130.605H78.195L78.105 128.745L78 126.345C77.2667 126.3 76.5619 126.044 75.9699 125.609C75.3779 125.174 74.9237 124.578 74.6616 123.892C74.3996 123.205 74.3407 122.458 74.4922 121.739C74.6436 121.02 74.9988 120.36 75.5155 119.838C76.0321 119.315 76.6882 118.953 77.4054 118.793C78.1226 118.634 78.8706 118.685 79.5598 118.939C80.249 119.193 80.8504 119.641 81.292 120.228C81.7336 120.815 81.9967 121.517 82.05 122.25H86.235L87.48 113.88H96.315L96.165 115.815Z" fill="black"/>
<path d="M128.145 268.935C121.62 268.17 113.25 264.18 111.225 264.03H110.79C109.845 264.285 98.955 264.03 98.955 264.03C98.955 264.03 98.955 263.805 98.955 263.655V275.235L133.59 275.085C134.265 271.05 131.295 269.295 128.145 268.935Z" fill="black"/>
<path d="M62.355 268.635C59.58 268.77 59.355 265.08 53.895 262.32L53.64 262.185L43.5 258.15H43.32L38.58 267.855L53.31 274.8L71.475 274.965V274.5C71.025 271.98 67.155 268.41 62.355 268.635Z" fill="black"/>
<path d="M163.725 278.565C172.606 278.565 179.805 271.648 179.805 263.115C179.805 254.582 172.606 247.665 163.725 247.665C154.844 247.665 147.645 254.582 147.645 263.115C147.645 271.648 154.844 278.565 163.725 278.565Z" stroke="black" stroke-width="0.86" stroke-miterlimit="10" stroke-linecap="round"/>
<path d="M147.345 263.085C147.345 263.085 163.335 269.55 179.52 263.085" stroke="black" stroke-width="0.86" stroke-miterlimit="10"/>
<path d="M163.86 247.635V278.55" stroke="black" stroke-width="0.86" stroke-miterlimit="10"/>
<path d="M175.155 252.36C168.75 254.19 166.74 258.36 167.28 265.755" stroke="black" stroke-width="0.86" stroke-miterlimit="10"/>
<path d="M174.795 274.02C169.74 273.6 167.55 270.75 167.295 265.755" stroke="black" stroke-width="0.86" stroke-miterlimit="10"/>
<path d="M151.875 252.36C158.295 254.19 160.29 258.36 159.765 265.755" stroke="black" stroke-width="0.86" stroke-miterlimit="10"/>
<path d="M152.25 274.02C157.305 273.6 159.495 270.75 159.75 265.755" stroke="black" stroke-width="0.86" stroke-miterlimit="10"/>
<path d="M98.94 278.1H133.665V275.25H98.94V278.1Z" stroke="black" stroke-width="0.86" stroke-linecap="round" stroke-linejoin="round"/>
<path d="M209.76 171C210.84 204.435 221.025 237.12 230.13 264.675C230.13 264.675 221.385 268.575 214.845 269.355C211.71 269.715 208.725 271.47 209.46 275.475L209.94 278.475H244.23C244.23 278.475 245.07 201.975 244.455 158.475" stroke="black" stroke-width="0.86" stroke-miterlimit="10"/>
<path d="M186.51 158.49C177.63 162.195 159.51 171.18 157.59 176.49C153.51 187.935 167.49 233.79 167.49 233.79C164.805 234.51 158.595 237.66 152.055 238.425C148.905 238.8 145.935 240.54 146.67 244.56L147.09 247.68L180.09 247.53C180.09 247.53 177.9 195.645 181.44 192.63C188.13 186.915 199.965 183.36 210.285 183.63" stroke="black" stroke-width="0.86" stroke-miterlimit="10"/>
<path d="M56.5351 138.24C56.1451 146.76 55.6051 153.24 55.3051 158.91L114.195 158.805C114 147.915 108.3 108.825 105.915 94.065" stroke="black" stroke-width="0.86" stroke-linecap="round" stroke-linejoin="round"/>
<path d="M53.91 262.305C57.855 259.08 87.945 206.61 94.485 171.075" stroke="black" stroke-width="0.86" stroke-miterlimit="10" stroke-linecap="round"/>
<path d="M57 159C55.2 193.29 43.5 258 43.5 258" stroke="black" stroke-width="0.86" stroke-miterlimit="10" stroke-linecap="round"/>
<path d="M87 196.77C89.82 212.07 98.1 259.005 98.895 264.015C98.895 264.015 110.655 264.255 110.79 264.015C112.77 259.695 114.135 213.87 112.92 159.36" stroke="black" stroke-width="0.86" stroke-miterlimit="10" stroke-linecap="round"/>
<path d="M67.155 167.265C65.655 175.35 57.63 177.765 50.265 176.52" stroke="black" stroke-width="0.86" stroke-miterlimit="10" stroke-linecap="round"/>
<path d="M111.225 264C113.25 264.15 121.62 268.14 128.145 268.905C131.295 269.265 134.265 271.02 133.545 275.04L98.91 275.19" stroke="black" stroke-width="0.86" stroke-linecap="round" stroke-linejoin="round"/>
<path d="M98.895 263.64V274.965" stroke="black" stroke-width="0.86" stroke-miterlimit="10"/>
<path d="M36.915 270.84L52.59 277.89L71.43 277.74V274.89L53.25 274.725L38.52 267.78L36.915 270.84Z" stroke="black" stroke-width="0.86" stroke-linecap="round" stroke-linejoin="round"/>
<path d="M71.415 274.5C71.025 271.935 67.155 268.365 62.415 268.59C59.595 268.725 59.415 264.915 53.7 262.14L43.32 258.03L38.58 267.735" stroke="black" stroke-width="0.86" stroke-linecap="round" stroke-linejoin="round"/>
<path d="M76.635 42.72C77.1 39.315 77.715 34.275 80.085 31.635C87.675 23.145 96.495 40.44 97.905 46.005C99.24 51.195 91.905 62.895 89.805 63.735C86.625 64.995 82.11 62.01 80.685 59.055" stroke="black" stroke-width="0.86" stroke-miterlimit="10" stroke-linecap="round"/>
<path d="M75.555 75.105C75.555 66.21 75.075 58.155 75.825 49.29" stroke="black" stroke-width="0.86" stroke-miterlimit="10"/>
<path d="M88.9351 63.585C89.3701 67.41 89.8651 71.865 91.3501 75.09" stroke="black" stroke-width="0.86" stroke-miterlimit="10"/>
<path d="M77.85 44.28C73.665 38.1 70.56 46.23 72.18 48.36C73.215 49.725 75.435 49.47 76.68 48.825" stroke="black" stroke-width="0.86" stroke-miterlimit="10" stroke-linecap="round"/>
<path d="M92.7749 35.505C93.2849 35.505 105.315 33.105 103.62 29.805C101.7 26.025 78.4949 37.95 77.0699 38.58" stroke="black" stroke-width="0.86" stroke-miterlimit="10"/>
<path d="M85.995 45C85.3796 44.8125 84.7286 44.7733 84.0951 44.8853C83.4617 44.9974 82.8637 45.2577 82.35 45.645" stroke="black" stroke-width="0.86" stroke-miterlimit="10" stroke-linecap="round"/>
<path d="M75.9 45.495C75.2574 46.1238 74.3989 46.4833 73.5 46.5" stroke="black" stroke-width="0.86" stroke-miterlimit="10" stroke-linecap="round"/>
<path d="M84.84 48.96C85.1879 48.96 85.47 48.6779 85.47 48.33C85.47 47.9821 85.1879 47.7 84.84 47.7C84.492 47.7 84.21 47.9821 84.21 48.33C84.21 48.6779 84.492 48.96 84.84 48.96Z" fill="black"/>
<path d="M93.09 48.75C93.4379 48.75 93.72 48.4679 93.72 48.12C93.72 47.7721 93.4379 47.49 93.09 47.49C92.742 47.49 92.46 47.7721 92.46 48.12C92.46 48.4679 92.742 48.75 93.09 48.75Z" fill="black"/>
<path d="M94.14 45.165C93.15 44.715 90.9 44.85 90.495 45.825C89.865 47.325 90.825 50.655 91.23 52.53C91.5 53.805 91.965 56.295 89.73 55.62" stroke="black" stroke-width="0.86" stroke-miterlimit="10" stroke-linecap="round"/>
<path d="M138.915 68.88C135.231 77.7724 130.514 86.2004 124.86 93.99C124.86 93.99 110.415 83.25 105.36 80.49C100.86 78.045 93.51 78.345 93.51 78.345C93.3975 77.5914 93.0828 76.8824 92.5995 76.2934C92.1161 75.7044 91.4821 75.2574 90.765 75C85.725 73.62 76.515 74.61 75.375 75.315C74.411 76.0776 73.747 77.1559 73.5 78.36C73.5 78.36 61.23 80.175 57.645 83.13C54.465 85.74 41.505 102.63 39.255 107.25C37.485 110.925 35.55 114.165 35.805 118.275C36.63 131.01 59.58 142.035 73.065 141.15C74.925 141.03 74.475 133.29 74.475 133.29C69.585 132.105 49.605 122.79 52.425 118.065C57.7364 110.898 63.7679 104.293 70.425 98.355" stroke="black" stroke-width="0.86" stroke-linejoin="round"/>
<path d="M145.845 62.565C145.695 59.565 145.68 57.405 145.74 54.735C145.74 53.82 146.22 50.07 144.45 50.445C142.68 50.82 143.16 59.04 143.19 60.315" stroke="black" stroke-width="0.86" stroke-linecap="round" stroke-linejoin="round"/>
<path d="M143.67 51.15C143.505 50.04 143.055 49.455 142.05 49.47C139.83 49.47 140.37 56.97 140.325 60.39" stroke="black" stroke-width="0.86" stroke-linecap="round" stroke-linejoin="round"/>
<path d="M145.845 69.33C147.615 69.54 148.62 62.58 148.71 60.435C148.71 59.73 148.83 58.425 147.945 57.99C147.345 57.705 146.835 58.26 146.625 58.68C146.349 59.3247 146.172 60.0074 146.1 60.705C145.98 61.605 145.815 62.685 145.71 63.585" stroke="black" stroke-width="0.86" stroke-linecap="round" stroke-linejoin="round"/>
<path d="M140.67 51.075C140.505 50.145 139.545 50.295 138.93 50.85C137.16 52.44 137.64 63.63 138.84 68.85C138.84 68.85 141.06 67.575 145.785 69.255" stroke="black" stroke-width="0.86" stroke-linecap="round" stroke-linejoin="round"/>
<path d="M107.235 102.345C107.7 102.57 122.46 110.82 128.76 111.345C134.325 111.795 145.905 69.345 145.905 69.345" stroke="black" stroke-width="0.86" stroke-miterlimit="10"/>
<path d="M86.46 122.25H78.84C78.681 122.268 78.5273 122.319 78.3882 122.398C78.2491 122.477 78.1275 122.584 78.0308 122.711C77.9341 122.839 77.8642 122.985 77.8254 123.14C77.7866 123.295 77.7796 123.457 77.805 123.615L78.27 132.42" stroke="black" stroke-width="0.86" stroke-miterlimit="10"/>
<path d="M89.175 131.82L89.625 123.615C89.6482 123.457 89.6398 123.296 89.6001 123.142C89.5604 122.987 89.4904 122.842 89.394 122.715C89.2976 122.588 89.1769 122.482 89.0388 122.402C88.9008 122.322 88.7482 122.27 88.59 122.25H88.005" stroke="black" stroke-width="0.86" stroke-miterlimit="10"/>
<path d="M78.9 142.755L79.065 145.755C79.0559 146.047 79.1575 146.331 79.3496 146.551C79.5416 146.771 79.8097 146.91 80.1 146.94H87.375C87.6668 146.913 87.937 146.775 88.1297 146.555C88.3224 146.334 88.4228 146.048 88.41 145.755L88.59 142.5" stroke="black" stroke-width="0.86" stroke-miterlimit="10"/>
<path d="M78.255 132.24C79.11 134.655 83.535 134.25 85.455 133.92C86.16 133.8 89.535 132.42 89.19 131.49" stroke="black" stroke-width="0.86" stroke-miterlimit="10"/>
<path d="M89.2351 131.475C89.4594 131.461 89.6843 131.492 89.8964 131.566C90.1086 131.64 90.3036 131.757 90.4701 131.908C90.6365 132.059 90.7709 132.242 90.8654 132.446C90.9599 132.65 91.0125 132.87 91.0201 133.095C90.9001 135.375 86.7301 137.43 82.1851 136.725" stroke="black" stroke-width="0.86" stroke-miterlimit="10" stroke-linecap="round"/>
<path d="M89.31 135.48C89.5083 135.451 89.7106 135.461 89.9048 135.511C90.099 135.561 90.2812 135.65 90.4407 135.771C90.6001 135.893 90.7335 136.045 90.833 136.219C90.9325 136.394 90.9961 136.586 91.02 136.785C90.9 138.78 86.88 140.625 82.335 140.01" stroke="black" stroke-width="0.86" stroke-miterlimit="10" stroke-linecap="round"/>
<path d="M89.3701 138.915C89.5558 138.854 89.753 138.838 89.9462 138.867C90.1394 138.895 90.3233 138.969 90.4833 139.081C90.6434 139.193 90.7752 139.34 90.8683 139.512C90.9615 139.684 91.0134 139.875 91.02 140.07C91.02 141.915 84.195 145.14 73.8 141.075" stroke="black" stroke-width="0.86" stroke-miterlimit="10" stroke-linecap="round"/>
<path d="M74.355 133.35C74.07 132.645 75.855 130.695 78.03 130.53" stroke="black" stroke-width="0.86" stroke-miterlimit="10" stroke-linecap="round"/>
<path d="M225.57 133.635C225.9 132.945 223.845 130.98 221.415 130.83" stroke="black" stroke-width="0.86" stroke-miterlimit="10" stroke-linecap="round"/>
<path d="M78.165 128.655C81.66 127.26 82.215 131.37 86.85 130.95C87.3778 130.862 87.8766 130.648 88.3046 130.327C88.7327 130.006 89.0774 129.587 89.31 129.105" stroke="black" stroke-width="0.86" stroke-miterlimit="10" stroke-linecap="round"/>
<path d="M87.045 130.8L89.235 115.875L96.165 115.845L96.315 113.88H87.48L84.99 130.62" stroke="black" stroke-width="0.86" stroke-linecap="round" stroke-linejoin="round"/>
<path d="M244.035 138.195C244.605 147.51 245.13 156.06 245.28 158.685L186.39 158.58C186.6 147.69 190.98 116.865 193.38 102.105" stroke="black" stroke-width="0.86" stroke-linecap="round" stroke-linejoin="round"/>
<path d="M242.415 110.43C242.55 113.205 242.865 118.215 243.24 124.515" stroke="black" stroke-width="0.86" stroke-linecap="round" stroke-linejoin="round"/>
<path d="M221.88 35.13C221.483 33.8377 220.813 32.6458 219.915 31.635C214.755 25.86 208.5 28.56 204.915 34.98" stroke="black" stroke-width="0.86" stroke-miterlimit="10" stroke-linecap="round"/>
<path d="M223.365 42.72C223.365 42.18 223.275 41.985 223.185 41.4" stroke="black" stroke-width="0.86" stroke-miterlimit="10" stroke-linecap="round"/>
<path d="M226.23 74.775C226.23 65.88 224.925 58.155 224.175 49.275" stroke="black" stroke-width="0.86" stroke-miterlimit="10"/>
<path d="M222.3 44.085C226.53 37.395 229.635 46.185 228.015 48.48C227.45 49.0877 226.686 49.4742 225.862 49.5704C225.037 49.6666 224.205 49.4662 223.515 49.005" stroke="white" stroke-width="0.62" stroke-miterlimit="10" stroke-linecap="round"/>
<path d="M214.005 45C214.62 44.8125 215.271 44.7733 215.905 44.8853C216.538 44.9974 217.136 45.2577 217.65 45.645" stroke="white" stroke-width="0.62" stroke-miterlimit="10" stroke-linecap="round"/>
<path d="M224.1 45.495C224.743 46.1238 225.601 46.4833 226.5 46.5" stroke="white" stroke-width="0.62" stroke-miterlimit="10" stroke-linecap="round"/>
<path d="M215.16 48.96C215.508 48.96 215.79 48.6779 215.79 48.33C215.79 47.9821 215.508 47.7 215.16 47.7C214.812 47.7 214.53 47.9821 214.53 48.33C214.53 48.6779 214.812 48.96 215.16 48.96Z" fill="white"/>
<path d="M207.36 48.75C207.708 48.75 207.99 48.4679 207.99 48.12C207.99 47.7721 207.708 47.49 207.36 47.49C207.012 47.49 206.73 47.7721 206.73 48.12C206.73 48.4679 207.012 48.75 207.36 48.75Z" fill="white"/>
<path d="M206.31 45.165C207.3 44.715 209.535 44.85 209.94 45.825C210.585 47.325 208.125 52.215 207.705 54.09C207.435 55.365 209.55 55.215 210.84 55.065" stroke="white" stroke-width="0.62" stroke-miterlimit="10" stroke-linecap="round"/>
<path d="M215.715 56.73C214.59 60.495 209.715 60.54 208.755 58.035" stroke="white" stroke-width="0.62" stroke-miterlimit="10" stroke-linecap="round"/>
<path d="M154.2 61.275C154.2 58.08 154.2 57.315 154.095 54.585C154.095 53.64 153.6 49.815 155.46 50.19C157.545 50.61 156.96 58.98 156.84 60.285" stroke="white" stroke-width="0.62" stroke-linecap="round" stroke-linejoin="round"/>
<path d="M156.24 50.7C156.238 50.484 156.282 50.2701 156.371 50.073C156.459 49.8758 156.588 49.7 156.751 49.5576C156.913 49.4152 157.104 49.3095 157.311 49.2478C157.518 49.186 157.736 49.1697 157.95 49.2C160.41 49.2 159.885 56.505 159.795 60.12" stroke="white" stroke-width="0.62" stroke-linecap="round" stroke-linejoin="round"/>
<path d="M198.9 77.04C200.4 98.52 192.765 102.345 192.765 102.345C192.3 102.57 177.54 110.82 171.24 111.345C165.675 111.795 154.2 69.645 154.2 69.645" stroke="black" stroke-width="0.86" stroke-linecap="round" stroke-linejoin="round"/>
<path d="M180.975 193.125C180.975 193.125 170.355 185.625 157.65 176.04" stroke="black" stroke-width="0.86" stroke-miterlimit="10"/>
<path d="M244.905 216.555C244.905 216.555 232.02 216.555 216.225 216.21" stroke="black" stroke-width="0.86" stroke-miterlimit="10"/>
<path d="M78.225 126.36C77.4685 126.36 76.729 126.136 76.1 125.715C75.471 125.295 74.9807 124.698 74.6912 123.999C74.4017 123.3 74.3259 122.531 74.4735 121.789C74.6211 121.047 74.9854 120.365 75.5203 119.83C76.0553 119.295 76.7368 118.931 77.4788 118.783C78.2208 118.636 78.9899 118.712 79.6888 119.001C80.3877 119.291 80.9851 119.781 81.4054 120.41C81.8257 121.039 82.05 121.778 82.05 122.535" stroke="black" stroke-width="0.86" stroke-linejoin="round"/>
<path d="M225.555 133.77C230.445 132.585 250.47 122.82 247.65 118.065C245.205 114.39 231.63 99.195 236.31 77.565" stroke="black" stroke-width="0.86" stroke-linecap="round" stroke-linejoin="round"/>
<path d="M160.98 68.64C164.702 77.61 169.454 86.1171 175.14 93.99C175.14 93.99 190.86 80.67 195.84 77.82C199.68 75.63 208.005 75.375 208.005 75.375C208.47 77.67 212.595 91.515 215.235 92.31C217.455 92.97 225.3 78.33 226.23 74.46C226.23 74.46 237.39 76.665 240.99 79.62C244.155 82.215 258.57 102.63 260.82 107.25C262.59 110.925 264.525 114.165 264.27 118.275C263.445 131.01 240.36 142.065 226.875 141.18" stroke="black" stroke-width="0.86" stroke-linecap="round" stroke-linejoin="round"/>
<path d="M162.69 73.665L155.67 74.655" stroke="black" stroke-width="0.86" stroke-linecap="round" stroke-linejoin="round"/>
<path d="M226.965 254.475H244.035" stroke="black" stroke-width="0.86" stroke-linecap="round" stroke-linejoin="round"/>
<path d="M164.22 222.3H179.13" stroke="black" stroke-width="0.86" stroke-linecap="round" stroke-linejoin="round"/>
<path d="M209.745 277.035C211.245 271.23 217.56 275.985 227.055 274.815C232.47 274.155 237.915 270.525 243.915 270.93" stroke="black" stroke-width="0.86" stroke-miterlimit="10"/>
<path d="M147 247.14C148.38 241.35 154.5 246.105 163.605 244.935C168.795 244.26 174.015 240.645 179.775 241.035" stroke="black" stroke-width="0.86" stroke-miterlimit="10"/>
<path d="M221.01 142.95V144.36C221.01 145.156 220.694 145.919 220.131 146.481C219.569 147.044 218.806 147.36 218.01 147.36H213.21C212.414 147.36 211.651 147.044 211.089 146.481C210.526 145.919 210.21 145.156 210.21 144.36V142.215" stroke="black" stroke-width="0.86" stroke-miterlimit="10" stroke-linecap="round"/>
<path d="M210.225 132V120.45C210.225 119.654 210.541 118.891 211.104 118.329C211.666 117.766 212.429 117.45 213.225 117.45H218.025C218.821 117.45 219.584 117.766 220.146 118.329C220.709 118.891 221.025 119.654 221.025 120.45V132.45" stroke="black" stroke-width="0.86" stroke-miterlimit="10" stroke-linecap="round"/>
<path d="M219.96 117.375C220.072 117.375 220.182 117.35 220.283 117.302C220.384 117.255 220.473 117.186 220.545 117.1C220.616 117.014 220.668 116.914 220.697 116.806C220.725 116.698 220.73 116.585 220.71 116.475C220.494 115.281 219.866 114.202 218.935 113.424C218.005 112.646 216.83 112.22 215.617 112.22C214.405 112.22 213.23 112.646 212.299 113.424C211.369 114.202 210.741 115.281 210.525 116.475C210.505 116.585 210.51 116.698 210.538 116.806C210.567 116.914 210.619 117.014 210.69 117.1C210.762 117.186 210.851 117.255 210.952 117.302C211.053 117.35 211.163 117.375 211.275 117.375H219.96Z" stroke="black" stroke-width="0.86" stroke-miterlimit="10" stroke-linecap="round"/>
<path d="M154.26 63.795C154.273 62.7936 154.233 61.7922 154.14 60.795C154.051 60.0679 153.849 59.3592 153.54 58.695C153.315 58.26 152.745 57.675 152.04 57.975C151.035 58.44 151.125 59.79 151.155 60.54C151.155 62.265 151.155 67.245 153.33 70.14" stroke="white" stroke-width="0.62" stroke-linecap="round" stroke-linejoin="round"/>
<path d="M161.745 68.46C162.99 63.15 163.05 52.125 161.19 50.46C160.545 49.905 159.36 49.845 159.465 50.7" stroke="white" stroke-width="0.62" stroke-linecap="square" stroke-linejoin="round"/>
<path d="M209.79 135.87C209.593 135.79 209.378 135.764 209.167 135.795C208.956 135.825 208.757 135.911 208.591 136.044C208.424 136.177 208.296 136.352 208.22 136.551C208.143 136.749 208.121 136.965 208.155 137.175C208.29 139.29 212.415 141.105 217.155 140.505" stroke="white" stroke-width="0.62" stroke-miterlimit="10" stroke-linecap="round"/>
<path d="M210 139.5C208.5 138.765 208.065 139.815 208.215 140.415C208.74 142.38 213.78 145.815 226.125 141.915C226.125 141.915 227.625 142.23 227.94 142.245" stroke="white" stroke-width="0.62" stroke-miterlimit="10" stroke-linecap="square"/>
<path d="M220.65 132.63C219.57 134.565 216.27 134.34 214.005 134.01C212.643 133.551 211.366 132.872 210.225 132C210.071 131.901 209.897 131.837 209.715 131.814C209.534 131.79 209.349 131.808 209.175 131.865C208.851 131.956 208.566 132.153 208.367 132.425C208.169 132.697 208.068 133.028 208.08 133.365C208.2 135.66 212.58 138.015 217.29 137.295" stroke="white" stroke-width="0.62" stroke-miterlimit="10" stroke-linecap="round"/>
<path d="M202.38 41.37C202.052 42.9538 201.891 44.5676 201.9 46.185C201.9 51.525 207.9 63.03 210.03 63.87C213.21 65.13 217.725 62.145 219.165 59.19" stroke="white" stroke-width="0.62" stroke-miterlimit="10" stroke-linecap="round"/>
<path d="M210.975 63.99C210.075 67.335 207.975 74.04 207.975 74.85" stroke="white" stroke-width="0.86" stroke-miterlimit="10"/>
<path d="M223.02 41.115C223.02 41.115 217.155 40.41 212.94 40.41C208.995 40.41 203.1 41.115 203.1 41.115C202.822 41.1191 202.546 41.0671 202.288 40.9621C202.03 40.857 201.797 40.7011 201.601 40.5037C201.405 40.3063 201.25 40.0714 201.147 39.813C201.044 39.5547 200.994 39.2781 201 39V37.35C201 36.801 201.218 36.2745 201.606 35.8863C201.994 35.4981 202.521 35.28 203.07 35.28C203.07 35.28 209.67 34.635 212.94 34.635C216.51 34.635 222.99 35.28 222.99 35.28C223.539 35.28 224.066 35.4981 224.454 35.8863C224.842 36.2745 225.06 36.801 225.06 37.35V39C225.066 39.2731 225.018 39.5447 224.918 39.7991C224.819 40.0535 224.67 40.2857 224.48 40.4823C224.291 40.6789 224.064 40.836 223.813 40.9446C223.563 41.0532 223.293 41.1111 223.02 41.115Z" stroke="black" stroke-width="0.86" stroke-linecap="round" stroke-linejoin="round"/>
<path d="M205.5 75.765C205.5 75.765 210.36 94.86 215.07 94.815C220.23 94.815 225.33 83.46 228.345 75.42" stroke="black" stroke-width="0.86" stroke-miterlimit="10" stroke-linecap="round"/>
<path d="M233.79 76.5C232.271 83.0667 232.265 89.8928 233.772 96.4621C235.279 103.032 238.26 109.172 242.49 114.42" stroke="black" stroke-width="0.86" stroke-miterlimit="10" stroke-linecap="round"/>
<path d="M201 76.305C201 76.305 203.61 97.965 193.08 105.525" stroke="black" stroke-width="0.86" stroke-miterlimit="10" stroke-linecap="round"/>
<path d="M232.77 158.76V216.45" stroke="black" stroke-width="0.86" stroke-miterlimit="10" stroke-linecap="round"/>
<path d="M236.415 158.76V216.45" stroke="black" stroke-width="0.86" stroke-miterlimit="10" stroke-linecap="round"/>
<path d="M55.4999 138.87C61.1142 140.811 67.0656 141.587 72.9899 141.15C74.8499 141.03 74.3999 133.29 74.3999 133.29C69.5099 132.105 49.5299 122.79 52.3499 118.065C57.6614 110.898 63.6928 104.293 70.3499 98.355" stroke="white" stroke-width="0.86" stroke-linejoin="round"/>
<path d="M87.825 61.11C84.825 61.005 83.58 56.43 84.33 57.045C85.4157 57.6223 86.6212 57.9378 87.8505 57.9665C89.0797 57.9951 90.2987 57.7361 91.41 57.21C92.235 56.76 90.255 61.215 87.825 61.11Z" stroke="black" stroke-width="0.86" stroke-miterlimit="10"/>
<path d="M136.785 73.23L123.96 79.41L129.24 66.39L118.365 60.765L133.095 53.97L120.525 42.18L137.19 45L131.49 27L145.5 39.66L150.435 21.435L155.37 39.66L166.05 32.415L163.68 45L182.31 41.91L167.775 53.97L178.32 60.06L166.38 63.75L176.91 79.41L163.65 72.99" stroke="black" stroke-width="0.86" stroke-linecap="round" stroke-linejoin="round"/>
<path d="M158.205 82.68L157.095 85.53L150.09 76.695L141.105 89.67L141.165 85.53" stroke="black" stroke-width="0.86" stroke-linecap="round" stroke-linejoin="round"/>
<path d="M216.06 109.62H215.025C214.536 109.62 214.14 110.013 214.14 110.498C214.14 110.982 214.536 111.375 215.025 111.375H216.06C216.549 111.375 216.945 110.982 216.945 110.498C216.945 110.013 216.549 109.62 216.06 109.62Z" fill="black"/>
<path d="M214.68 110.895V112.095C214.68 112.17 214.74 112.23 214.815 112.23H216.3C216.374 112.23 216.435 112.17 216.435 112.095V110.895C216.435 110.82 216.374 110.76 216.3 110.76H214.815C214.74 110.76 214.68 110.82 214.68 110.895Z" fill="black"/>
</svg>
