<svg width="75" height="20" viewBox="0 0 75 20" fill="none" xmlns="http://www.w3.org/2000/svg">
<path d="M29.1703 15.156C28.4683 15.156 27.814 15.0433 27.2073 14.818C26.6093 14.584 26.0893 14.2547 25.6473 13.83C25.2053 13.4053 24.8587 12.907 24.6073 12.335C24.3647 11.763 24.2433 11.1347 24.2433 10.45C24.2433 9.76533 24.3647 9.137 24.6073 8.565C24.8587 7.993 25.2053 7.49467 25.6473 7.07C26.098 6.64533 26.6223 6.32033 27.2203 6.095C27.8183 5.861 28.4727 5.744 29.1833 5.744C29.972 5.744 30.6827 5.88267 31.3153 6.16C31.9567 6.42867 32.494 6.82733 32.9273 7.356L31.5753 8.604C31.2633 8.24867 30.9167 7.98433 30.5353 7.811C30.154 7.629 29.738 7.538 29.2873 7.538C28.8627 7.538 28.4727 7.60733 28.1173 7.746C27.762 7.88467 27.4543 8.084 27.1943 8.344C26.9343 8.604 26.7307 8.91167 26.5833 9.267C26.4447 9.62233 26.3753 10.0167 26.3753 10.45C26.3753 10.8833 26.4447 11.2777 26.5833 11.633C26.7307 11.9883 26.9343 12.296 27.1943 12.556C27.4543 12.816 27.762 13.0153 28.1173 13.154C28.4727 13.2927 28.8627 13.362 29.2873 13.362C29.738 13.362 30.154 13.2753 30.5353 13.102C30.9167 12.92 31.2633 12.647 31.5753 12.283L32.9273 13.531C32.494 14.0597 31.9567 14.4627 31.3153 14.74C30.6827 15.0173 29.9677 15.156 29.1703 15.156ZM36.9925 15.104C36.4118 15.104 35.8918 14.9913 35.4325 14.766C34.9818 14.5407 34.6308 14.1983 34.3795 13.739C34.1281 13.271 34.0025 12.6773 34.0025 11.958V8.006H36.0305V11.659C36.0305 12.2397 36.1518 12.6687 36.3945 12.946C36.6458 13.2147 36.9968 13.349 37.4475 13.349C37.7595 13.349 38.0368 13.284 38.2795 13.154C38.5221 13.0153 38.7128 12.8073 38.8515 12.53C38.9901 12.244 39.0595 11.8887 39.0595 11.464V8.006H41.0875V15H39.1635V13.076L39.5145 13.635C39.2805 14.1203 38.9338 14.4887 38.4745 14.74C38.0238 14.9827 37.5298 15.104 36.9925 15.104ZM46.3463 15.104C45.5923 15.104 44.9206 14.9523 44.3313 14.649C43.7419 14.337 43.2783 13.908 42.9403 13.362C42.6109 12.816 42.4463 12.1963 42.4463 11.503C42.4463 10.801 42.6109 10.1813 42.9403 9.644C43.2783 9.098 43.7419 8.67333 44.3313 8.37C44.9206 8.058 45.5923 7.902 46.3463 7.902C47.0829 7.902 47.7243 8.058 48.2703 8.37C48.8163 8.67333 49.2193 9.111 49.4793 9.683L47.9063 10.528C47.7243 10.1987 47.4946 9.956 47.2173 9.8C46.9486 9.644 46.6539 9.566 46.3333 9.566C45.9866 9.566 45.6746 9.644 45.3973 9.8C45.1199 9.956 44.8989 10.177 44.7343 10.463C44.5783 10.749 44.5003 11.0957 44.5003 11.503C44.5003 11.9103 44.5783 12.257 44.7343 12.543C44.8989 12.829 45.1199 13.05 45.3973 13.206C45.6746 13.362 45.9866 13.44 46.3333 13.44C46.6539 13.44 46.9486 13.3663 47.2173 13.219C47.4946 13.063 47.7243 12.816 47.9063 12.478L49.4793 13.336C49.2193 13.8993 48.8163 14.337 48.2703 14.649C47.7243 14.9523 47.0829 15.104 46.3463 15.104ZM52.2859 13.57L52.3379 11.1L55.6009 8.006H58.0189L54.8859 11.191L53.8329 12.049L52.2859 13.57ZM50.6089 15V5.354H52.6369V15H50.6089ZM55.8219 15L53.4559 12.062L54.7299 10.489L58.2789 15H55.8219ZM62.2269 15.104C61.4816 15.104 60.8186 14.948 60.2379 14.636C59.6659 14.324 59.2109 13.8993 58.8729 13.362C58.5436 12.816 58.3789 12.1963 58.3789 11.503C58.3789 10.801 58.5436 10.1813 58.8729 9.644C59.2109 9.098 59.6659 8.67333 60.2379 8.37C60.8186 8.058 61.4816 7.902 62.2269 7.902C62.9636 7.902 63.6222 8.058 64.2029 8.37C64.7836 8.67333 65.2386 9.09367 65.5679 9.631C65.8972 10.1683 66.0619 10.7923 66.0619 11.503C66.0619 12.1963 65.8972 12.816 65.5679 13.362C65.2386 13.8993 64.7836 14.324 64.2029 14.636C63.6222 14.948 62.9636 15.104 62.2269 15.104ZM62.2269 13.44C62.5649 13.44 62.8682 13.362 63.1369 13.206C63.4056 13.05 63.6179 12.829 63.7739 12.543C63.9299 12.2483 64.0079 11.9017 64.0079 11.503C64.0079 11.0957 63.9299 10.749 63.7739 10.463C63.6179 10.177 63.4056 9.956 63.1369 9.8C62.8682 9.644 62.5649 9.566 62.2269 9.566C61.8889 9.566 61.5856 9.644 61.3169 9.8C61.0482 9.956 60.8316 10.177 60.6669 10.463C60.5109 10.749 60.4329 11.0957 60.4329 11.503C60.4329 11.9017 60.5109 12.2483 60.6669 12.543C60.8316 12.829 61.0482 13.05 61.3169 13.206C61.5856 13.362 61.8889 13.44 62.2269 13.44ZM70.7454 15.104C70.0001 15.104 69.3371 14.948 68.7564 14.636C68.1844 14.324 67.7294 13.8993 67.3914 13.362C67.0621 12.816 66.8974 12.1963 66.8974 11.503C66.8974 10.801 67.0621 10.1813 67.3914 9.644C67.7294 9.098 68.1844 8.67333 68.7564 8.37C69.3371 8.058 70.0001 7.902 70.7454 7.902C71.4821 7.902 72.1408 8.058 72.7214 8.37C73.3021 8.67333 73.7571 9.09367 74.0864 9.631C74.4158 10.1683 74.5804 10.7923 74.5804 11.503C74.5804 12.1963 74.4158 12.816 74.0864 13.362C73.7571 13.8993 73.3021 14.324 72.7214 14.636C72.1408 14.948 71.4821 15.104 70.7454 15.104ZM70.7454 13.44C71.0834 13.44 71.3868 13.362 71.6554 13.206C71.9241 13.05 72.1364 12.829 72.2924 12.543C72.4484 12.2483 72.5264 11.9017 72.5264 11.503C72.5264 11.0957 72.4484 10.749 72.2924 10.463C72.1364 10.177 71.9241 9.956 71.6554 9.8C71.3868 9.644 71.0834 9.566 70.7454 9.566C70.4074 9.566 70.1041 9.644 69.8354 9.8C69.5668 9.956 69.3501 10.177 69.1854 10.463C69.0294 10.749 68.9514 11.0957 68.9514 11.503C68.9514 11.9017 69.0294 12.2483 69.1854 12.543C69.3501 12.829 69.5668 13.05 69.8354 13.206C70.1041 13.362 70.4074 13.44 70.7454 13.44Z" fill="#586CF5"/>
<g clip-path="url(#clip0_842_52)">
<path d="M14.2305 1.83984C13.4922 1.96484 12.7344 2.45312 12.3008 3.08984C11.9766 3.56641 11.8477 3.98047 11.793 4.72266C11.7656 5.08984 11.7266 5.29688 11.6367 5.5625C11.5234 5.89844 11.2422 6.41406 11.1133 6.52344C11.0195 6.60156 11.043 6.65625 11.2305 6.75391C11.4766 6.88281 11.8828 7.26562 12.0938 7.56641C12.5703 8.23047 12.7383 9.19141 12.5195 10.0195C12.2383 11.0703 11.3477 11.9609 10.293 12.2422C9.59375 12.4297 8.37891 12.3281 7.38672 11.9961C6.64063 11.7461 5.76563 11.25 5.15625 10.7266C4.98438 10.5781 4.89844 10.5273 4.89063 10.5664C4.88282 10.5977 4.92969 10.8203 4.9961 11.0625C5.47657 12.8594 6.64844 14.3164 8.28125 15.1367C8.88282 15.4375 9.76563 15.707 10.3516 15.7656L10.625 15.793V16.4102V17.0312H9.6875C8.82032 17.0312 8.73438 17.0391 8.59375 17.1094C8.41797 17.1992 8.28125 17.4219 8.28125 17.6172C8.28125 17.8125 8.41797 18.0352 8.59375 18.125C8.73828 18.1992 8.82032 18.2031 10.0391 18.2031C11.2383 18.2031 11.3438 18.1992 11.4805 18.1289C11.5586 18.0859 11.6523 18.0234 11.6836 17.9844C11.793 17.8477 12.1133 17.7344 12.3828 17.7344C12.6523 17.7344 12.9727 17.8477 13.082 17.9844C13.168 18.0859 13.418 18.2031 13.5547 18.2031C13.8516 18.2031 14.1406 17.9141 14.1406 17.6172C14.1406 17.2422 13.5703 16.7734 12.9219 16.6211C12.6484 16.5586 12.168 16.5469 11.9453 16.5977L11.7969 16.6328V16.2344V15.832L12.1211 15.7852C15.0273 15.3477 17.2813 12.9258 17.6133 9.875C17.668 9.375 17.6719 5.20703 17.6133 4.76562C17.4453 3.39844 16.8008 2.41797 15.8008 2.00391C15.3672 1.82031 14.7344 1.75781 14.2305 1.83984ZM15 4.21875C15.1758 4.30859 15.3125 4.53125 15.3125 4.72656C15.3125 5.02344 15.0234 5.3125 14.7227 5.3125C14.4375 5.3125 14.1406 5.01562 14.1406 4.72656C14.1406 4.53906 14.2773 4.30859 14.4453 4.22266C14.6328 4.12109 14.8086 4.12109 15 4.21875Z" fill="#586CF5"/>
<path d="M18.5703 1.98443L17.8594 2.16802L18.0664 2.50787C18.3867 3.03521 18.5742 3.54302 18.7305 4.31255C18.7539 4.41802 18.7969 4.36724 19.3008 3.60943C19.9297 2.67193 20 2.54693 20 2.38287C20 2.08209 19.707 1.79302 19.4062 1.80084C19.3359 1.80084 18.957 1.88677 18.5703 1.98443Z" fill="#586CF5"/>
<path d="M0.304687 3.63676C0.132812 3.72661 0 3.95317 0 4.1563C0 4.3438 0.300781 4.91411 0.597656 5.29301C0.796875 5.54692 1.30469 5.98833 3.53125 7.8438C6.07031 9.96098 6.58203 10.3633 7.05078 10.5977C7.89453 11.0157 9.18359 11.2657 9.85156 11.1368C10.9453 10.918 11.6602 9.82036 11.3828 8.76958C11.3047 8.46489 11.1641 8.23052 10.918 7.98833C10.668 7.74614 10.3516 7.58598 9.94922 7.50786C9.65234 7.44927 9.62109 7.44927 9.14453 7.53911C8.51172 7.6563 8.12891 7.67583 7.72656 7.62114C7.34375 7.56255 6.77734 7.38286 6.50391 7.23052C6.39844 7.16802 5.16797 6.38286 3.76953 5.48833C2.375 4.58989 1.11719 3.7852 0.976562 3.70317C0.6875 3.5352 0.527344 3.51567 0.304687 3.63676Z" fill="#586CF5"/>
</g>
<defs>
<clipPath id="clip0_842_52">
<rect width="20" height="20" fill="white"/>
</clipPath>
</defs>
</svg>
