<svg width="37" height="36" viewBox="0 0 37 36" fill="none" xmlns="http://www.w3.org/2000/svg">
<g clip-path="url(#clip0_823_34)">
<path d="M5.13631 11.661C4.4988 11.661 3.9579 11.8773 3.51327 12.3099C3.06863 12.7425 2.84625 13.2617 2.84625 13.8676V23.1704C2.84625 23.7914 3.06857 24.3173 3.51327 24.7499C3.9579 25.1826 4.4988 25.3989 5.13631 25.3989C5.77335 25.3989 6.31097 25.1826 6.74871 24.7499C7.18558 24.3173 7.40462 23.7914 7.40462 23.1704V13.8676C7.40462 13.2616 7.1823 12.7425 6.7376 12.3099C6.29291 11.8773 5.75903 11.661 5.13631 11.661Z" fill="white"/>
<path d="M23.5476 3.30981L25.1263 0.476147C25.23 0.288546 25.1931 0.144689 25.0154 0.0435333C24.8225 -0.0436924 24.6744 0.000506295 24.5708 0.173005L22.97 3.02932C21.5613 2.42336 20.0715 2.11983 18.5004 2.11983C16.929 2.11983 15.4391 2.42343 14.031 3.02932L12.4301 0.173005C12.3261 0.000506295 12.1779 -0.0433018 11.9855 0.0435333C11.8074 0.145145 11.7705 0.288546 11.8745 0.476147L13.4534 3.30981C11.8525 4.10415 10.5774 5.21042 9.62877 6.63103C8.6801 8.05242 8.20557 9.60568 8.20557 11.2936H28.773C28.773 9.60607 28.2984 8.05274 27.3498 6.63103C26.401 5.21042 25.1334 4.10415 23.5476 3.30981ZM14.42 7.43142C14.2492 7.59793 14.0453 7.68079 13.8083 7.68079C13.5708 7.68079 13.371 7.59793 13.208 7.43142C13.0451 7.26569 12.9636 7.06807 12.9636 6.83666C12.9636 6.60603 13.0451 6.40802 13.208 6.2419C13.371 6.07617 13.5712 5.9933 13.8083 5.9933C14.0453 5.9933 14.2492 6.07617 14.42 6.2419C14.5903 6.40841 14.6759 6.60603 14.6759 6.83666C14.6754 7.06768 14.5899 7.26569 14.42 7.43142ZM23.792 7.43142C23.6287 7.59793 23.4284 7.68079 23.1918 7.68079C22.9542 7.68079 22.7504 7.59793 22.58 7.43142C22.4093 7.26569 22.3242 7.06807 22.3242 6.83666C22.3242 6.60603 22.4093 6.40802 22.58 6.2419C22.7504 6.07617 22.9542 5.9933 23.1918 5.9933C23.4288 5.9933 23.6286 6.07617 23.792 6.2419C23.9551 6.40841 24.0364 6.60603 24.0364 6.83666C24.0364 7.06768 23.955 7.26569 23.792 7.43142Z" fill="white"/>
<path d="M8.29388 26.4804C8.29388 27.1445 8.53092 27.7067 9.00505 28.168C9.47959 28.6293 10.0574 28.8599 10.7394 28.8599H12.3849L12.4075 33.7715C12.4075 34.3917 12.6298 34.9184 13.0744 35.3511C13.5191 35.7838 14.053 36.0001 14.6753 36.0001C15.3124 36.0001 15.8537 35.7838 16.2984 35.3511C16.7431 34.9184 16.9654 34.3918 16.9654 33.7715V28.8604H20.0338V33.7715C20.0338 34.3917 20.256 34.9184 20.7007 35.3511C21.1454 35.7838 21.6862 36.0001 22.3238 36.0001C22.9609 36.0001 23.5021 35.7838 23.9468 35.3511C24.3915 34.9184 24.6137 34.3918 24.6137 33.7715V28.8604H26.2815C26.9484 28.8604 27.5188 28.6297 27.9938 28.1684C28.4678 27.7071 28.705 27.1449 28.705 26.4809V12.0717H8.29388V26.4804Z" fill="white"/>
<path d="M31.8637 11.661C31.2409 11.661 30.7075 11.8741 30.2628 12.2992C29.8181 12.725 29.5958 13.2481 29.5958 13.8676V23.1704C29.5958 23.7914 29.8181 24.3173 30.2628 24.7499C30.7075 25.1826 31.2413 25.3989 31.8637 25.3989C32.5008 25.3989 33.0421 25.1826 33.4868 24.7499C33.9315 24.3173 34.1537 23.7914 34.1537 23.1704V13.8676C34.1537 13.2481 33.9315 12.725 33.4868 12.2992C33.0421 11.8741 32.5008 11.661 31.8637 11.661Z" fill="white"/>
</g>
<defs>
<clipPath id="clip0_823_34">
<rect width="37" height="36" fill="white"/>
</clipPath>
</defs>
</svg>
