<svg width="40" height="40" viewBox="0 0 40 40" fill="none" xmlns="http://www.w3.org/2000/svg">
<g clip-path="url(#clip0_823_34)">
<path d="M5.55276 12.9567C4.86356 12.9567 4.2788 13.197 3.79812 13.6777C3.31744 14.1584 3.07703 14.7352 3.07703 15.4084V25.7448C3.07703 26.4349 3.31737 27.0192 3.79812 27.4999C4.2788 27.9806 4.86356 28.221 5.55276 28.221C6.24145 28.221 6.82267 27.9807 7.2959 27.4999C7.76819 27.0192 8.00499 26.4349 8.00499 25.7448V15.4084C8.00499 14.7351 7.76465 14.1584 7.28389 13.6777C6.80314 13.197 6.22598 12.9567 5.55276 12.9567Z" fill="white"/>
<path d="M25.4569 3.67757L27.1636 0.529052C27.2757 0.320607 27.2358 0.160766 27.0437 0.0483703C26.8352 -0.0485471 26.675 0.00056255 26.563 0.192228L24.8324 3.36591C23.3096 2.69263 21.6989 2.35537 20.0005 2.35537C18.3017 2.35537 16.6909 2.6927 15.1687 3.36591L13.438 0.192228C13.3255 0.00056255 13.1653 -0.0481131 12.9573 0.0483703C12.7647 0.161272 12.7249 0.320607 12.8374 0.529052L14.5442 3.67757C12.8135 4.56017 11.4351 5.78936 10.4095 7.36781C9.38392 8.94713 8.87091 10.673 8.87091 12.5484H31.1059C31.1059 10.6734 30.5929 8.94749 29.5673 7.36781C28.5417 5.78936 27.1712 4.56017 25.4569 3.67757ZM15.5892 8.25713C15.4046 8.44214 15.1841 8.53422 14.9279 8.53422C14.6711 8.53422 14.4552 8.44214 14.279 8.25713C14.1028 8.07299 14.0147 7.85341 14.0147 7.59629C14.0147 7.34003 14.1028 7.12002 14.279 6.93544C14.4552 6.7513 14.6716 6.65922 14.9279 6.65922C15.1841 6.65922 15.4046 6.7513 15.5892 6.93544C15.7733 7.12045 15.8658 7.34003 15.8658 7.59629C15.8653 7.85297 15.7729 8.07299 15.5892 8.25713ZM25.7211 8.25713C25.5445 8.44214 25.3281 8.53422 25.0723 8.53422C24.8154 8.53422 24.595 8.44214 24.4108 8.25713C24.2263 8.07299 24.1343 7.85341 24.1343 7.59629C24.1343 7.34003 24.2263 7.12002 24.4108 6.93544C24.595 6.7513 24.8154 6.65922 25.0723 6.65922C25.3285 6.65922 25.5445 6.7513 25.7211 6.93544C25.8974 7.12045 25.9854 7.34003 25.9854 7.59629C25.9854 7.85297 25.8974 8.07299 25.7211 8.25713Z" fill="white"/>
<path d="M8.96637 29.4227C8.96637 30.1606 9.22262 30.7852 9.7352 31.2978C10.2482 31.8104 10.8728 32.0666 11.6102 32.0666H13.3891L13.4135 37.5239C13.4135 38.2131 13.6538 38.7982 14.1345 39.279C14.6152 39.7598 15.1924 40.0001 15.8652 40.0001C16.554 40.0001 17.1391 39.7598 17.6199 39.279C18.1006 38.7982 18.341 38.2131 18.341 37.5239V32.0671H21.6581V37.5239C21.6581 38.2131 21.8984 38.7982 22.3792 39.279C22.8599 39.7598 23.4445 40.0001 24.1338 40.0001C24.8226 40.0001 25.4077 39.7598 25.8884 39.279C26.3692 38.7982 26.6095 38.2131 26.6095 37.5239V32.0671H28.4124C29.1334 32.0671 29.75 31.8108 30.2635 31.2982C30.776 30.7856 31.0324 30.161 31.0324 29.4232V13.413H8.96637V29.4227Z" fill="white"/>
<path d="M34.4473 12.9567C33.774 12.9567 33.1973 13.1935 32.7165 13.6658C32.2358 14.1389 31.9955 14.7201 31.9955 15.4084V25.7448C31.9955 26.4349 32.2358 27.0192 32.7165 27.4999C33.1973 27.9807 33.7744 28.221 34.4473 28.221C35.136 28.221 35.7212 27.9807 36.2019 27.4999C36.6827 27.0192 36.9229 26.4349 36.9229 25.7448V15.4084C36.9229 14.7201 36.6827 14.1389 36.2019 13.6658C35.7212 13.1935 35.136 12.9567 34.4473 12.9567Z" fill="white"/>
</g>
<defs>
<clipPath id="clip0_823_34">
<rect width="40" height="40" fill="white"/>
</clipPath>
</defs>
</svg>
