<svg width="33" height="44" viewBox="0 0 33 44" fill="none" xmlns="http://www.w3.org/2000/svg">
<path d="M27.3883 23.0914C27.3711 19.9375 28.7977 17.557 31.6852 15.8039C30.0695 13.4922 27.6289 12.2203 24.4062 11.9711C21.3555 11.7305 18.0211 13.75 16.8008 13.75C15.5117 13.75 12.5555 12.057 10.2352 12.057C5.43984 12.1344 0.34375 15.8813 0.34375 23.5039C0.34375 25.7555 0.75625 28.0815 1.58125 30.482C2.68125 33.6359 6.65156 41.3703 10.7937 41.2414C12.9594 41.1898 14.4891 39.7031 17.3078 39.7031C20.0406 39.7031 21.4586 41.2414 23.8734 41.2414C28.05 41.1812 31.6422 34.1516 32.6906 30.9891C27.0875 28.3508 27.3883 23.2547 27.3883 23.0914ZM22.5242 8.98047C24.8703 6.19609 24.6555 3.66094 24.5867 2.75C22.5156 2.87031 20.118 4.15938 18.7516 5.74922C17.2477 7.45078 16.3625 9.55625 16.5516 11.9281C18.7945 12.1 20.8398 10.9484 22.5242 8.98047Z" fill="white"/>
</svg>
