<svg width="36" height="48" viewBox="0 0 36 48" fill="none" xmlns="http://www.w3.org/2000/svg">
<path d="M29.8781 25.1906C29.8594 21.75 31.4156 19.1531 34.5656 17.2406C32.8031 14.7187 30.1406 13.3312 26.625 13.0594C23.2969 12.7969 19.6594 15 18.3281 15C16.9219 15 13.6969 13.1531 11.1656 13.1531C5.93437 13.2375 0.375 17.325 0.375 25.6406C0.375 28.0969 0.825 30.6344 1.725 33.2531C2.925 36.6937 7.25625 45.1312 11.775 44.9906C14.1375 44.9344 15.8062 43.3125 18.8812 43.3125C21.8625 43.3125 23.4094 44.9906 26.0437 44.9906C30.6 44.925 34.5187 37.2562 35.6625 33.8062C29.55 30.9281 29.8781 25.3687 29.8781 25.1906ZM24.5719 9.79687C27.1313 6.75937 26.8969 3.99375 26.8219 3C24.5625 3.13125 21.9469 4.5375 20.4562 6.27187C18.8156 8.12812 17.85 10.425 18.0563 13.0125C20.5031 13.2 22.7344 11.9437 24.5719 9.79687Z" fill="white"/>
</svg>
