<svg width="107" height="107" viewBox="0 0 107 107" fill="none" xmlns="http://www.w3.org/2000/svg">
<g clip-path="url(#clip0_823_23)">
<path d="M76.133 9.84317C72.1832 10.5119 68.1289 13.1242 65.8092 16.5307C64.0746 19.0803 63.3849 21.2955 63.0924 25.2662C62.9461 27.2307 62.7371 28.3383 62.2564 29.7594C61.6504 31.5566 60.1457 34.3152 59.456 34.9004C58.9545 35.3184 59.0799 35.6109 60.083 36.1334C61.3996 36.823 63.573 38.8711 64.7015 40.4803C67.2512 44.033 68.1498 49.174 66.9795 53.6045C65.4748 59.2262 60.7099 63.991 55.0674 65.4957C51.3265 66.4988 44.8271 65.9555 39.5189 64.1791C35.5273 62.8416 30.8461 60.1875 27.5859 57.3871C26.6664 56.593 26.2066 56.3213 26.1648 56.5303C26.123 56.6975 26.3738 57.8887 26.7291 59.1844C29.2996 68.7977 35.5691 76.5928 44.3047 80.9814C47.523 82.5906 52.2461 84.0326 55.3808 84.3461L56.8437 84.4924V87.7943V91.1172H51.8281C47.1887 91.1172 46.7289 91.159 45.9765 91.5352C45.0361 92.0158 44.3047 93.207 44.3047 94.252C44.3047 95.2969 45.0361 96.4881 45.9765 96.9688C46.7498 97.3658 47.1887 97.3867 53.709 97.3867C60.1248 97.3867 60.689 97.3658 61.4205 96.9896C61.8385 96.7598 62.34 96.4254 62.5072 96.2164C63.0924 95.485 64.806 94.8789 66.248 94.8789C67.69 94.8789 69.4037 95.485 69.9889 96.2164C70.4486 96.7598 71.7861 97.3867 72.5176 97.3867C74.1058 97.3867 75.6523 95.8402 75.6523 94.252C75.6523 92.2457 72.6012 89.7379 69.132 88.9229C67.6691 88.5885 65.0986 88.5258 63.9074 88.7975L63.1133 88.9855V86.8539V84.7014L64.8478 84.4506C80.3963 82.11 92.4547 69.1529 94.231 52.8313C94.5236 50.1563 94.5445 27.8576 94.231 25.4961C93.3324 18.1816 89.8842 12.9361 84.5342 10.7209C82.2144 9.73867 78.8289 9.4043 76.133 9.84317ZM80.25 22.5703C81.1904 23.051 81.9219 24.2422 81.9219 25.2871C81.9219 26.8754 80.3754 28.4219 78.7662 28.4219C77.2406 28.4219 75.6523 26.8336 75.6523 25.2871C75.6523 24.284 76.3838 23.051 77.2824 22.5912C78.2855 22.0479 79.226 22.0479 80.25 22.5703Z" fill="white"/>
<path d="M99.3512 10.6164L95.5477 11.5986L96.6553 13.4168C98.369 16.2381 99.3721 18.9549 100.208 23.0719C100.333 23.6361 100.563 23.3644 103.259 19.3101C106.624 14.2945 107 13.6258 107 12.748C107 11.1389 105.433 9.59237 103.823 9.63417C103.447 9.63417 101.42 10.0939 99.3512 10.6164Z" fill="white"/>
<path d="M1.63008 19.4564C0.710547 19.9371 0 21.1492 0 22.2359C0 23.239 1.60918 26.2902 3.19746 28.3173C4.26328 29.6757 6.98008 32.0373 18.8922 41.964C32.4762 53.291 35.2139 55.4435 37.7217 56.6974C42.2357 58.9336 49.1322 60.2711 52.7059 59.5814C58.5574 58.4111 62.3818 52.5386 60.898 46.917C60.4801 45.2869 59.7277 44.033 58.4111 42.7373C57.0736 41.4416 55.3809 40.5847 53.2283 40.1668C51.64 39.8533 51.4728 39.8533 48.9232 40.3339C45.5377 40.9609 43.4896 41.0654 41.3371 40.7728C39.2891 40.4593 36.2588 39.498 34.7959 38.683C34.2316 38.3486 27.6486 34.148 20.167 29.3623C12.7062 24.5556 5.97695 20.2505 5.22461 19.8117C3.67812 18.913 2.82129 18.8086 1.63008 19.4564Z" fill="white"/>
</g>
<defs>
<clipPath id="clip0_823_23">
<rect width="107" height="107" fill="white"/>
</clipPath>
</defs>
</svg>
