<svg width="98" height="98" viewBox="0 0 98 98" fill="none" xmlns="http://www.w3.org/2000/svg">
<g clip-path="url(#clip0_823_23)">
<path d="M69.7293 9.01524C66.1117 9.62774 62.3984 12.0203 60.2738 15.1402C58.6852 17.4754 58.0535 19.5043 57.7856 23.141C57.6516 24.9402 57.4602 25.9547 57.0199 27.2563C56.4648 28.9023 55.0867 31.4289 54.4551 31.9648C53.9957 32.3477 54.1106 32.6156 55.0293 33.0941C56.2352 33.7258 58.2258 35.6016 59.2594 37.0754C61.5945 40.3293 62.4176 45.0379 61.3457 49.0957C59.9676 54.2445 55.6035 58.6086 50.4356 59.9867C47.0094 60.9055 41.0566 60.4078 36.1949 58.7809C32.5391 57.5559 28.2516 55.125 25.2656 52.5602C24.4234 51.8328 24.0023 51.584 23.9641 51.7754C23.9258 51.9285 24.1555 53.0195 24.4809 54.2063C26.8352 63.0109 32.5773 70.1504 40.5781 74.1699C43.5258 75.6438 47.8516 76.9645 50.7227 77.2516L52.0625 77.3855V80.4098V83.4531H47.4688C43.2195 83.4531 42.7984 83.4914 42.1094 83.8359C41.2481 84.2762 40.5781 85.3672 40.5781 86.3242C40.5781 87.2813 41.2481 88.3723 42.1094 88.8125C42.8176 89.1762 43.2195 89.1953 49.1914 89.1953C55.0676 89.1953 55.5844 89.1762 56.2543 88.8316C56.6371 88.6211 57.0965 88.3148 57.2496 88.1234C57.7856 87.4535 59.3551 86.8984 60.6758 86.8984C61.9965 86.8984 63.566 87.4535 64.102 88.1234C64.5231 88.6211 65.7481 89.1953 66.418 89.1953C67.8727 89.1953 69.2891 87.7789 69.2891 86.3242C69.2891 84.4867 66.4945 82.1898 63.3172 81.4434C61.9774 81.1371 59.6231 81.0797 58.532 81.3285L57.8047 81.5008V79.5484V77.577L59.3934 77.3473C73.634 75.2035 84.6781 63.3363 86.3051 48.3875C86.5731 45.9375 86.5922 25.5145 86.3051 23.3516C85.482 16.6523 82.3238 11.8481 77.4238 9.81915C75.2992 8.91954 72.1984 8.61329 69.7293 9.01524ZM73.5 20.6719C74.3613 21.1121 75.0313 22.2031 75.0313 23.1602C75.0313 24.6148 73.6149 26.0313 72.141 26.0313C70.7438 26.0313 69.2891 24.5766 69.2891 23.1602C69.2891 22.2414 69.959 21.1121 70.782 20.691C71.7008 20.1934 72.5621 20.1934 73.5 20.6719Z" fill="white"/>
<path d="M90.9945 9.72342L87.5109 10.623L88.5254 12.2883C90.0949 14.8722 91.0137 17.3605 91.7793 21.1312C91.8941 21.648 92.1047 21.3992 94.5738 17.6859C97.6555 13.0922 98 12.4797 98 11.6758C98 10.2019 96.5644 8.78553 95.0906 8.82381C94.7461 8.82381 92.8894 9.2449 90.9945 9.72342Z" fill="white"/>
<path d="M1.49297 17.8199C0.650781 18.2602 0 19.3703 0 20.3656C0 21.2844 1.47383 24.0789 2.92852 25.9355C3.90469 27.1797 6.39297 29.3426 17.3031 38.4344C29.7445 48.8086 32.252 50.7801 34.5488 51.9285C38.6832 53.9766 44.9996 55.2016 48.2727 54.5699C53.632 53.498 57.1348 48.1195 55.7758 42.9707C55.393 41.4777 54.7039 40.3293 53.498 39.1426C52.273 37.9559 50.7227 37.1711 48.7512 36.7883C47.2965 36.5012 47.1434 36.5012 44.8082 36.9414C41.7074 37.5156 39.8316 37.6113 37.8602 37.3434C35.9844 37.0562 33.209 36.1758 31.8691 35.4293C31.3523 35.123 25.323 31.2758 18.4707 26.8926C11.6375 22.4902 5.47422 18.5473 4.78516 18.1453C3.36875 17.3223 2.58398 17.2266 1.49297 17.8199Z" fill="white"/>
</g>
<defs>
<clipPath id="clip0_823_23">
<rect width="98" height="98" fill="white"/>
</clipPath>
</defs>
</svg>
