<svg width="42" height="33" viewBox="0 0 42 33" fill="none" xmlns="http://www.w3.org/2000/svg">
<path d="M34.4203 4.49878C34.409 4.47795 34.3903 4.4619 34.3678 4.45366C31.8677 3.3269 29.2295 2.52313 26.5191 2.06245C26.4947 2.05806 26.4696 2.06131 26.4472 2.07171C26.4248 2.08212 26.4063 2.09917 26.3944 2.12046C26.0349 2.76131 25.7085 3.41957 25.4166 4.09272C22.4933 3.65694 19.5198 3.65694 16.5966 4.09272C16.3034 3.4179 15.9726 2.75948 15.6056 2.12046C15.593 2.09981 15.5744 2.08329 15.5522 2.07297C15.53 2.06265 15.5052 2.05899 15.4809 2.06245C12.7658 2.52106 10.1229 3.32488 7.61906 4.45366C7.5971 4.4628 7.5787 4.47861 7.56656 4.49878C2.56594 11.84 1.19438 18.9943 1.86375 26.0648C1.86565 26.0826 1.87129 26.0998 1.88033 26.1153C1.88937 26.1309 1.9016 26.1444 1.91625 26.155C4.82911 28.2711 8.08666 29.886 11.55 30.931C11.5749 30.9386 11.6016 30.9383 11.6263 30.9302C11.651 30.9221 11.6725 30.9066 11.6878 30.8859C12.4309 29.8923 13.0894 28.8403 13.6566 27.7406C13.6641 27.7254 13.6684 27.7089 13.6692 27.6921C13.6699 27.6753 13.6671 27.6585 13.661 27.6427C13.6548 27.627 13.6454 27.6127 13.6334 27.6007C13.6213 27.5887 13.6069 27.5793 13.5909 27.573C12.5505 27.1814 11.5432 26.7094 10.5788 26.1615C10.5617 26.1512 10.5474 26.1371 10.5371 26.1203C10.5268 26.1035 10.5207 26.0845 10.5194 26.0649C10.5181 26.0453 10.5217 26.0257 10.5297 26.0078C10.5377 25.9898 10.5501 25.974 10.5656 25.9617C10.7691 25.8134 10.9725 25.6587 11.1628 25.504C11.1796 25.4896 11.2002 25.4801 11.2223 25.4767C11.2444 25.4732 11.267 25.476 11.2875 25.4847C17.6006 28.3142 24.4387 28.3142 30.6797 25.4847C30.6996 25.4752 30.7219 25.4713 30.7439 25.4736C30.766 25.4758 30.7869 25.4842 30.8044 25.4976C30.9947 25.6523 31.1981 25.8134 31.4016 25.9617C31.4171 25.974 31.4294 25.9898 31.4375 26.0078C31.4455 26.0257 31.449 26.0453 31.4478 26.0649C31.4465 26.0845 31.4404 26.1035 31.4301 26.1203C31.4198 26.1371 31.4055 26.1512 31.3884 26.1615C30.4264 26.7123 29.4188 27.1823 28.3762 27.5665C28.3603 27.5728 28.3459 27.5822 28.3338 27.5942C28.3218 27.6062 28.3124 27.6205 28.3062 27.6363C28.3001 27.652 28.2973 27.6688 28.298 27.6857C28.2988 27.7025 28.3031 27.719 28.3106 27.7341C28.8877 28.8284 29.5457 29.8797 30.2794 30.8794C30.2947 30.9002 30.3162 30.9157 30.3409 30.9237C30.3656 30.9318 30.3923 30.9321 30.4172 30.9246C33.8905 29.8843 37.1575 28.2691 40.0772 26.1486C40.0921 26.1382 40.1046 26.1248 40.1137 26.1092C40.1227 26.0936 40.1282 26.0762 40.1297 26.0583C40.9303 17.8921 38.7778 10.7958 34.4203 4.49878ZM14.6016 21.7593C12.6984 21.7593 11.1366 20.0449 11.1366 17.9437C11.1366 15.8425 12.6722 14.1216 14.6016 14.1216C16.5506 14.1216 18.0994 15.849 18.0666 17.9373C18.0666 20.0449 16.5309 21.7593 14.6016 21.7593ZM27.4247 21.7593C25.5216 21.7593 23.9597 20.0449 23.9597 17.9437C23.9597 15.8425 25.4887 14.1216 27.4247 14.1216C29.3737 14.1216 30.9225 15.849 30.8897 17.9373C30.8897 20.0449 29.3672 21.7593 27.4247 21.7593Z" fill="white"/>
</svg>
