<svg width="39" height="30" viewBox="0 0 39 30" fill="none" xmlns="http://www.w3.org/2000/svg">
<path d="M31.9617 4.08986C31.9512 4.07093 31.9339 4.05634 31.913 4.04885C29.5915 3.02452 27.1417 2.29382 24.6248 1.87502C24.6022 1.87103 24.5789 1.87398 24.5581 1.88344C24.5373 1.89291 24.5202 1.90841 24.5091 1.92775C24.1752 2.51035 23.8722 3.10876 23.6011 3.72072C20.8866 3.32455 18.1255 3.32455 15.4111 3.72072C15.1389 3.10725 14.8317 2.50868 14.4909 1.92775C14.4792 1.90898 14.4619 1.89397 14.4413 1.88459C14.4207 1.8752 14.3977 1.87188 14.3752 1.87502C11.8539 2.29194 9.39986 3.02269 7.07484 4.04885C7.05445 4.05716 7.03736 4.07153 7.02609 4.08986C2.38265 10.7637 1.10906 17.2676 1.73062 23.6953C1.73238 23.7115 1.73762 23.7272 1.74602 23.7413C1.75441 23.7554 1.76577 23.7677 1.77937 23.7774C4.48417 25.7011 7.50903 27.1692 10.725 28.1192C10.7481 28.126 10.7729 28.1258 10.7958 28.1184C10.8188 28.1111 10.8388 28.097 10.853 28.0781C11.543 27.1749 12.1544 26.2186 12.6811 25.2188C12.6881 25.205 12.6921 25.19 12.6928 25.1747C12.6935 25.1594 12.6909 25.1441 12.6852 25.1298C12.6795 25.1155 12.6707 25.1025 12.6595 25.0916C12.6484 25.0807 12.6349 25.0721 12.6202 25.0664C11.654 24.7104 10.7187 24.2814 9.82312 23.7832C9.8073 23.7739 9.79403 23.7611 9.78444 23.7458C9.77486 23.7305 9.76923 23.7132 9.76803 23.6954C9.76684 23.6776 9.77011 23.6598 9.77758 23.6435C9.78504 23.6271 9.79648 23.6128 9.81093 23.6016C9.99984 23.4668 10.1887 23.3262 10.3655 23.1856C10.3811 23.1724 10.4002 23.1638 10.4207 23.1607C10.4412 23.1575 10.4622 23.1601 10.4812 23.168C16.3434 25.7403 22.6931 25.7403 28.4883 23.168C28.5068 23.1593 28.5274 23.1558 28.5479 23.1579C28.5684 23.1599 28.5878 23.1675 28.6041 23.1797C28.7808 23.3203 28.9697 23.4668 29.1586 23.6016C29.173 23.6128 29.1845 23.6271 29.1919 23.6435C29.1994 23.6598 29.2027 23.6776 29.2015 23.6954C29.2003 23.7132 29.1947 23.7305 29.1851 23.7458C29.1755 23.7611 29.1622 23.7739 29.1464 23.7832C28.2531 24.2839 27.3174 24.7112 26.3494 25.0606C26.3346 25.0663 26.3212 25.0748 26.31 25.0857C26.2988 25.0966 26.2901 25.1097 26.2843 25.124C26.2786 25.1383 26.276 25.1535 26.2767 25.1688C26.2774 25.1841 26.2814 25.1991 26.2884 25.2129C26.8243 26.2077 27.4353 27.1634 28.1166 28.0723C28.1308 28.0911 28.1507 28.1052 28.1737 28.1126C28.1966 28.1199 28.2214 28.1202 28.2445 28.1133C31.4698 27.1676 34.5034 25.6992 37.2145 23.7715C37.2284 23.7621 37.24 23.7499 37.2484 23.7357C37.2568 23.7215 37.2619 23.7057 37.2633 23.6895C38.0067 16.2656 36.008 9.81447 31.9617 4.08986ZM13.5586 19.7813C11.7914 19.7813 10.3411 18.2227 10.3411 16.3125C10.3411 14.4024 11.767 12.8379 13.5586 12.8379C15.3684 12.8379 16.8066 14.4082 16.7761 16.3067C16.7761 18.2227 15.3502 19.7813 13.5586 19.7813ZM25.4658 19.7813C23.6986 19.7813 22.2483 18.2227 22.2483 16.3125C22.2483 14.4024 23.6681 12.8379 25.4658 12.8379C27.2756 12.8379 28.7137 14.4082 28.6833 16.3067C28.6833 18.2227 27.2695 19.7813 25.4658 19.7813Z" fill="white"/>
</svg>
