<svg width="35" height="36" viewBox="0 0 35 36" fill="none" xmlns="http://www.w3.org/2000/svg">
<path d="M11.7067 27.9422C11.7067 28.0828 11.5444 28.1953 11.3397 28.1953C11.1069 28.2164 10.9446 28.1039 10.9446 27.9422C10.9446 27.8016 11.1069 27.6891 11.3115 27.6891C11.5232 27.668 11.7067 27.7805 11.7067 27.9422ZM9.5121 27.6258C9.4627 27.7664 9.60383 27.9281 9.81552 27.9703C9.99899 28.0406 10.2107 27.9703 10.253 27.8297C10.2954 27.6891 10.1613 27.5273 9.9496 27.4641C9.76613 27.4148 9.56149 27.4852 9.5121 27.6258ZM12.631 27.5062C12.4264 27.5555 12.2853 27.6891 12.3065 27.8508C12.3276 27.9914 12.5111 28.0828 12.7228 28.0336C12.9274 27.9844 13.0685 27.8508 13.0474 27.7102C13.0262 27.5766 12.8357 27.4852 12.631 27.5062ZM17.2742 0.5625C7.4869 0.5625 0 7.96641 0 17.7187C0 25.5164 4.9254 32.1891 11.9607 34.5375C12.8639 34.6992 13.1815 34.1437 13.1815 33.6867C13.1815 33.2508 13.1603 30.8461 13.1603 29.3695C13.1603 29.3695 8.22077 30.4242 7.18347 27.2742C7.18347 27.2742 6.37903 25.2281 5.22177 24.7008C5.22177 24.7008 3.60585 23.5969 5.33468 23.618C5.33468 23.618 7.09173 23.7586 8.05847 25.432C9.60383 28.1461 12.1935 27.3656 13.2026 26.9016C13.3649 25.7766 13.8236 24.9961 14.3317 24.532C10.3871 24.0961 6.40726 23.5266 6.40726 16.7625C6.40726 14.8289 6.94355 13.8586 8.07258 12.6211C7.88911 12.1641 7.28931 10.2797 8.25605 7.84687C9.73085 7.38984 13.125 9.74531 13.125 9.74531C14.5363 9.35156 16.0534 9.14766 17.5565 9.14766C19.0595 9.14766 20.5766 9.35156 21.9879 9.74531C21.9879 9.74531 25.3821 7.38281 26.8569 7.84687C27.8236 10.2867 27.2238 12.1641 27.0403 12.6211C28.1694 13.8656 28.8609 14.8359 28.8609 16.7625C28.8609 23.5477 24.7046 24.0891 20.7601 24.532C21.4093 25.0875 21.9597 26.1422 21.9597 27.7945C21.9597 30.1641 21.9385 33.0961 21.9385 33.6727C21.9385 34.1297 22.2631 34.6852 23.1593 34.5234C30.2157 32.1891 35 25.5164 35 17.7187C35 7.96641 27.0615 0.5625 17.2742 0.5625ZM6.85887 24.8133C6.76714 24.8836 6.78831 25.0453 6.90827 25.1789C7.02117 25.2914 7.18347 25.3406 7.2752 25.2492C7.36694 25.1789 7.34577 25.0172 7.22581 24.8836C7.1129 24.7711 6.9506 24.7219 6.85887 24.8133ZM6.09677 24.2437C6.04738 24.3352 6.11794 24.4477 6.25907 24.518C6.37198 24.5883 6.5131 24.5672 6.5625 24.4687C6.6119 24.3773 6.54133 24.2648 6.4002 24.1945C6.25907 24.1523 6.14617 24.1734 6.09677 24.2437ZM8.38306 26.7469C8.27016 26.8383 8.3125 27.0492 8.4748 27.1828C8.6371 27.3445 8.84173 27.3656 8.93347 27.2531C9.0252 27.1617 8.98286 26.9508 8.84173 26.8172C8.68649 26.6555 8.4748 26.6344 8.38306 26.7469ZM7.57863 25.7133C7.46573 25.7836 7.46573 25.9664 7.57863 26.1281C7.69153 26.2898 7.88206 26.3602 7.97379 26.2898C8.08669 26.1984 8.08669 26.0156 7.97379 25.8539C7.875 25.6922 7.69153 25.6219 7.57863 25.7133Z" fill="white"/>
</svg>
