<svg width="38" height="39" viewBox="0 0 38 39" fill="none" xmlns="http://www.w3.org/2000/svg">
<path d="M12.7101 30.2707C12.7101 30.423 12.5339 30.5449 12.3117 30.5449C12.0589 30.5678 11.8827 30.4459 11.8827 30.2707C11.8827 30.1184 12.0589 29.9965 12.281 29.9965C12.5109 29.9736 12.7101 30.0955 12.7101 30.2707ZM10.3274 29.9279C10.2738 30.0803 10.427 30.2555 10.6569 30.3012C10.856 30.3773 11.0859 30.3012 11.1319 30.1488C11.1778 29.9965 11.0323 29.8213 10.8024 29.7527C10.6032 29.6994 10.381 29.7756 10.3274 29.9279ZM13.7137 29.7984C13.4915 29.8518 13.3383 29.9965 13.3613 30.1717C13.3843 30.324 13.5835 30.423 13.8133 30.3697C14.0355 30.3164 14.1887 30.1717 14.1657 30.0193C14.1427 29.8746 13.9359 29.7756 13.7137 29.7984ZM18.7548 0.609375C8.12863 0.609375 0 8.63027 0 19.1953C0 27.6428 5.34758 34.8715 12.9859 37.4156C13.9665 37.5908 14.3113 36.9891 14.3113 36.4939C14.3113 36.0217 14.2883 33.4166 14.2883 31.817C14.2883 31.817 8.9254 32.9596 7.79919 29.5471C7.79919 29.5471 6.92581 27.3305 5.66935 26.7592C5.66935 26.7592 3.91492 25.5633 5.79194 25.5861C5.79194 25.5861 7.6996 25.7385 8.74919 27.5514C10.427 30.4916 13.2387 29.6461 14.3343 29.1434C14.5105 27.9246 15.0085 27.0791 15.5601 26.5764C11.2774 26.1041 6.95645 25.4871 6.95645 18.1594C6.95645 16.0646 7.53871 15.0135 8.76452 13.6729C8.56532 13.1777 7.91411 11.1363 8.96371 8.50078C10.5649 8.00566 14.25 10.5574 14.25 10.5574C15.7823 10.1309 17.4294 9.90996 19.0613 9.90996C20.6931 9.90996 22.3403 10.1309 23.8726 10.5574C23.8726 10.5574 27.5577 7.99805 29.1589 8.50078C30.2085 11.1439 29.5573 13.1777 29.3581 13.6729C30.5839 15.0211 31.3347 16.0723 31.3347 18.1594C31.3347 25.51 26.8222 26.0965 22.5395 26.5764C23.2444 27.1781 23.8419 28.3207 23.8419 30.1107C23.8419 32.6777 23.819 35.8541 23.819 36.4787C23.819 36.9738 24.1714 37.5756 25.1444 37.4004C32.8056 34.8715 38 27.6428 38 19.1953C38 8.63027 29.381 0.609375 18.7548 0.609375ZM7.44677 26.8811C7.34718 26.9572 7.37016 27.1324 7.5004 27.2771C7.62298 27.399 7.79919 27.4523 7.89879 27.3533C7.99839 27.2771 7.9754 27.102 7.84516 26.9572C7.72258 26.8353 7.54637 26.782 7.44677 26.8811ZM6.61936 26.2641C6.56573 26.3631 6.64234 26.485 6.79556 26.5611C6.91815 26.6373 7.07137 26.6145 7.125 26.5078C7.17863 26.4088 7.10202 26.2869 6.94879 26.2107C6.79556 26.165 6.67298 26.1879 6.61936 26.2641ZM9.10161 28.9758C8.97903 29.0748 9.025 29.3033 9.20121 29.448C9.37742 29.6232 9.5996 29.6461 9.69919 29.5242C9.79879 29.4252 9.75282 29.1967 9.5996 29.0519C9.43105 28.8768 9.20121 28.8539 9.10161 28.9758ZM8.22823 27.8561C8.10565 27.9322 8.10565 28.1303 8.22823 28.3055C8.35081 28.4807 8.55766 28.5568 8.65726 28.4807C8.77984 28.3816 8.77984 28.1836 8.65726 28.0084C8.55 27.8332 8.35081 27.757 8.22823 27.8561Z" fill="white"/>
</svg>
