<svg width="110" height="162" viewBox="0 0 165 242" fill="none" xmlns="http://www.w3.org/2000/svg">
<path d="M16.72 146.48C14.56 146.48 12.5467 146.133 10.68 145.44C8.84 144.72 7.24 143.707 5.88 142.4C4.52 141.093 3.45333 139.56 2.68 137.8C1.93333 136.04 1.56 134.107 1.56 132C1.56 129.893 1.93333 127.96 2.68 126.2C3.45333 124.44 4.52 122.907 5.88 121.6C7.26667 120.293 8.88 119.293 10.72 118.6C12.56 117.88 14.5733 117.52 16.76 117.52C19.1867 117.52 21.3733 117.947 23.32 118.8C25.2933 119.627 26.9467 120.853 28.28 122.48L24.12 126.32C23.16 125.227 22.0933 124.413 20.92 123.88C19.7467 123.32 18.4667 123.04 17.08 123.04C15.7733 123.04 14.5733 123.253 13.48 123.68C12.3867 124.107 11.44 124.72 10.64 125.52C9.84 126.32 9.21333 127.267 8.76 128.36C8.33333 129.453 8.12 130.667 8.12 132C8.12 133.333 8.33333 134.547 8.76 135.64C9.21333 136.733 9.84 137.68 10.64 138.48C11.44 139.28 12.3867 139.893 13.48 140.32C14.5733 140.747 15.7733 140.96 17.08 140.96C18.4667 140.96 19.7467 140.693 20.92 140.16C22.0933 139.6 23.16 138.76 24.12 137.64L28.28 141.48C26.9467 143.107 25.2933 144.347 23.32 145.2C21.3733 146.053 19.1733 146.48 16.72 146.48ZM40.7881 146.32C39.0015 146.32 37.4015 145.973 35.9881 145.28C34.6015 144.587 33.5215 143.533 32.7481 142.12C31.9748 140.68 31.5881 138.853 31.5881 136.64V124.48H37.8281V135.72C37.8281 137.507 38.2015 138.827 38.9481 139.68C39.7215 140.507 40.8015 140.92 42.1881 140.92C43.1481 140.92 44.0015 140.72 44.7481 140.32C45.4948 139.893 46.0815 139.253 46.5081 138.4C46.9348 137.52 47.1481 136.427 47.1481 135.12V124.48H53.3881V146H47.4681V140.08L48.5481 141.8C47.8281 143.293 46.7615 144.427 45.3481 145.2C43.9615 145.947 42.4415 146.32 40.7881 146.32ZM69.5691 146.32C67.2491 146.32 65.1824 145.853 63.3691 144.92C61.5557 143.96 60.1291 142.64 59.0891 140.96C58.0757 139.28 57.5691 137.373 57.5691 135.24C57.5691 133.08 58.0757 131.173 59.0891 129.52C60.1291 127.84 61.5557 126.533 63.3691 125.6C65.1824 124.64 67.2491 124.16 69.5691 124.16C71.8357 124.16 73.8091 124.64 75.4891 125.6C77.1691 126.533 78.4091 127.88 79.2091 129.64L74.3691 132.24C73.8091 131.227 73.1024 130.48 72.2491 130C71.4224 129.52 70.5157 129.28 69.5291 129.28C68.4624 129.28 67.5024 129.52 66.6491 130C65.7957 130.48 65.1157 131.16 64.6091 132.04C64.1291 132.92 63.8891 133.987 63.8891 135.24C63.8891 136.493 64.1291 137.56 64.6091 138.44C65.1157 139.32 65.7957 140 66.6491 140.48C67.5024 140.96 68.4624 141.2 69.5291 141.2C70.5157 141.2 71.4224 140.973 72.2491 140.52C73.1024 140.04 73.8091 139.28 74.3691 138.24L79.2091 140.88C78.4091 142.613 77.1691 143.96 75.4891 144.92C73.8091 145.853 71.8357 146.32 69.5691 146.32ZM87.8447 141.6L88.0047 134L98.0447 124.48H105.485L95.8447 134.28L92.6047 136.92L87.8447 141.6ZM82.6847 146V116.32H88.9247V146H82.6847ZM98.7247 146L91.4447 136.96L95.3647 132.12L106.285 146H98.7247ZM118.433 146.32C116.139 146.32 114.099 145.84 112.313 144.88C110.553 143.92 109.153 142.613 108.113 140.96C107.099 139.28 106.593 137.373 106.593 135.24C106.593 133.08 107.099 131.173 108.113 129.52C109.153 127.84 110.553 126.533 112.313 125.6C114.099 124.64 116.139 124.16 118.433 124.16C120.699 124.16 122.726 124.64 124.513 125.6C126.299 126.533 127.699 127.827 128.713 129.48C129.726 131.133 130.233 133.053 130.233 135.24C130.233 137.373 129.726 139.28 128.713 140.96C127.699 142.613 126.299 143.92 124.513 144.88C122.726 145.84 120.699 146.32 118.433 146.32ZM118.433 141.2C119.473 141.2 120.406 140.96 121.233 140.48C122.059 140 122.713 139.32 123.193 138.44C123.673 137.533 123.913 136.467 123.913 135.24C123.913 133.987 123.673 132.92 123.193 132.04C122.713 131.16 122.059 130.48 121.233 130C120.406 129.52 119.473 129.28 118.433 129.28C117.393 129.28 116.459 129.52 115.633 130C114.806 130.48 114.139 131.16 113.633 132.04C113.153 132.92 112.913 133.987 112.913 135.24C112.913 136.467 113.153 137.533 113.633 138.44C114.139 139.32 114.806 140 115.633 140.48C116.459 140.96 117.393 141.2 118.433 141.2ZM144.643 146.32C142.35 146.32 140.31 145.84 138.523 144.88C136.763 143.92 135.363 142.613 134.323 140.96C133.31 139.28 132.803 137.373 132.803 135.24C132.803 133.08 133.31 131.173 134.323 129.52C135.363 127.84 136.763 126.533 138.523 125.6C140.31 124.64 142.35 124.16 144.643 124.16C146.91 124.16 148.937 124.64 150.723 125.6C152.51 126.533 153.91 127.827 154.923 129.48C155.937 131.133 156.443 133.053 156.443 135.24C156.443 137.373 155.937 139.28 154.923 140.96C153.91 142.613 152.51 143.92 150.723 144.88C148.937 145.84 146.91 146.32 144.643 146.32ZM144.643 141.2C145.683 141.2 146.617 140.96 147.443 140.48C148.27 140 148.923 139.32 149.403 138.44C149.883 137.533 150.123 136.467 150.123 135.24C150.123 133.987 149.883 132.92 149.403 132.04C148.923 131.16 148.27 130.48 147.443 130C146.617 129.52 145.683 129.28 144.643 129.28C143.603 129.28 142.67 129.52 141.843 130C141.017 130.48 140.35 131.16 139.843 132.04C139.363 132.92 139.123 133.987 139.123 135.24C139.123 136.467 139.363 137.533 139.843 138.44C140.35 139.32 141.017 140 141.843 140.48C142.67 140.96 143.603 141.2 144.643 141.2Z" fill="#586CF5"/>
<g clip-path="url(#clip0_728_66)">
<path d="M76.133 9.84317C72.1832 10.5119 68.1289 13.1242 65.8092 16.5307C64.0746 19.0803 63.385 21.2955 63.0924 25.2662C62.9461 27.2307 62.7371 28.3383 62.2565 29.7594C61.6504 31.5566 60.1457 34.3152 59.4561 34.9004C58.9545 35.3184 59.0799 35.6109 60.083 36.1334C61.3996 36.823 63.5731 38.8711 64.7016 40.4803C67.2512 44.033 68.1498 49.174 66.9795 53.6045C65.4748 59.2262 60.71 63.991 55.0674 65.4957C51.3266 66.4988 44.8272 65.9555 39.519 64.1791C35.5274 62.8416 30.8461 60.1875 27.586 57.3871C26.6664 56.593 26.2067 56.3213 26.1649 56.5303C26.1231 56.6975 26.3738 57.8887 26.7291 59.1844C29.2996 68.7977 35.5692 76.5928 44.3047 80.9814C47.5231 82.5906 52.2461 84.0326 55.3809 84.3461L56.8438 84.4924V87.7943V91.1172H51.8281C47.1887 91.1172 46.7289 91.159 45.9766 91.5352C45.0361 92.0158 44.3047 93.207 44.3047 94.252C44.3047 95.2969 45.0361 96.4881 45.9766 96.9688C46.7498 97.3658 47.1887 97.3867 53.709 97.3867C60.1248 97.3867 60.6891 97.3658 61.4205 96.9896C61.8385 96.7598 62.3401 96.4254 62.5072 96.2164C63.0924 95.485 64.8061 94.8789 66.2481 94.8789C67.6901 94.8789 69.4037 95.485 69.9889 96.2164C70.4487 96.7598 71.7862 97.3867 72.5176 97.3867C74.1059 97.3867 75.6524 95.8402 75.6524 94.252C75.6524 92.2457 72.6012 89.7379 69.1321 88.9229C67.6692 88.5885 65.0986 88.5258 63.9074 88.7975L63.1133 88.9855V86.8539V84.7014L64.8479 84.4506C80.3963 82.11 92.4547 69.1529 94.2311 52.8313C94.5237 50.1563 94.5446 27.8576 94.2311 25.4961C93.3324 18.1816 89.8842 12.9361 84.5342 10.7209C82.2145 9.73867 78.8289 9.4043 76.133 9.84317ZM80.25 22.5703C81.1904 23.051 81.9219 24.2422 81.9219 25.2871C81.9219 26.8754 80.3754 28.4219 78.7662 28.4219C77.2406 28.4219 75.6524 26.8336 75.6524 25.2871C75.6524 24.284 76.3838 23.051 77.2824 22.5912C78.2856 22.0479 79.226 22.0479 80.25 22.5703Z" fill="#586CF5"/>
<path d="M99.3512 10.6164L95.5477 11.5986L96.6553 13.4168C98.369 16.2381 99.3721 18.9549 100.208 23.0719C100.333 23.6361 100.563 23.3644 103.259 19.3101C106.624 14.2945 107 13.6258 107 12.748C107 11.1389 105.433 9.59237 103.823 9.63417C103.447 9.63417 101.42 10.0939 99.3512 10.6164Z" fill="#586CF5"/>
<path d="M1.63008 19.4564C0.710547 19.9371 0 21.1492 0 22.2359C0 23.2391 1.60918 26.2902 3.19746 28.3174C4.26328 29.6758 6.98008 32.0373 18.8922 41.9641C32.4762 53.291 35.2139 55.4435 37.7217 56.6975C42.2357 58.9336 49.1322 60.2711 52.7059 59.5814C58.5574 58.4111 62.3818 52.5387 60.898 46.917C60.4801 45.2869 59.7277 44.033 58.4111 42.7373C57.0736 41.4416 55.3809 40.5848 53.2283 40.1668C51.64 39.8533 51.4728 39.8533 48.9232 40.334C45.5377 40.9609 43.4896 41.0654 41.3371 40.7728C39.2891 40.4594 36.2588 39.498 34.7959 38.683C34.2316 38.3486 27.6486 34.148 20.167 29.3623C12.7062 24.5557 5.97695 20.2506 5.22461 19.8117C3.67812 18.9131 2.82129 18.8086 1.63008 19.4564Z" fill="#586CF5"/>
</g>
<path d="M10.032 179.24C8.752 179.24 7.56 179.032 6.456 178.616C5.368 178.184 4.416 177.584 3.6 176.816C2.8 176.032 2.176 175.112 1.728 174.056C1.28 173 1.056 171.848 1.056 170.6C1.056 169.352 1.28 168.2 1.728 167.144C2.176 166.088 2.808 165.176 3.624 164.408C4.44 163.624 5.392 163.024 6.48 162.608C7.568 162.176 8.76 161.96 10.056 161.96C11.432 161.96 12.688 162.2 13.824 162.68C14.96 163.144 15.92 163.84 16.704 164.768L14.688 166.664C14.08 166.008 13.4 165.52 12.648 165.2C11.896 164.864 11.08 164.696 10.2 164.696C9.32 164.696 8.512 164.84 7.776 165.128C7.056 165.416 6.424 165.824 5.88 166.352C5.352 166.88 4.936 167.504 4.632 168.224C4.344 168.944 4.2 169.736 4.2 170.6C4.2 171.464 4.344 172.256 4.632 172.976C4.936 173.696 5.352 174.32 5.88 174.848C6.424 175.376 7.056 175.784 7.776 176.072C8.512 176.36 9.32 176.504 10.2 176.504C11.08 176.504 11.896 176.344 12.648 176.024C13.4 175.688 14.08 175.184 14.688 174.512L16.704 176.432C15.92 177.344 14.96 178.04 13.824 178.52C12.688 179 11.424 179.24 10.032 179.24ZM26.6775 166.04C27.7015 166.04 28.6135 166.24 29.4135 166.64C30.2295 167.04 30.8695 167.656 31.3335 168.488C31.7975 169.304 32.0295 170.36 32.0295 171.656V179H29.0295V172.04C29.0295 170.904 28.7575 170.056 28.2135 169.496C27.6855 168.936 26.9415 168.656 25.9815 168.656C25.2775 168.656 24.6535 168.8 24.1095 169.088C23.5655 169.376 23.1415 169.808 22.8375 170.384C22.5495 170.944 22.4055 171.656 22.4055 172.52V179H19.4055V161.192H22.4055V169.64L21.7575 168.584C22.2055 167.768 22.8535 167.144 23.7015 166.712C24.5655 166.264 25.5575 166.04 26.6775 166.04ZM41.8826 179.168C40.4586 179.168 39.2106 178.888 38.1386 178.328C37.0826 177.752 36.2586 176.968 35.6666 175.976C35.0906 174.984 34.8026 173.856 34.8026 172.592C34.8026 171.312 35.0826 170.184 35.6426 169.208C36.2186 168.216 37.0026 167.44 37.9946 166.88C39.0026 166.32 40.1466 166.04 41.4266 166.04C42.6746 166.04 43.7866 166.312 44.7626 166.856C45.7386 167.4 46.5066 168.168 47.0666 169.16C47.6266 170.152 47.9066 171.32 47.9066 172.664C47.9066 172.792 47.8986 172.936 47.8826 173.096C47.8826 173.256 47.8746 173.408 47.8586 173.552H37.1786V171.56H46.2746L45.0986 172.184C45.1146 171.448 44.9626 170.8 44.6426 170.24C44.3226 169.68 43.8826 169.24 43.3226 168.92C42.7786 168.6 42.1466 168.44 41.4266 168.44C40.6906 168.44 40.0426 168.6 39.4826 168.92C38.9386 169.24 38.5066 169.688 38.1866 170.264C37.8826 170.824 37.7306 171.488 37.7306 172.256V172.736C37.7306 173.504 37.9066 174.184 38.2586 174.776C38.6106 175.368 39.1066 175.824 39.7466 176.144C40.3866 176.464 41.1226 176.624 41.9546 176.624C42.6746 176.624 43.3226 176.512 43.8986 176.288C44.4746 176.064 44.9866 175.712 45.4346 175.232L47.0426 177.08C46.4666 177.752 45.7386 178.272 44.8586 178.64C43.9946 178.992 43.0026 179.168 41.8826 179.168ZM56.6683 179.168C55.3243 179.168 54.1243 178.888 53.0683 178.328C52.0283 177.752 51.2123 176.968 50.6203 175.976C50.0283 174.984 49.7323 173.856 49.7323 172.592C49.7323 171.312 50.0283 170.184 50.6203 169.208C51.2123 168.216 52.0283 167.44 53.0683 166.88C54.1243 166.32 55.3243 166.04 56.6683 166.04C57.9163 166.04 59.0123 166.296 59.9563 166.808C60.9163 167.304 61.6443 168.04 62.1403 169.016L59.8363 170.36C59.4523 169.752 58.9803 169.304 58.4203 169.016C57.8763 168.728 57.2843 168.584 56.6443 168.584C55.9083 168.584 55.2443 168.744 54.6523 169.064C54.0603 169.384 53.5963 169.848 53.2603 170.456C52.9243 171.048 52.7563 171.76 52.7563 172.592C52.7563 173.424 52.9243 174.144 53.2603 174.752C53.5963 175.344 54.0603 175.8 54.6523 176.12C55.2443 176.44 55.9083 176.6 56.6443 176.6C57.2843 176.6 57.8763 176.456 58.4203 176.168C58.9803 175.88 59.4523 175.432 59.8363 174.824L62.1403 176.168C61.6443 177.128 60.9163 177.872 59.9563 178.4C59.0123 178.912 57.9163 179.168 56.6683 179.168ZM67.0644 176.144L67.1364 172.376L73.8324 166.184H77.4324L71.7444 171.896L70.1604 173.216L67.0644 176.144ZM64.6164 179V161.192H67.6164V179H64.6164ZM74.2884 179L69.6084 173.216L71.5044 170.816L77.9364 179H74.2884ZM81.0686 179.168C80.5246 179.168 80.0606 178.984 79.6766 178.616C79.2926 178.232 79.1006 177.752 79.1006 177.176C79.1006 176.568 79.2926 176.088 79.6766 175.736C80.0606 175.368 80.5246 175.184 81.0686 175.184C81.6126 175.184 82.0766 175.368 82.4606 175.736C82.8446 176.088 83.0366 176.568 83.0366 177.176C83.0366 177.752 82.8446 178.232 82.4606 178.616C82.0766 178.984 81.6126 179.168 81.0686 179.168ZM2.256 208V191.2H9.168C10.656 191.2 11.928 191.44 12.984 191.92C14.056 192.4 14.88 193.088 15.456 193.984C16.032 194.88 16.32 195.944 16.32 197.176C16.32 198.408 16.032 199.472 15.456 200.368C14.88 201.264 14.056 201.952 12.984 202.432C11.928 202.912 10.656 203.152 9.168 203.152H3.984L5.376 201.688V208H2.256ZM5.376 202.024L3.984 200.512H9.024C10.4 200.512 11.432 200.224 12.12 199.648C12.824 199.056 13.176 198.232 13.176 197.176C13.176 196.104 12.824 195.28 12.12 194.704C11.432 194.128 10.4 193.84 9.024 193.84H3.984L5.376 192.304V202.024ZM19.3821 208V190.192H22.3821V208H19.3821ZM34.2156 208V205.408L34.0476 204.856V200.32C34.0476 199.44 33.7836 198.76 33.2556 198.28C32.7276 197.784 31.9276 197.536 30.8556 197.536C30.1356 197.536 29.4236 197.648 28.7196 197.872C28.0316 198.096 27.4476 198.408 26.9676 198.808L25.7916 196.624C26.4796 196.096 27.2956 195.704 28.2396 195.448C29.1996 195.176 30.1916 195.04 31.2156 195.04C33.0716 195.04 34.5036 195.488 35.5116 196.384C36.5356 197.264 37.0476 198.632 37.0476 200.488V208H34.2156ZM30.1836 208.168C29.2236 208.168 28.3836 208.008 27.6636 207.688C26.9436 207.352 26.3836 206.896 25.9836 206.32C25.5996 205.728 25.4076 205.064 25.4076 204.328C25.4076 203.608 25.5756 202.96 25.9116 202.384C26.2636 201.808 26.8316 201.352 27.6156 201.016C28.3996 200.68 29.4396 200.512 30.7356 200.512H34.4556V202.504H30.9516C29.9276 202.504 29.2396 202.672 28.8876 203.008C28.5356 203.328 28.3596 203.728 28.3596 204.208C28.3596 204.752 28.5756 205.184 29.0076 205.504C29.4396 205.824 30.0396 205.984 30.8076 205.984C31.5436 205.984 32.1996 205.816 32.7756 205.48C33.3676 205.144 33.7916 204.648 34.0476 203.992L34.5516 205.792C34.2636 206.544 33.7436 207.128 32.9916 207.544C32.2556 207.96 31.3196 208.168 30.1836 208.168ZM48.1697 195.04C49.1937 195.04 50.1057 195.24 50.9057 195.64C51.7217 196.04 52.3617 196.656 52.8257 197.488C53.2897 198.304 53.5217 199.36 53.5217 200.656V208H50.5217V201.04C50.5217 199.904 50.2497 199.056 49.7057 198.496C49.1777 197.936 48.4337 197.656 47.4737 197.656C46.7697 197.656 46.1457 197.8 45.6017 198.088C45.0577 198.376 44.6337 198.808 44.3297 199.384C44.0417 199.944 43.8977 200.656 43.8977 201.52V208H40.8977V195.184H43.7537V198.64L43.2497 197.584C43.6977 196.768 44.3457 196.144 45.1937 195.712C46.0577 195.264 47.0497 195.04 48.1697 195.04ZM58.2874 208.168C57.7434 208.168 57.2794 207.984 56.8954 207.616C56.5114 207.232 56.3194 206.752 56.3194 206.176C56.3194 205.568 56.5114 205.088 56.8954 204.736C57.2794 204.368 57.7434 204.184 58.2874 204.184C58.8314 204.184 59.2954 204.368 59.6794 204.736C60.0634 205.088 60.2554 205.568 60.2554 206.176C60.2554 206.752 60.0634 207.232 59.6794 207.616C59.2954 207.984 58.8314 208.168 58.2874 208.168ZM2.256 237V220.2H9.168C10.656 220.2 11.928 220.44 12.984 220.92C14.056 221.4 14.88 222.088 15.456 222.984C16.032 223.88 16.32 224.944 16.32 226.176C16.32 227.408 16.032 228.472 15.456 229.368C14.88 230.248 14.056 230.928 12.984 231.408C11.928 231.872 10.656 232.104 9.168 232.104H3.984L5.376 230.688V237H2.256ZM13.248 237L9 230.904H12.336L16.608 237H13.248ZM5.376 231.024L3.984 229.536H9.024C10.4 229.536 11.432 229.24 12.12 228.648C12.824 228.056 13.176 227.232 13.176 226.176C13.176 225.104 12.824 224.28 12.12 223.704C11.432 223.128 10.4 222.84 9.024 222.84H3.984L5.376 221.304V231.024ZM25.5467 237.168C24.1227 237.168 22.8747 236.888 21.8027 236.328C20.7467 235.752 19.9227 234.968 19.3307 233.976C18.7547 232.984 18.4667 231.856 18.4667 230.592C18.4667 229.312 18.7467 228.184 19.3067 227.208C19.8827 226.216 20.6667 225.44 21.6587 224.88C22.6667 224.32 23.8107 224.04 25.0907 224.04C26.3387 224.04 27.4507 224.312 28.4267 224.856C29.4027 225.4 30.1707 226.168 30.7307 227.16C31.2907 228.152 31.5707 229.32 31.5707 230.664C31.5707 230.792 31.5627 230.936 31.5467 231.096C31.5467 231.256 31.5387 231.408 31.5227 231.552H20.8427V229.56H29.9387L28.7627 230.184C28.7787 229.448 28.6267 228.8 28.3067 228.24C27.9867 227.68 27.5467 227.24 26.9867 226.92C26.4427 226.6 25.8107 226.44 25.0907 226.44C24.3547 226.44 23.7067 226.6 23.1467 226.92C22.6027 227.24 22.1707 227.688 21.8507 228.264C21.5467 228.824 21.3947 229.488 21.3947 230.256V230.736C21.3947 231.504 21.5707 232.184 21.9227 232.776C22.2747 233.368 22.7707 233.824 23.4107 234.144C24.0507 234.464 24.7867 234.624 25.6187 234.624C26.3387 234.624 26.9867 234.512 27.5627 234.288C28.1387 234.064 28.6507 233.712 29.0987 233.232L30.7067 235.08C30.1307 235.752 29.4027 236.272 28.5227 236.64C27.6587 236.992 26.6667 237.168 25.5467 237.168ZM50.6284 224.04C51.6524 224.04 52.5564 224.24 53.3404 224.64C54.1404 225.04 54.7644 225.656 55.2124 226.488C55.6604 227.304 55.8844 228.36 55.8844 229.656V237H52.8844V230.04C52.8844 228.904 52.6364 228.056 52.1404 227.496C51.6444 226.936 50.9324 226.656 50.0044 226.656C49.3484 226.656 48.7644 226.8 48.2524 227.088C47.7564 227.376 47.3644 227.8 47.0764 228.36C46.8044 228.92 46.6684 229.632 46.6684 230.496V237H43.6684V230.04C43.6684 228.904 43.4204 228.056 42.9244 227.496C42.4284 226.936 41.7164 226.656 40.7884 226.656C40.1324 226.656 39.5484 226.8 39.0364 227.088C38.5404 227.376 38.1484 227.8 37.8604 228.36C37.5884 228.92 37.4524 229.632 37.4524 230.496V237H34.4524V224.184H37.3084V227.592L36.8044 226.584C37.2364 225.752 37.8604 225.12 38.6764 224.688C39.5084 224.256 40.4524 224.04 41.5084 224.04C42.7084 224.04 43.7484 224.336 44.6284 224.928C45.5244 225.52 46.1164 226.416 46.4044 227.616L45.2284 227.208C45.6444 226.248 46.3324 225.48 47.2924 224.904C48.2524 224.328 49.3644 224.04 50.6284 224.04ZM59.718 237V224.184H62.718V237H59.718ZM61.23 222.072C60.67 222.072 60.206 221.896 59.838 221.544C59.486 221.192 59.31 220.768 59.31 220.272C59.31 219.76 59.486 219.336 59.838 219C60.206 218.648 60.67 218.472 61.23 218.472C61.79 218.472 62.246 218.64 62.598 218.976C62.966 219.296 63.15 219.704 63.15 220.2C63.15 220.728 62.974 221.176 62.622 221.544C62.27 221.896 61.806 222.072 61.23 222.072ZM73.9275 224.04C74.9515 224.04 75.8635 224.24 76.6635 224.64C77.4795 225.04 78.1195 225.656 78.5835 226.488C79.0475 227.304 79.2795 228.36 79.2795 229.656V237H76.2795V230.04C76.2795 228.904 76.0075 228.056 75.4635 227.496C74.9355 226.936 74.1915 226.656 73.2315 226.656C72.5275 226.656 71.9035 226.8 71.3595 227.088C70.8155 227.376 70.3915 227.808 70.0875 228.384C69.7995 228.944 69.6555 229.656 69.6555 230.52V237H66.6555V224.184H69.5115V227.64L69.0075 226.584C69.4555 225.768 70.1035 225.144 70.9515 224.712C71.8155 224.264 72.8075 224.04 73.9275 224.04ZM88.5326 237.168C87.3006 237.168 86.1886 236.896 85.1966 236.352C84.2206 235.792 83.4526 235.024 82.8926 234.048C82.3326 233.072 82.0526 231.92 82.0526 230.592C82.0526 229.264 82.3326 228.112 82.8926 227.136C83.4526 226.16 84.2206 225.4 85.1966 224.856C86.1886 224.312 87.3006 224.04 88.5326 224.04C89.6046 224.04 90.5646 224.28 91.4126 224.76C92.2606 225.224 92.9326 225.936 93.4286 226.896C93.9246 227.856 94.1726 229.088 94.1726 230.592C94.1726 232.08 93.9326 233.312 93.4526 234.288C92.9726 235.248 92.3086 235.968 91.4606 236.448C90.6126 236.928 89.6366 237.168 88.5326 237.168ZM88.8926 234.6C89.6126 234.6 90.2526 234.44 90.8126 234.12C91.3886 233.8 91.8446 233.336 92.1806 232.728C92.5326 232.12 92.7086 231.408 92.7086 230.592C92.7086 229.76 92.5326 229.048 92.1806 228.456C91.8446 227.848 91.3886 227.384 90.8126 227.064C90.2526 226.744 89.6126 226.584 88.8926 226.584C88.1726 226.584 87.5246 226.744 86.9486 227.064C86.3886 227.384 85.9326 227.848 85.5806 228.456C85.2446 229.048 85.0766 229.76 85.0766 230.592C85.0766 231.408 85.2446 232.12 85.5806 232.728C85.9326 233.336 86.3886 233.8 86.9486 234.12C87.5246 234.44 88.1726 234.6 88.8926 234.6ZM92.7806 237V233.976L92.9006 230.568L92.6606 227.16V219.192H95.6366V237H92.7806ZM100.545 237.168C100.001 237.168 99.5372 236.984 99.1532 236.616C98.7692 236.232 98.5772 235.752 98.5772 235.176C98.5772 234.568 98.7692 234.088 99.1532 233.736C99.5372 233.368 100.001 233.184 100.545 233.184C101.089 233.184 101.553 233.368 101.937 233.736C102.321 234.088 102.513 234.568 102.513 235.176C102.513 235.752 102.321 236.232 101.937 236.616C101.553 236.984 101.089 237.168 100.545 237.168Z" fill="#B2B2B2"/>
<defs>
<clipPath id="clip0_728_66">
<rect width="107" height="107" fill="white"/>
</clipPath>
</defs>
</svg>
