<svg width="286" height="300" viewBox="0 0 286 300" fill="none" xmlns="http://www.w3.org/2000/svg">
<path d="M169.405 108.435C171.595 107.94 173.365 107.52 174.505 107.19C171.4 103.59 170.155 101.79 168.13 99.225C168.13 99.225 168.535 102.015 169.39 108.405L169.405 108.435ZM170.905 119.625V119.76C173.11 135.15 175.69 152.16 175.87 155.475L116.98 155.37C117.175 144.78 121.48 115.125 123.955 99.87C122.65 100.41 99.685 108.87 96.955 106.095V106.02C95.05 95.1 92.605 83.19 91.21 74.22L97.66 71.415C98.665 74.55 103.045 86.025 105.79 92.04C111.944 86.3752 118.664 81.3588 125.845 77.07C130.345 74.64 137.695 74.94 137.695 74.94C137.789 74.2493 138.052 73.5925 138.46 73.0274C138.868 72.4623 139.409 72.0064 140.035 71.7L140.47 71.535C145.495 70.155 154.705 71.145 155.86 71.85C156.827 72.5983 157.506 73.6583 157.78 74.85C157.78 74.85 170.035 76.65 173.635 79.605C173.635 79.605 184.555 94.53 190.015 106.245C192.025 110.55 191.26 113.19 187.6 115.245C185.5 116.655 178.3 118.335 170.935 119.625H170.905ZM150.58 113.625C150.85 112.905 149.185 110.88 147.22 110.715H147.025L147.775 104.295C147.775 103.5 144.775 102.795 141.16 102.795C137.545 102.795 134.56 103.455 134.56 104.295C134.562 104.387 134.594 104.477 134.65 104.55L135.46 111.675C135.453 111.715 135.453 111.755 135.46 111.795C135.244 111.781 135.027 111.814 134.825 111.892C134.622 111.97 134.439 112.091 134.288 112.246C134.137 112.402 134.022 112.588 133.949 112.792C133.877 112.997 133.85 113.214 133.87 113.43C133.945 113.935 134.139 114.415 134.437 114.829C134.734 115.244 135.126 115.582 135.58 115.815C135.381 115.771 135.175 115.771 134.975 115.815C134.776 115.86 134.589 115.947 134.428 116.072C134.266 116.196 134.134 116.355 134.04 116.536C133.946 116.717 133.893 116.916 133.885 117.12C133.981 117.575 134.181 118.002 134.47 118.366C134.759 118.731 135.129 119.023 135.55 119.22C135.366 119.159 135.171 119.142 134.98 119.17C134.788 119.198 134.606 119.27 134.447 119.381C134.289 119.491 134.158 119.638 134.065 119.808C133.973 119.978 133.922 120.167 133.915 120.36C133.915 121.08 134.935 121.98 136.765 122.61V122.97L137.215 127.005C138.468 127.371 139.765 127.563 141.07 127.575C142.492 127.546 143.906 127.355 145.285 127.005L145.705 123.195V122.955C147.593 122.611 149.443 122.078 151.225 121.365L151.48 121.155C150.145 119.82 149.185 115.5 150.61 113.625H150.58Z" fill="white"/>
<path d="M140.17 271.38V271.29H115.885C115.18 267.3 118.15 265.545 121.285 265.185C127.81 264.42 135.64 260.265 136.855 260.01H150.235C150.235 262.32 150.235 263.73 150.235 264.015V264.195C148.706 264.663 147.141 264.999 145.555 265.2C142.42 265.605 139.435 267.36 140.17 271.38Z" fill="white"/>
<path d="M140.17 271.29V271.38C139.435 267.36 142.42 265.605 145.555 265.245C147.141 265.044 148.706 264.708 150.235 264.24C155.38 262.74 160.195 260.265 161.125 260.07H174.85C174.85 266.205 174.775 270.27 174.85 271.32L140.17 271.29Z" fill="white"/>
<path d="M146.65 44.505C146.814 44.5166 146.968 44.5922 147.077 44.7156C147.187 44.839 147.243 45.0003 147.235 45.165C147.22 45.3308 147.141 45.4842 147.015 45.5932C146.889 45.7023 146.726 45.7584 146.56 45.75C146.395 45.7347 146.243 45.6554 146.137 45.5292C146.03 45.4029 145.977 45.2398 145.99 45.075C145.994 44.9934 146.014 44.9135 146.05 44.8401C146.085 44.7666 146.135 44.7012 146.197 44.6478C146.259 44.5945 146.331 44.5543 146.409 44.5297C146.487 44.5052 146.569 44.4968 146.65 44.505Z" fill="white"/>
<path d="M138.415 44.28C138.564 44.3116 138.696 44.396 138.788 44.5176C138.879 44.6393 138.924 44.7899 138.913 44.9417C138.902 45.0936 138.836 45.2363 138.728 45.3435C138.62 45.4507 138.477 45.5152 138.325 45.525C138.235 45.5308 138.145 45.5173 138.061 45.4854C137.977 45.4535 137.901 45.404 137.837 45.3401C137.774 45.2762 137.725 45.1995 137.694 45.1151C137.662 45.0307 137.65 44.9406 137.656 44.8509C137.663 44.7611 137.688 44.6738 137.731 44.5948C137.774 44.5158 137.834 44.4469 137.906 44.3928C137.978 44.3387 138.06 44.3007 138.148 44.2812C138.236 44.2618 138.327 44.2613 138.415 44.28Z" fill="white"/>
<path d="M124 99.915C122.695 100.455 99.73 108.915 97 106.14" stroke="white" stroke-width="0.86" stroke-miterlimit="10"/>
<path d="M154.825 39.495C154.645 38.235 154.45 36.765 154.165 35.265C153.815 32.8124 152.855 30.4866 151.375 28.5C147.94 24.66 144.25 26.1 141.115 29.325C140.215 30.257 139.393 31.2602 138.655 32.325C136.412 35.5364 134.686 39.0793 133.54 42.825C132.22 48.015 139.54 59.715 141.655 60.555C141.908 60.6477 142.169 60.718 142.435 60.765C145.525 61.35 149.455 58.59 150.775 55.875" stroke="white" stroke-width="0.86" stroke-miterlimit="10" stroke-linecap="round"/>
<path d="M155.89 71.895C155.89 63.015 156.37 54.945 155.635 46.095" stroke="white" stroke-width="0.86" stroke-miterlimit="10"/>
<path d="M142.51 60.375C142.503 60.4949 142.503 60.6151 142.51 60.735C141.73 64.23 141.52 68.55 140.08 71.655" stroke="white" stroke-width="0.86" stroke-miterlimit="10"/>
<path d="M153.595 41.07C153.965 40.5218 154.398 40.0184 154.885 39.57C158.395 36.57 160.72 43.245 159.28 45.135C158.825 45.6128 158.239 45.9449 157.596 46.0891C156.952 46.2333 156.28 46.1832 155.665 45.945C155.383 45.8679 155.111 45.7571 154.855 45.615" stroke="white" stroke-width="0.86" stroke-miterlimit="10" stroke-linecap="round"/>
<path d="M138.685 32.295C137.845 32.205 126.19 29.85 127.855 26.58C128.815 24.72 134.995 26.7 141.145 29.25C146.995 31.68 152.845 34.62 154.195 35.25L154.405 35.34" stroke="white" stroke-width="0.86" stroke-miterlimit="10"/>
<path d="M145.465 41.73C146.078 41.5414 146.727 41.5015 147.358 41.6137C147.989 41.7258 148.585 41.9868 149.095 42.375" stroke="white" stroke-width="0.86" stroke-miterlimit="10" stroke-linecap="round"/>
<path d="M155.5 42.285C156.145 42.8631 156.974 43.1928 157.84 43.215" stroke="white" stroke-width="0.86" stroke-miterlimit="10" stroke-linecap="round"/>
<path d="M137.32 42C138.31 41.55 140.545 41.67 140.95 42.645C141.595 44.22 140.635 47.49 140.23 49.365C139.945 50.64 139.495 53.115 141.73 52.455" stroke="white" stroke-width="0.86" stroke-miterlimit="10" stroke-linecap="round"/>
<path d="M144.805 55.605C144.538 55.8928 144.21 56.1171 143.846 56.2615C143.481 56.4059 143.088 56.4666 142.697 56.4393C142.305 56.412 141.925 56.2972 141.584 56.1035C141.243 55.9098 140.949 55.6421 140.725 55.32" stroke="white" stroke-width="0.86" stroke-miterlimit="10" stroke-linecap="round"/>
<path d="M150.595 223.71C150.46 239.7 150.265 253.5 150.205 260.055C150.205 262.365 150.205 263.775 150.205 264.06" stroke="white" stroke-width="0.86" stroke-miterlimit="10"/>
<path d="M165.52 160.155C165.34 166.575 169.735 170.445 175.225 172.02C176.8 172.468 178.42 172.735 180.055 172.815" stroke="white" stroke-width="0.86" stroke-miterlimit="10" stroke-linecap="round"/>
<path d="M174.79 271.29C174.79 270.24 174.79 266.175 174.79 260.04C174.955 241.365 175.33 203.37 175.165 172.02C175.165 166.44 175.09 161.07 175.015 156.06" stroke="white" stroke-width="0.86" stroke-linecap="round" stroke-linejoin="round"/>
<path d="M140.17 271.38L174.79 271.53C174.79 271.53 174.79 271.425 174.79 271.32" stroke="white" stroke-width="0.86" stroke-linecap="round" stroke-linejoin="round"/>
<path d="M142.24 167.73C143.064 186.63 145.89 205.39 150.67 223.695C153.835 236.445 157.51 248.64 161.05 259.89V260.04C160.12 260.235 155.305 262.725 150.16 264.21C148.631 264.678 147.066 265.014 145.48 265.215C142.345 265.575 139.36 267.33 140.095 271.35" stroke="white" stroke-width="0.86" stroke-linecap="round" stroke-linejoin="round"/>
<path d="M118.165 155.55C119.095 196.935 128.155 232.5 136.825 260.04C135.61 260.295 127.825 264.45 121.255 265.215C118.12 265.575 115.15 267.33 115.855 271.32H140.5" stroke="white" stroke-width="0.86" stroke-linecap="round" stroke-linejoin="round"/>
<path d="M136.27 260.055H136.825H149.98" stroke="white" stroke-width="0.86" stroke-miterlimit="10"/>
<path d="M161.11 260.055H161.125H174.82" stroke="white" stroke-width="0.86" stroke-miterlimit="10"/>
<path d="M174.79 271.53V274.14H140.17V271.38V271.305H174.79V271.32V271.53Z" stroke="white" stroke-width="0.86" stroke-linecap="round" stroke-linejoin="round"/>
<path d="M140.125 271.38V274.14H115.885V271.35V271.305H140.125V271.38Z" stroke="white" stroke-width="0.86" stroke-linecap="round" stroke-linejoin="round"/>
<path d="M170.965 119.76C173.17 135.15 175.75 152.16 175.93 155.475L117.04 155.37C117.235 144.78 121.54 115.125 124.015 99.87C124.015 99.435 124.15 99.03 124.21 98.625" stroke="white" stroke-width="0.86" stroke-linecap="round" stroke-linejoin="round"/>
<path d="M97.735 71.175C100.285 67.47 98.14 61.23 97.42 58.755C97 57.255 94.825 57.375 95.05 59.505C95.23 61.335 95.485 63.27 94.735 64.005" stroke="white" stroke-width="0.86" stroke-miterlimit="10" stroke-linecap="round"/>
<path d="M94.63 64.245C94.6367 64.2053 94.6367 64.1647 94.63 64.125C93.175 60 88.45 52.5 86.005 54C85.7861 54.1156 85.6193 54.3101 85.5385 54.5441C85.4578 54.778 85.469 55.034 85.57 55.26C85.8499 55.8755 86.2532 56.4269 86.755 56.88C88.3351 58.2711 89.5679 60.0125 90.355 61.965" stroke="white" stroke-width="0.86" stroke-miterlimit="10" stroke-linecap="round"/>
<path d="M85.495 55.305C85.228 54.9548 84.8828 54.672 84.4868 54.4793C84.0909 54.2865 83.6553 54.1892 83.215 54.195C82.9188 54.1785 82.6267 54.2697 82.3924 54.4516C82.1581 54.6335 81.9974 54.894 81.94 55.185C81.7 55.935 82.225 56.535 82.75 57.03C84.6741 58.9754 86.3425 61.158 87.715 63.525" stroke="white" stroke-width="0.86" stroke-miterlimit="10" stroke-linecap="round"/>
<path d="M91 74.28C88.9 74.04 87.265 69.165 86.71 67.56C85.7714 65.2204 84.4085 63.0743 82.69 61.23C82.06 60.495 80.77 59.28 80.845 58.23C80.8946 58.0301 80.9849 57.8425 81.1102 57.679C81.2355 57.5155 81.3931 57.3796 81.5732 57.2797C81.7534 57.1797 81.9521 57.118 82.1572 57.0983C82.3622 57.0785 82.5691 57.1013 82.765 57.165" stroke="white" stroke-width="0.86" stroke-miterlimit="10" stroke-linecap="round"/>
<path d="M91.69 66.99C91.09 65.01 93.505 64.185 94.69 64.23" stroke="white" stroke-width="0.86" stroke-miterlimit="10" stroke-linecap="round"/>
<path d="M105.325 92.58L105.79 92.16C111.938 86.4534 118.659 81.3966 125.845 77.07C130.345 74.64 137.695 74.94 137.695 74.94C137.789 74.2493 138.052 73.5925 138.46 73.0274C138.868 72.4623 139.409 72.0064 140.035 71.7L140.47 71.535C145.495 70.155 154.705 71.145 155.86 71.85C156.827 72.5983 157.506 73.6583 157.78 74.85C157.78 74.85 170.035 76.65 173.635 79.605C173.635 79.605 184.555 94.53 190.015 106.245C192.025 110.55 191.26 113.19 187.6 115.245C185.395 116.505 178.27 118.245 170.905 119.475C162.22 120.975 153.22 122.025 151.72 121.23C151.586 121.16 151.465 121.069 151.36 120.96C150.115 119.67 149.155 115.365 150.58 113.46C150.867 113.085 151.266 112.811 151.72 112.68C158.005 110.865 164.65 109.365 169.375 108.27C171.565 107.775 173.335 107.355 174.475 107.025C171.37 103.425 170.125 101.625 168.1 99.06C168.1 99.06 168.505 101.85 169.36 108.24" stroke="white" stroke-width="0.86" stroke-linecap="round" stroke-linejoin="round"/>
<path d="M146.86 112.26C145.96 114.585 141.475 114.18 139.51 113.865C138.82 113.76 136 112.95 135.505 111.69C135.498 111.65 135.498 111.61 135.505 111.57" stroke="white" stroke-width="0.86" stroke-miterlimit="10"/>
<path d="M135.52 111.705C135.304 111.691 135.087 111.724 134.885 111.802C134.682 111.88 134.499 112.001 134.348 112.156C134.197 112.312 134.082 112.498 134.009 112.702C133.937 112.907 133.91 113.124 133.93 113.34C134.005 113.845 134.199 114.325 134.496 114.739C134.794 115.154 135.186 115.492 135.64 115.725C137.791 116.976 140.316 117.422 142.765 116.985" stroke="white" stroke-width="0.86" stroke-miterlimit="10" stroke-linecap="round"/>
<path d="M135.61 115.74C135.411 115.696 135.205 115.696 135.005 115.741C134.806 115.785 134.619 115.872 134.458 115.997C134.296 116.121 134.164 116.28 134.07 116.461C133.976 116.642 133.923 116.841 133.915 117.045C134.011 117.5 134.211 117.927 134.5 118.291C134.789 118.656 135.159 118.948 135.58 119.145C137.736 120.255 140.19 120.649 142.585 120.27" stroke="white" stroke-width="0.86" stroke-miterlimit="10" stroke-linecap="round"/>
<path d="M135.55 119.175C135.366 119.114 135.171 119.097 134.98 119.125C134.788 119.153 134.606 119.225 134.447 119.336C134.289 119.446 134.158 119.593 134.065 119.763C133.973 119.933 133.922 120.122 133.915 120.315C133.915 121.035 134.935 121.935 136.765 122.565C139.64 123.415 142.682 123.534 145.615 122.91C147.504 122.566 149.353 122.033 151.135 121.32" stroke="white" stroke-width="0.86" stroke-miterlimit="10" stroke-linecap="round"/>
<path d="M150.58 113.595C150.85 112.875 149.185 110.85 147.22 110.685" stroke="white" stroke-width="0.86" stroke-miterlimit="10" stroke-linecap="round"/>
<path d="M134.62 104.205L134.65 104.46L135.46 111.585L135.475 111.675" stroke="white" stroke-width="0.86" stroke-linecap="round" stroke-linejoin="round"/>
<path d="M147.79 104.205L147.775 104.25L147.025 110.67L146.845 112.275" stroke="white" stroke-width="0.86" stroke-linecap="round" stroke-linejoin="round"/>
<path d="M134.65 104.46C134.594 104.387 134.562 104.297 134.56 104.205C134.56 103.41 137.56 102.705 141.16 102.705C144.76 102.705 147.775 103.365 147.775 104.205C147.685 104.985 144.775 105.615 141.175 105.615C137.89 105.66 135.175 105.135 134.65 104.46Z" stroke="white" stroke-width="0.86" stroke-linecap="round" stroke-linejoin="round"/>
<path d="M145.66 123.15L145.24 126.96C143.861 127.31 142.447 127.501 141.025 127.53C139.72 127.518 138.423 127.326 137.17 126.96L136.72 122.925" stroke="white" stroke-width="0.86" stroke-linecap="round" stroke-linejoin="round"/>
<path d="M96.88 106.065C94.975 95.145 92.53 83.235 91.135 74.265L97.585 71.46C98.59 74.595 102.97 86.07 105.715 92.085" stroke="white" stroke-width="0.86" stroke-linecap="round" stroke-linejoin="round"/>
<path d="M142.915 100.755C143.296 100.359 143.589 99.8874 143.776 99.3704C143.962 98.8534 144.037 98.3029 143.995 97.755C143.631 96.9022 143.199 96.0796 142.705 95.295C141.76 93.135 142.705 91.56 144.205 90.075" stroke="black" stroke-width="0.86" stroke-miterlimit="10" stroke-linecap="round"/>
<path d="M139.12 100.755C139.501 100.359 139.794 99.8874 139.981 99.3704C140.167 98.8534 140.242 98.3029 140.2 97.755C139.83 96.9051 139.399 96.0829 138.91 95.295C137.95 93.135 138.91 91.56 140.41 90.075" stroke="black" stroke-width="0.86" stroke-miterlimit="10" stroke-linecap="round"/>
<path d="M160.585 260.055C158.5 260.865 151.585 264.375 145.585 265.08C142.435 265.44 140.14 266.58 140.2 271.635" stroke="black" stroke-width="0.86" stroke-linejoin="round"/>
<path d="M149.71 113.115C155.32 110.115 164.71 108.45 169.54 107.295" stroke="black" stroke-width="0.86" stroke-linecap="square" stroke-linejoin="round"/>
<path d="M172 120.54L170.83 120.75C161.98 122.25 152.17 122.25 149.83 121.095" stroke="black" stroke-width="0.86" stroke-linecap="round" stroke-linejoin="round"/>
</svg>
