<svg width="300" height="300" viewBox="0 0 300 300" fill="none" xmlns="http://www.w3.org/2000/svg">
<path d="M217.215 251.775L184.755 263.205L184.65 262.965L181.095 252.585C182.1 252.27 192.21 248.985 192.24 248.67V248.55H192.66C194.625 248.04 203.775 249.105 210.15 247.695C213.24 247.035 216.6 247.74 217.215 251.775Z" fill="white"/>
<path d="M116.13 266.145V266.49L97.98 266.13L83.325 259.035L88.155 249.39L98.505 253.62C104.13 256.455 104.325 260.25 107.145 260.16C111.93 259.965 115.77 263.565 116.13 266.145Z" fill="white"/>
<path d="M88.665 148.5L87.825 148.71C79.245 123.315 89.79 91.71 117.15 79.575L129.3 77.475C129.261 76.7523 129.462 76.037 129.872 75.4402C130.281 74.8435 130.877 74.3987 131.565 74.175C131.721 74.1242 131.882 74.089 132.045 74.07C136.917 73.4752 141.843 73.4752 146.715 74.07C146.964 74.1144 147.205 74.19 147.435 74.295C148.65 75.015 148.935 76.125 149.415 77.295C149.415 77.295 160.605 76.515 163.71 79.98C169.29 86.175 175.47 95.67 175.92 95.535C176.37 95.4 176.685 82.575 176.52 69.285V69.015C177.089 68.9206 177.651 68.7852 178.2 68.61C179.692 68.5286 181.15 68.1297 182.475 67.44V67.35L183.54 67.83L184.065 68.085V68.205C185.01 76.035 188.46 107.67 183.045 113.4C180.735 115.845 159.615 100.8 159.615 100.8C159.615 100.8 167.94 151.95 168.315 157.68H165.705L109.425 158.07C109.53 147.18 114.81 112.02 117.075 97.23C117.075 97.23 92.745 111.33 97.275 145.785C97.35 146.43 90.99 148.005 88.665 148.5Z" fill="white"/>
<path d="M153.66 51.09C153.825 51.3189 153.895 51.6027 153.856 51.8822C153.817 52.1616 153.672 52.4152 153.45 52.59C153.218 52.7404 152.938 52.7974 152.666 52.7498C152.393 52.7021 152.149 52.5532 151.982 52.333C151.815 52.1128 151.737 51.8375 151.765 51.5624C151.792 51.2874 151.923 51.0329 152.13 50.85C152.246 50.7653 152.378 50.7043 152.518 50.6705C152.658 50.6367 152.803 50.6308 152.945 50.6531C153.087 50.6754 153.223 50.7254 153.346 50.8004C153.469 50.8754 153.575 50.9738 153.66 51.09Z" fill="white"/>
<path d="M143.88 50.325C143.971 50.4644 144.003 50.6341 143.97 50.7971C143.936 50.9601 143.839 51.1032 143.7 51.195C143.56 51.2822 143.391 51.3122 143.229 51.2787C143.067 51.2452 142.924 51.1508 142.83 51.015C142.786 50.9451 142.756 50.8671 142.741 50.7855C142.727 50.704 142.729 50.6204 142.747 50.5396C142.765 50.4588 142.799 50.3823 142.847 50.3146C142.895 50.2469 142.955 50.1893 143.025 50.145C143.093 50.1003 143.169 50.0695 143.249 50.0544C143.329 50.0392 143.411 50.04 143.49 50.0568C143.57 50.0735 143.645 50.1058 143.712 50.1519C143.779 50.1979 143.836 50.2568 143.88 50.325Z" fill="white"/>
<path d="M185.715 265.935L218.325 254.625L217.395 251.925L184.785 263.235L185.715 265.935Z" stroke="white" stroke-width="0.86" stroke-linecap="round" stroke-linejoin="round"/>
<path d="M143.13 186.48C143.206 186.555 143.276 186.635 143.34 186.72C145.335 189.225 160.155 209.04 160.635 210.06C164.13 217.56 179.67 249.63 181.02 252.615C182.025 252.3 192.135 249.015 192.165 248.7V248.58C192.345 244.995 187.665 219.045 183.165 194.58C182.895 193.08 173.085 172.08 165.555 157.815" stroke="white" stroke-width="0.86" stroke-miterlimit="10" stroke-linecap="round"/>
<path d="M192.675 248.565C194.64 248.055 203.79 249.12 210.165 247.71C213.165 247.035 216.6 247.71 217.215 251.775L184.755 263.205" stroke="white" stroke-width="0.86" stroke-linecap="round" stroke-linejoin="round"/>
<path d="M180.99 252.255L181.095 252.585L184.65 262.965" stroke="white" stroke-width="0.86" stroke-miterlimit="10"/>
<path d="M99.24 253.905C101.685 252.285 124.53 227.565 134.145 214.59C137.445 210.09 140.49 198.48 143.34 186.72C145.05 179.67 146.7 172.575 148.29 166.995" stroke="white" stroke-width="0.86" stroke-miterlimit="10" stroke-linecap="round"/>
<path d="M111.345 158.835C111.345 163.095 111.345 167.835 111.345 172.5C111.15 184.8 110.445 197.19 108.15 201.945C102.15 214.365 88.29 249.27 88.29 249.27" stroke="white" stroke-width="0.86" stroke-miterlimit="10" stroke-linecap="round"/>
<path d="M122.34 164.19C120.75 169.695 116.34 172.17 111.285 172.5C109.047 172.634 106.803 172.401 104.64 171.81" stroke="white" stroke-width="0.86" stroke-miterlimit="10" stroke-linecap="round"/>
<path d="M83.31 259.035L81.675 262.08L97.275 269.295L116.115 269.34L116.145 266.49H116.13L97.965 266.13L83.31 259.035Z" stroke="white" stroke-width="0.86" stroke-linecap="round" stroke-linejoin="round"/>
<path d="M116.13 266.145C115.77 263.565 111.93 259.965 107.13 260.145C104.31 260.235 104.13 256.44 98.4901 253.605L88.1401 249.375L83.3101 259.02" stroke="white" stroke-width="0.86" stroke-linecap="round" stroke-linejoin="round"/>
<path d="M148.245 53.895C148.245 55.2 148.05 57.72 146.01 56.52" stroke="white" stroke-width="0.86" stroke-miterlimit="10" stroke-linecap="round"/>
<path d="M152.25 59.82C150.135 62.82 147.87 65.205 146.895 65.49C146.636 65.5653 146.369 65.6106 146.1 65.625C142.965 65.88 139.335 62.76 138.3 59.91" stroke="white" stroke-width="0.86" stroke-miterlimit="10" stroke-linecap="round"/>
<path d="M158.265 43.65C158.899 45.3427 159.376 47.09 159.69 48.87C160.155 51.87 157.755 56.61 155.085 60.45" stroke="white" stroke-width="0.86" stroke-miterlimit="10" stroke-linecap="round"/>
<path d="M135.9 43.245C135.975 42.96 136.17 41.955 136.56 40.62C136.725 40.05 136.92 39.435 137.175 38.775C137.43 38.115 137.64 37.56 137.925 36.93C139.275 34.065 141.405 31.2 144.69 30.705C146.925 30.36 148.995 32.01 150.78 34.425C151.527 35.4655 152.199 36.5583 152.79 37.695C153.737 39.5116 154.559 41.391 155.25 43.32" stroke="white" stroke-width="0.86" stroke-miterlimit="10" stroke-linecap="round"/>
<path d="M131.565 74.235C132.45 65.61 132.825 58.245 134.445 49.71" stroke="white" stroke-width="0.86" stroke-miterlimit="10"/>
<path d="M146.1 65.625C145.965 68.985 145.545 71.205 146.73 74.01" stroke="white" stroke-width="0.86" stroke-miterlimit="10"/>
<path d="M136.965 45C136.658 44.412 136.275 43.8672 135.825 43.38C132.645 40.005 129.66 46.38 130.905 48.48C131.31 48.9944 131.857 49.3791 132.478 49.587C133.099 49.7948 133.767 49.8167 134.4 49.65C134.689 49.5964 134.97 49.5109 135.24 49.395" stroke="white" stroke-width="0.86" stroke-miterlimit="10" stroke-linecap="round"/>
<path d="M136.695 40.59H136.59C135.09 40.905 124.155 42.615 124.59 39.09C124.785 37.32 130.965 36.855 137.76 36.9H138C143.175 36.9 149.445 37.425 152.88 37.695" stroke="white" stroke-width="0.86" stroke-miterlimit="10"/>
<path d="M154.965 48.315C154.432 47.9601 153.824 47.7346 153.188 47.6565C152.553 47.5784 151.908 47.6498 151.305 47.865" stroke="white" stroke-width="1.23" stroke-miterlimit="10" stroke-linecap="round"/>
<path d="M134.895 45.945C134.195 46.4614 133.333 46.7114 132.465 46.65" stroke="white" stroke-width="0.86" stroke-miterlimit="10" stroke-linecap="round"/>
<path d="M158.28 43.5H158.37C159.498 43.7196 160.571 44.1592 161.529 44.7937C162.487 45.4282 163.31 46.2451 163.952 47.1979C164.595 48.1506 165.043 49.2205 165.271 50.3464C165.5 51.4723 165.505 52.6323 165.285 53.76C165.065 54.8877 164.626 55.9611 163.991 56.919C163.357 57.8768 162.54 58.7003 161.587 59.3424C160.634 59.9845 159.565 60.4327 158.439 60.6614C157.313 60.89 156.153 60.8946 155.025 60.675C153.734 60.3988 152.523 59.8326 151.484 59.0192C150.444 58.2058 149.603 57.1665 149.025 55.98C148.01 53.8949 147.863 51.4923 148.617 49.2991C149.37 47.1058 150.963 45.3009 153.045 44.28C153.665 43.9727 154.32 43.7411 154.995 43.59L155.355 43.515C156.322 43.3429 157.311 43.3378 158.28 43.5Z" stroke="white" stroke-width="0.86" stroke-linecap="round" stroke-linejoin="round"/>
<path d="M144.675 46.575C144.11 46.2792 143.484 46.1185 142.846 46.1055C142.209 46.0925 141.577 46.2275 141 46.5" stroke="white" stroke-width="0.86" stroke-miterlimit="10" stroke-linecap="round"/>
<path d="M142.755 60.345C142.967 60.6736 143.249 60.9513 143.581 61.1582C143.913 61.3651 144.286 61.4962 144.674 61.5421C145.063 61.5879 145.457 61.5474 145.827 61.4235C146.198 61.2995 146.537 61.0952 146.82 60.825" stroke="white" stroke-width="0.86" stroke-miterlimit="10" stroke-linecap="round"/>
<path d="M170.64 64.59C169.41 63.525 170.775 60.465 171.975 58.77C172.176 58.472 172.407 58.1956 172.665 57.945C172.917 57.6865 173.222 57.4851 173.559 57.3541C173.896 57.2231 174.257 57.1656 174.618 57.1855C174.978 57.2054 175.331 57.3022 175.651 57.4694C175.971 57.6366 176.252 57.8704 176.475 58.155" stroke="white" stroke-width="0.86" stroke-linecap="round" stroke-linejoin="round"/>
<path d="M175.785 65.55C175.778 65.6098 175.778 65.6702 175.785 65.73C175.68 66.6 173.535 66.18 173.82 64.455" stroke="white" stroke-width="0.86" stroke-linecap="round" stroke-linejoin="round"/>
<path d="M178.125 60.72C177.043 62.1653 176.249 63.805 175.785 65.55" stroke="white" stroke-width="0.86" stroke-linecap="round" stroke-linejoin="round"/>
<path d="M174.255 60.75C174.61 59.7831 175.31 58.9816 176.22 58.5C176.304 58.4477 176.395 58.4073 176.49 58.38C177.99 57.84 179.49 58.83 178.5 60.255L178.125 60.765" stroke="white" stroke-width="0.86" stroke-linecap="round" stroke-linejoin="round"/>
<path d="M180.75 63.18C179.04 62.535 178.725 64.515 178.455 65.775C178.45 65.8849 178.45 65.9951 178.455 66.105C178.351 66.4167 178.136 66.6793 177.851 66.8423C177.566 67.0054 177.23 67.0576 176.909 66.9889C176.588 66.9202 176.303 66.7354 176.11 66.4699C175.916 66.2044 175.827 65.8769 175.86 65.55" stroke="white" stroke-width="0.86" stroke-linecap="round" stroke-linejoin="round"/>
<path d="M178.125 60.72C178.995 59.625 179.835 59.295 180.96 59.82C181.734 60.2465 182.372 60.8819 182.801 61.6538C183.231 62.4256 183.435 63.3028 183.39 64.185" stroke="white" stroke-width="0.86" stroke-linecap="round" stroke-linejoin="round"/>
<path d="M170.055 61.41L167.835 60.27C167.627 60.1637 167.468 59.9806 167.393 59.7595C167.317 59.5383 167.33 59.2964 167.43 59.085V58.965L167.985 57.855C168.037 57.7499 168.11 57.6563 168.199 57.5797C168.288 57.5031 168.392 57.4449 168.503 57.4086C168.615 57.3723 168.733 57.3586 168.85 57.3683C168.967 57.378 169.081 57.4108 169.185 57.465L171.66 58.695" stroke="white" stroke-width="0.86" stroke-linecap="round" stroke-linejoin="round"/>
<path d="M180.615 63.12H180.75L183.345 64.245L184.575 64.77L186.27 65.61C186.478 65.7163 186.637 65.8993 186.712 66.1205C186.788 66.3417 186.775 66.5835 186.675 66.795V66.9L186.075 68.1C185.966 68.3092 185.78 68.4682 185.556 68.5437C185.333 68.6191 185.089 68.6053 184.875 68.505L184.095 68.1L183.57 67.845L182.505 67.365L178.845 65.73" stroke="white" stroke-width="0.86" stroke-linecap="round" stroke-linejoin="round"/>
<path d="M168 57.855V57.99L167.55 58.875C167.554 58.9048 167.554 58.9352 167.55 58.965C167.466 59.0784 167.345 59.1586 167.208 59.1915C167.071 59.2244 166.926 59.2079 166.8 59.145L164.49 57.975C164.352 57.8987 164.248 57.7719 164.2 57.6211C164.153 57.4702 164.165 57.3069 164.235 57.165L164.67 56.295C164.705 56.2237 164.754 56.1602 164.814 56.1079C164.874 56.0557 164.943 56.0159 165.019 55.9908C165.094 55.9656 165.174 55.9557 165.253 55.9616C165.332 55.9675 165.409 55.989 165.48 56.025L167.79 57.195C167.891 57.2683 167.965 57.3719 168.003 57.4906C168.041 57.6093 168.04 57.737 168 57.855Z" stroke="white" stroke-width="0.86" stroke-linecap="round" stroke-linejoin="round"/>
<path d="M182.43 67.5C181.104 68.1897 179.647 68.5886 178.155 68.67C177.605 68.8452 177.044 68.9806 176.475 69.075C174.225 69.465 170.475 69.39 170.715 64.71C170.722 64.6703 170.722 64.6297 170.715 64.59C170.793 63.9373 171 63.3066 171.325 62.7349C171.649 62.1631 172.085 61.6617 172.605 61.26C173.081 60.9175 173.653 60.7338 174.24 60.735H174.51C174.791 60.7793 175.045 60.9269 175.223 61.1489C175.4 61.3709 175.488 61.6513 175.47 61.935C175.47 62.58 174.285 63.165 173.7 64.365C173.456 64.8575 173.352 65.4075 173.4 65.955" stroke="white" stroke-width="0.86" stroke-linecap="round" stroke-linejoin="round"/>
<path d="M176.52 69.36C176.685 82.65 176.19 95.535 175.92 95.61C175.65 95.685 169.29 86.25 163.71 80.055C160.605 76.59 149.415 77.37 149.415 77.37C148.92 76.125 148.65 75.015 147.435 74.37C147.205 74.265 146.964 74.1894 146.715 74.145C141.843 73.5502 136.917 73.5502 132.045 74.145C131.882 74.164 131.721 74.1992 131.565 74.25C130.877 74.4737 130.281 74.9185 129.872 75.5152C129.462 76.112 129.261 76.8273 129.3 77.55L117.15 79.65C89.79 91.8 79.245 123.39 87.825 148.785L88.665 148.575C90.99 148.02 97.35 146.445 97.275 145.8C92.745 111.33 117 97.29 117 97.29C114.735 112.08 109.5 147.24 109.35 158.13L165.63 157.74H168.24C167.865 152.01 159.54 100.86 159.54 100.86C159.54 100.86 180.66 115.86 182.97 113.46C188.385 107.73 184.935 76.095 183.99 68.265" stroke="white" stroke-width="0.86" stroke-linecap="round" stroke-linejoin="round"/>
<path d="M97.59 153.54C99.855 160.185 96.57 166.305 93.39 164.31" stroke="white" stroke-width="0.86" stroke-linecap="round" stroke-linejoin="round"/>
<path d="M95.055 154.8C95.5412 156.346 95.6587 157.984 95.3983 159.583C95.1378 161.182 94.5065 162.698 93.555 164.01L93.345 164.31C92.805 165 91.845 166.095 90.87 165.42C90.5569 165.167 90.3442 164.81 90.27 164.415C90.1958 164.019 90.2649 163.609 90.465 163.26" stroke="white" stroke-width="0.86" stroke-linecap="round" stroke-linejoin="round"/>
<path d="M91.9951 155.55C92.7601 157.95 91.0501 163.545 89.5501 164.295C87.7801 165.285 86.8651 163.35 87.7351 161.685C90.6451 156.09 86.7601 151.29 88.6651 148.56" stroke="white" stroke-width="0.86" stroke-linecap="round" stroke-linejoin="round"/>
<path d="M98.4 157.935C98.7213 157.96 99.044 157.91 99.3428 157.789C99.6416 157.668 99.9082 157.48 100.122 157.239C100.336 156.997 100.49 156.71 100.574 156.399C100.658 156.087 100.669 155.761 100.605 155.445C100.181 152.221 98.7411 149.216 96.495 146.865" stroke="white" stroke-width="0.86" stroke-linecap="round" stroke-linejoin="round"/>
</svg>
