<svg width="300" height="300" viewBox="0 0 300 300" fill="none" xmlns="http://www.w3.org/2000/svg">
<path d="M162 102.27C164.685 120.18 168.315 146.76 168.48 155.43H167.73L110.64 155.535H109.59C109.905 149.805 110.37 149.28 110.76 140.775L124.155 141.45C117 140.52 106.95 135.735 99.615 129.585C94.26 125.085 90.33 119.895 90.015 114.945C89.745 110.835 91.68 107.61 93.465 103.935C95.7 99.3 108.675 82.41 111.84 79.8C115.5 76.8 127.71 75 127.71 75C128.205 73.77 128.46 72.66 129.66 71.925C129.736 71.8818 129.817 71.8466 129.9 71.82C134.882 70.711 140.039 70.6395 145.05 71.61C145.272 71.6688 145.484 71.7598 145.68 71.88C146.258 72.1949 146.753 72.6415 147.125 73.1836C147.498 73.7256 147.738 74.348 147.825 75C147.825 75 155.22 74.715 159.675 77.145C166.041 80.9371 172.024 85.3377 177.54 90.285C177.745 84.2769 177.525 78.2619 176.88 72.285L184.38 71.73H184.59C187.305 80.97 193.29 102.945 189.765 106.44C187.11 109.155 164.265 103.05 162 102.27ZM117.63 101.655C116.91 102.405 116.13 103.155 115.5 103.935C112.336 107.338 109.38 110.93 106.65 114.69C103.815 119.445 124.23 131.91 129.15 133.095C129.15 133.095 129.15 133.44 129.15 133.995C129.045 136.08 128.655 141.105 127.305 141.495C128.205 142.68 134.415 147.015 136.785 147.405C140.25 148.005 144.51 144.585 147.09 142.485C148.577 142.563 150.035 142.047 151.143 141.052C152.251 140.056 152.919 138.662 153 137.175L154.395 109.095C154.464 107.606 153.942 106.15 152.941 105.046C151.941 103.941 150.543 103.278 149.055 103.2L117.63 101.655Z" fill="white"/>
<path d="M164.61 265.41C167.76 265.77 170.73 267.525 169.995 271.53V271.5H145.74C146.415 267.555 143.46 265.815 140.325 265.5C138.744 265.297 137.184 264.961 135.66 264.495V264.3C135.66 264.03 135.66 262.62 135.66 260.295H149.04C150.255 260.49 158.07 264.63 164.61 265.41Z" fill="white"/>
<path d="M140.325 265.41C143.46 265.77 146.415 267.51 145.74 271.41V271.5H111.24C111.24 270.45 111.24 266.4 111.15 260.25H124.905C125.82 260.445 130.65 262.935 135.795 264.42C137.275 264.874 138.79 265.205 140.325 265.41Z" fill="white"/>
<path d="M197.715 31.89H174.09C172.566 31.89 171.105 32.4953 170.028 33.5727C168.95 34.6501 168.345 36.1113 168.345 37.635V38.235C168.345 39.7587 168.95 41.2199 170.028 42.2973C171.105 43.3747 172.566 43.98 174.09 43.98H197.715C198.469 43.98 199.216 43.8314 199.913 43.5427C200.611 43.254 201.244 42.8308 201.777 42.2973C202.311 41.7639 202.734 41.1305 203.023 40.4335C203.311 39.7365 203.46 38.9894 203.46 38.235V37.635C203.46 36.8806 203.311 36.1335 203.023 35.4365C202.734 34.7395 202.311 34.1061 201.777 33.5727C201.244 33.0392 200.611 32.616 199.913 32.3273C199.216 32.0386 198.469 31.89 197.715 31.89ZM196.8 41.91C196.011 41.91 195.239 41.676 194.583 41.2376C193.927 40.7991 193.416 40.176 193.114 39.4469C192.812 38.7178 192.733 37.9156 192.887 37.1416C193.041 36.3676 193.421 35.6567 193.979 35.0986C194.537 34.5406 195.248 34.1606 196.022 34.0067C196.796 33.8527 197.598 33.9317 198.327 34.2337C199.056 34.5357 199.679 35.0471 200.118 35.7033C200.556 36.3594 200.79 37.1309 200.79 37.92C200.786 38.977 200.364 39.9896 199.617 40.737C198.87 41.4844 197.857 41.906 196.8 41.91Z" fill="#586CF5" stroke="#586CF5" stroke-width="0.86" stroke-linecap="round" stroke-linejoin="round"/>
<path d="M148.005 44.7C147.995 44.8519 147.931 44.9951 147.823 45.1032C147.716 45.2112 147.574 45.2768 147.422 45.2877C147.27 45.2987 147.119 45.2544 146.998 45.1629C146.876 45.0714 146.792 44.9389 146.76 44.79C146.747 44.6252 146.8 44.4621 146.907 44.3358C147.013 44.2096 147.165 44.1303 147.33 44.115C147.413 44.1089 147.496 44.1192 147.575 44.1453C147.654 44.1714 147.726 44.2128 147.789 44.2672C147.852 44.3216 147.903 44.3878 147.94 44.4621C147.977 44.5363 147.999 44.6172 148.005 44.7Z" fill="white"/>
<path d="M139.77 44.91C139.778 45.0763 139.722 45.2394 139.613 45.3652C139.504 45.491 139.351 45.5697 139.185 45.585C139.02 45.5933 138.859 45.5366 138.736 45.4273C138.612 45.3179 138.537 45.1645 138.525 45C138.517 44.9188 138.525 44.8367 138.55 44.7589C138.574 44.681 138.615 44.609 138.668 44.5472C138.721 44.4854 138.787 44.4352 138.86 44.3996C138.934 44.3639 139.013 44.3437 139.095 44.34C139.26 44.3275 139.423 44.3802 139.549 44.4869C139.675 44.5935 139.755 44.7455 139.77 44.91Z" fill="white"/>
<path d="M124.59 94.98C122.136 97.0613 119.812 99.2905 117.63 101.655C116.91 102.405 116.13 103.155 115.5 103.935C112.336 107.338 109.38 110.93 106.65 114.69C103.815 119.445 124.23 131.91 129.15 133.095C129.15 133.095 129.15 133.44 129.15 133.995C129.045 136.08 128.655 141.105 127.305 141.495H127.14C126.168 141.516 125.195 141.466 124.23 141.345C117.075 140.415 107.025 135.63 99.6901 129.48C94.3351 124.98 90.4051 119.79 90.0901 114.84C89.8201 110.73 91.7551 107.505 93.5401 103.83C95.7751 99.195 108.75 82.305 111.915 79.695C115.5 76.8 127.71 75 127.71 75C128.205 73.77 128.46 72.66 129.66 71.925C129.736 71.8818 129.817 71.8466 129.9 71.82C134.882 70.711 140.039 70.6395 145.05 71.61C145.272 71.6688 145.484 71.7598 145.68 71.88C146.258 72.1949 146.753 72.6415 147.126 73.1836C147.498 73.7256 147.738 74.348 147.825 75C147.825 75 155.22 74.715 159.675 77.145C166.041 80.9371 172.024 85.3377 177.54 90.285C178.44 91.065 179.325 91.785 180.195 92.655" stroke="white" stroke-width="0.86" stroke-linecap="round" stroke-linejoin="round"/>
<path d="M147.09 142.5C144.51 144.6 140.25 148.02 136.785 147.42C134.415 147.03 128.205 142.695 127.305 141.51C127.259 141.449 127.218 141.384 127.185 141.315" stroke="white" stroke-width="0.86" stroke-miterlimit="10"/>
<path d="M110.76 140.775C110.37 149.28 109.905 149.775 109.59 155.535H110.64L167.73 155.43H168.48C168.315 146.76 164.685 120.18 162 102.27C161.31 97.695 160.695 93.69 160.2 90.69" stroke="white" stroke-width="0.86" stroke-linecap="round" stroke-linejoin="round"/>
<path d="M161.865 102.225H162C164.265 103.005 187.11 109.11 189.825 106.41C193.35 102.915 187.365 80.91 184.65 71.7H184.5L177 72.255C177.645 78.2319 177.865 84.2469 177.66 90.255" stroke="white" stroke-width="0.86" stroke-miterlimit="10"/>
<path d="M146.715 142.5H146.55C143.805 142.635 138.9 142.65 137.43 141.36C136.53 140.565 136.485 137.25 137.985 136.605C139.02 136.155 141.105 135.45 141.84 135.015C142.13 134.873 142.366 134.642 142.514 134.356C142.662 134.069 142.714 133.743 142.661 133.425C142.609 133.106 142.456 132.814 142.224 132.589C141.992 132.365 141.695 132.222 141.375 132.18C140.212 132.075 139.043 132.075 137.88 132.18C135.63 132.45 132.09 134.655 129.12 133.995" stroke="white" stroke-width="0.86" stroke-miterlimit="10"/>
<path d="M130.92 39.345C131.1 38.085 131.295 36.6 131.58 35.1C131.918 32.6212 132.878 30.2683 134.37 28.26C137.805 24.42 141.495 25.86 144.63 29.085C145.53 30.017 146.352 31.0203 147.09 32.085C149.333 35.2964 151.059 38.8393 152.205 42.585C153.525 47.79 146.205 59.475 144.09 60.315C143.838 60.4146 143.577 60.4899 143.31 60.54C140.22 61.11 136.29 58.35 134.97 55.635" stroke="white" stroke-width="0.86" stroke-miterlimit="10" stroke-linecap="round"/>
<path d="M129.855 71.73C129.855 62.835 129.375 54.78 130.125 45.915" stroke="white" stroke-width="0.86" stroke-miterlimit="10"/>
<path d="M143.235 60.225C143.267 60.3434 143.292 60.4636 143.31 60.585C144.075 64.185 144.285 68.64 145.695 71.85" stroke="white" stroke-width="0.86" stroke-miterlimit="10"/>
<path d="M132.15 40.905C131.784 40.3533 131.351 39.8494 130.86 39.405C127.35 36.405 125.025 43.08 126.48 44.985C126.935 45.4573 127.519 45.7847 128.16 45.9262C128.8 46.0676 129.468 46.0167 130.08 45.78C130.368 45.7067 130.646 45.5957 130.905 45.45" stroke="white" stroke-width="0.86" stroke-miterlimit="10" stroke-linecap="round"/>
<path d="M147 32.13C147.84 32.04 159.495 29.685 157.83 26.43C156.87 24.555 150.705 26.535 144.54 29.085C138.69 31.515 132.84 34.455 131.49 35.085L131.28 35.19" stroke="white" stroke-width="0.86" stroke-miterlimit="10"/>
<path d="M140.28 41.565C139.667 41.3776 139.018 41.3384 138.387 41.4505C137.756 41.5626 137.161 41.8229 136.65 42.21" stroke="white" stroke-width="0.86" stroke-miterlimit="10" stroke-linecap="round"/>
<path d="M130.2 42.12C129.56 42.7051 128.727 43.0359 127.86 43.05" stroke="white" stroke-width="0.86" stroke-miterlimit="10" stroke-linecap="round"/>
<path d="M148.5 41.79C147.525 41.34 145.275 41.475 144.87 42.45C144.225 43.95 145.185 47.28 145.605 49.155C145.875 50.43 146.325 52.92 144.105 52.245" stroke="white" stroke-width="0.86" stroke-miterlimit="10" stroke-linecap="round"/>
<path d="M141 55.5C141.267 55.7861 141.594 56.0092 141.958 56.1532C142.322 56.2972 142.714 56.3585 143.104 56.3326C143.495 56.3068 143.874 56.1944 144.216 56.0037C144.558 55.813 144.853 55.5488 145.08 55.23" stroke="white" stroke-width="0.86" stroke-miterlimit="10" stroke-linecap="round"/>
<path d="M135.285 223.86C135.435 239.865 135.63 253.665 135.69 260.205C135.69 262.53 135.69 263.94 135.69 264.21" stroke="white" stroke-width="0.86" stroke-miterlimit="10"/>
<path d="M120.375 160.32C120.555 166.8 116.07 170.685 110.505 172.23C108.983 172.65 107.418 172.896 105.84 172.965" stroke="white" stroke-width="0.86" stroke-miterlimit="10" stroke-linecap="round"/>
<path d="M145.65 271.5L111.15 271.665C111.15 271.665 111.15 271.545 111.15 271.425C111.15 270.375 111.15 266.325 111.06 260.175C110.865 241.515 110.415 203.565 110.55 172.2C110.55 166.35 110.55 160.725 110.685 155.505" stroke="white" stroke-width="0.86" stroke-linecap="round" stroke-linejoin="round"/>
<path d="M143.655 167.895C142.832 186.791 140.006 205.546 135.225 223.845C132.06 236.61 128.385 248.79 124.845 260.055V260.205C125.76 260.4 130.59 262.89 135.735 264.375C137.259 264.841 138.819 265.177 140.4 265.38C143.535 265.74 146.49 267.48 145.815 271.38C145.809 271.405 145.809 271.43 145.815 271.455" stroke="white" stroke-width="0.86" stroke-linecap="round" stroke-linejoin="round"/>
<path d="M167.73 155.715C166.8 197.1 157.74 232.665 149.07 260.205C150.285 260.46 158.07 264.6 164.64 265.38C167.79 265.74 170.76 267.495 170.025 271.5H145.5" stroke="white" stroke-width="0.86" stroke-linecap="round" stroke-linejoin="round"/>
<path d="M149.625 260.205H149.07H135.915" stroke="white" stroke-width="0.86" stroke-miterlimit="10"/>
<path d="M124.785 260.205H124.77H111.075" stroke="white" stroke-width="0.86" stroke-miterlimit="10"/>
<path d="M111.105 271.455H111.03V274.305H145.65V271.545V271.455H111.105Z" stroke="white" stroke-width="0.86" stroke-linecap="round" stroke-linejoin="round"/>
<path d="M145.71 271.545V274.305H169.935V271.545V271.455H145.74H145.71V271.545Z" stroke="white" stroke-width="0.86" stroke-linecap="round" stroke-linejoin="round"/>
<path d="M124.17 141.405L110.775 140.73L104.685 140.43C103.197 140.352 101.799 139.689 100.799 138.584C99.7983 137.48 99.2756 136.024 99.345 134.535L99.6 129.57" stroke="white" stroke-width="0.86" stroke-miterlimit="10"/>
<path d="M117.405 101.64H117.63L148.98 103.14C150.468 103.218 151.866 103.881 152.866 104.986C153.867 106.09 154.389 107.546 154.32 109.035L153 137.175C152.962 137.921 152.776 138.651 152.452 139.324C152.129 139.998 151.675 140.599 151.116 141.095C150.558 141.591 149.906 141.97 149.199 142.211C148.493 142.453 147.745 142.551 147 142.5H146.52H146.145" stroke="white" stroke-width="0.86" stroke-miterlimit="10"/>
<path d="M115.5 103.95L147 105.45C148.323 105.512 149.566 106.097 150.458 107.076C151.35 108.055 151.816 109.347 151.755 110.67L150.54 135.51L150.24 141.345" stroke="white" stroke-width="0.86" stroke-miterlimit="10"/>
<path d="M176.76 72.285C174.135 71.97 169.74 65.37 174.405 62.775C175.006 62.4578 175.647 62.2208 176.31 62.07C176.745 61.98 177.3 61.83 177.81 61.74C179.055 61.53 180.435 61.56 180.9 62.715C181.058 62.9961 181.1 63.3281 181.016 63.6396C180.932 63.951 180.728 64.2169 180.45 64.38C179.836 64.6614 179.192 64.8727 178.53 65.01C177.72 65.19 177.03 65.805 177.27 65.85C177.749 65.9858 178.19 66.2334 178.555 66.5724C178.92 66.9113 179.199 67.3321 179.37 67.8C179.532 68.1323 179.662 68.4787 179.76 68.835" stroke="white" stroke-width="0.86" stroke-miterlimit="10" stroke-linecap="round"/>
<path d="M174.285 62.58C173.655 60.735 171.195 49.92 173.355 49.395C175.515 48.87 175.815 53.25 177.045 58.395C177.285 59.4 177.54 60.45 177.855 61.5" stroke="white" stroke-width="0.86" stroke-miterlimit="10" stroke-linecap="round"/>
<path d="M177 58.5C176.835 56.52 180 56.31 180.57 57.765C180.8 58.2952 180.991 58.8417 181.14 59.4C181.95 62.145 182.04 65.22 181.23 66.78C181.109 67.0991 180.89 67.3715 180.604 67.5576C180.318 67.7437 179.981 67.8339 179.64 67.815" stroke="white" stroke-width="0.86" stroke-miterlimit="10" stroke-linecap="round"/>
<path d="M181.215 59.355C181.02 57.27 183.735 56.655 184.215 58.53C185.265 62.64 185.085 65.37 184.38 66.645C184.266 66.8567 184.114 67.045 183.93 67.2C183.56 67.4542 183.104 67.5511 182.662 67.4696C182.221 67.388 181.83 67.1346 181.575 66.765" stroke="white" stroke-width="0.86" stroke-miterlimit="10" stroke-linecap="round"/>
<path d="M184.5 71.715C184.942 70.0641 184.942 68.3259 184.5 66.675" stroke="white" stroke-width="0.86" stroke-miterlimit="10" stroke-linecap="round"/>
<path d="M109.23 118.635C115.23 125.085 126.24 131.865 129.825 132.735C129.825 132.735 129.63 142.275 127.545 142.365C121.545 142.605 111.975 139.23 103.8 134.085" stroke="black" stroke-width="0.86" stroke-linecap="round" stroke-linejoin="round"/>
<path d="M125.22 260.325C127.32 261.12 134.22 264.645 140.22 265.35C143.37 265.71 145.665 266.85 145.62 271.89" stroke="black" stroke-width="0.86" stroke-linejoin="round"/>
<path d="M203.07 30.3L205.905 26.61" stroke="white" stroke-width="0.86" stroke-linecap="round" stroke-linejoin="round"/>
<path d="M206.13 33.765L209.985 31.725" stroke="white" stroke-width="0.86" stroke-linecap="round" stroke-linejoin="round"/>
<path d="M206.985 37.68H211.365" stroke="white" stroke-width="0.86" stroke-linecap="round" stroke-linejoin="round"/>
</svg>
