<svg width="300" height="300" viewBox="0 0 300 300" fill="none" xmlns="http://www.w3.org/2000/svg">
<path d="M101.535 159.105C101.85 153.36 104.76 112.26 105.15 103.725L85.725 118.185C85.725 118.185 72.615 142.725 72.225 142.725C72.1705 142.736 72.1145 142.736 72.06 142.725C70.965 142.515 65.505 140.94 64.38 140.625H64.185L74.76 109.5C80.295 99.6001 101.34 83.2501 106.62 80.4901C111.225 78.0901 119.43 78.3301 119.715 78.3451C120.195 77.1151 120.345 75.5551 121.545 74.8201H121.635C123.135 74.1301 131.955 73.3201 136.905 74.6551C137.139 74.7206 137.362 74.8218 137.565 74.9551C138.711 75.797 139.527 77.0115 139.875 78.3901C139.875 78.3901 151.53 78.9301 155.7 81.5401C163.2 86.2801 178.995 115.62 180.69 117.3C184.635 121.23 199.44 129.765 205.125 132.75C206.265 133.86 205.8 139.335 204.195 140.43V140.52C193.318 136.759 182.665 132.377 172.29 127.395C169.5 125.685 154.5 108.135 154.5 108.135C157.095 125.34 160.5 150.255 160.68 158.985H159.18L102.435 159.09L101.535 159.105Z" fill="white"/>
<path d="M117 277.05V277.395L98.79 277.23L84 270.27L88.74 260.535L88.935 260.61L99.15 264.66L99.42 264.795C104.835 267.555 105.105 271.26 107.895 271.125C112.65 270.9 116.535 274.5 117 277.05Z" fill="white"/>
<path d="M175.59 274.575L172.59 263.61L172.74 263.97C172.74 263.97 184.185 261.135 184.23 260.79H184.605C186.615 260.415 195.75 262.095 202.275 261.135C205.425 260.67 208.755 261.6 209.1 265.635L175.59 274.8V274.575Z" fill="white"/>
<path d="M243.96 30.465V279.96H221.91V30.48L243.96 30.465Z" fill="#586CF5"/>
<path d="M139.83 48C139.836 48.0828 139.826 48.166 139.8 48.2448C139.774 48.3235 139.732 48.3964 139.678 48.4591C139.623 48.5218 139.557 48.5732 139.483 48.6102C139.409 48.6473 139.328 48.6693 139.245 48.675C139.078 48.687 138.913 48.632 138.786 48.5223C138.66 48.4126 138.582 48.2571 138.57 48.09C138.558 47.9229 138.613 47.7579 138.723 47.6314C138.832 47.5048 138.988 47.427 139.155 47.415C139.321 47.4066 139.484 47.4627 139.61 47.5718C139.736 47.6808 139.815 47.8342 139.83 48Z" fill="white"/>
<path d="M131.565 48.21C131.573 48.292 131.565 48.3748 131.54 48.4536C131.516 48.5323 131.476 48.6053 131.423 48.6682C131.37 48.7312 131.305 48.7828 131.231 48.8201C131.157 48.8573 131.077 48.8794 130.995 48.885C130.912 48.8912 130.829 48.8809 130.75 48.8547C130.671 48.8286 130.599 48.7872 130.536 48.7328C130.473 48.6785 130.422 48.6123 130.385 48.538C130.348 48.4637 130.326 48.3828 130.32 48.3C130.314 48.218 130.324 48.1356 130.351 48.0577C130.377 47.9798 130.419 47.908 130.473 47.8464C130.528 47.7849 130.594 47.7349 130.668 47.6995C130.742 47.664 130.823 47.6438 130.905 47.64C130.986 47.6318 131.068 47.6402 131.146 47.6648C131.224 47.6893 131.296 47.7295 131.358 47.7829C131.42 47.8362 131.47 47.9016 131.505 47.9751C131.541 48.0485 131.561 48.1285 131.565 48.21Z" fill="white"/>
<path d="M243.96 30.465V279.96H221.91H127.995V210.96" stroke="white" stroke-width="0.86" stroke-linecap="round" stroke-linejoin="round"/>
<path d="M127.995 29.745V29.655V19.59H243.96V30.465L221.91 30.48H221.835" stroke="white" stroke-width="0.86" stroke-linecap="round" stroke-linejoin="round"/>
<path d="M153.45 25.1249C153.45 25.6056 153.307 26.0754 153.04 26.475C152.773 26.8746 152.394 27.1861 151.95 27.37C151.506 27.5539 151.017 27.602 150.546 27.5083C150.075 27.4145 149.642 27.1831 149.302 26.8432C148.962 26.5034 148.73 26.0704 148.637 25.599C148.543 25.1276 148.591 24.639 148.775 24.195C148.959 23.751 149.27 23.3715 149.67 23.1045C150.07 22.8375 150.539 22.6949 151.02 22.6949C151.663 22.6989 152.279 22.9562 152.734 23.411C153.189 23.8659 153.446 24.4817 153.45 25.1249Z" stroke="white" stroke-width="0.86" stroke-linecap="round" stroke-linejoin="round"/>
<path d="M144.885 25.125C144.885 25.6075 144.741 26.0791 144.472 26.4796C144.203 26.8801 143.821 27.1915 143.374 27.374C142.928 27.5565 142.437 27.602 141.964 27.5045C141.492 27.407 141.059 27.1711 140.721 26.8267C140.383 26.4824 140.155 26.0452 140.066 25.5709C139.978 25.0966 140.032 24.6066 140.223 24.1635C140.414 23.7203 140.732 23.344 141.138 23.0825C141.543 22.8209 142.018 22.6861 142.5 22.695C143.137 22.7068 143.743 22.968 144.189 23.4224C144.635 23.8769 144.885 24.4882 144.885 25.125Z" stroke="white" stroke-width="0.86" stroke-linecap="round" stroke-linejoin="round"/>
<path d="M136.335 25.1249C136.335 25.6056 136.192 26.0754 135.925 26.475C135.658 26.8746 135.279 27.1861 134.835 27.37C134.391 27.5539 133.902 27.602 133.431 27.5083C132.96 27.4145 132.527 27.1831 132.187 26.8432C131.847 26.5034 131.615 26.0704 131.522 25.599C131.428 25.1276 131.476 24.639 131.66 24.195C131.844 23.751 132.155 23.3715 132.555 23.1045C132.955 22.8375 133.424 22.6949 133.905 22.6949C134.224 22.6949 134.54 22.7578 134.835 22.8799C135.13 23.002 135.398 23.181 135.623 23.4067C135.849 23.6323 136.028 23.9002 136.15 24.195C136.272 24.4898 136.335 24.8058 136.335 25.1249Z" stroke="white" stroke-width="0.86" stroke-linecap="round" stroke-linejoin="round"/>
<path d="M209.354 265.792L175.734 274.832L176.477 277.599L210.098 268.559L209.354 265.792Z" stroke="white" stroke-width="0.86" stroke-linecap="round" stroke-linejoin="round"/>
<path d="M99.36 264.78C102.045 262.59 116.73 237.78 127.965 210.96C130.185 205.665 132.27 200.28 134.115 194.985C136.648 187.908 138.654 180.653 140.115 173.28" stroke="white" stroke-width="0.86" stroke-linecap="round" stroke-linejoin="round"/>
<path d="M102.36 159.18C102.06 164.94 101.475 171.615 100.725 178.68C96.975 214.05 88.92 260.415 88.92 260.415" stroke="white" stroke-width="0.86" stroke-linecap="round" stroke-linejoin="round"/>
<path d="M134.295 195C142.35 206.355 169.785 256.755 172.65 263.55L172.8 263.91C172.8 263.91 184.245 261.075 184.29 260.73C184.995 255.735 174.39 211.335 159.09 159.06" stroke="white" stroke-width="0.86" stroke-linecap="round" stroke-linejoin="round"/>
<path d="M110.625 169.5C109.59 175.02 105.54 177.9 100.725 178.785C98.3975 179.19 96.0175 179.19 93.69 178.785" stroke="white" stroke-width="0.86" stroke-linecap="round" stroke-linejoin="round"/>
<path d="M184.68 260.775C186.69 260.4 195.825 262.08 202.35 261.12C205.5 260.655 208.83 261.585 209.175 265.62L175.665 274.785" stroke="white" stroke-width="0.86" stroke-linecap="round" stroke-linejoin="round"/>
<path d="M172.635 263.61L175.59 274.575" stroke="white" stroke-width="0.86" stroke-linecap="round" stroke-linejoin="round"/>
<path d="M83.94 270.27L82.335 273.345L98.04 280.41L116.94 280.26V277.395H116.925L98.715 277.23L83.94 270.27Z" stroke="white" stroke-width="0.86" stroke-linecap="round" stroke-linejoin="round"/>
<path d="M117 277.05C116.61 274.47 112.725 270.9 107.91 271.125C105.12 271.26 104.91 267.555 99.435 264.795L99.165 264.66L88.95 260.61L88.755 260.535L84 270.27" stroke="white" stroke-width="0.86" stroke-linecap="round" stroke-linejoin="round"/>
<path d="M105.15 103.725C104.76 112.26 101.85 153.36 101.535 159.105H102.36L159.105 159H160.605C160.44 150.27 157.02 125.355 154.425 108.15C153.765 103.8 153.165 99.96 152.685 96.975" stroke="white" stroke-width="0.86" stroke-linecap="round" stroke-linejoin="round"/>
<path d="M122.7 42.63C122.88 41.37 123.075 39.87 123.36 38.37C123.694 35.8783 124.66 33.5134 126.165 31.5C126.718 30.8589 127.372 30.3118 128.1 29.88C130.95 28.245 133.89 29.685 136.455 32.34C137.352 33.2744 138.174 34.2775 138.915 35.34C141.162 38.5514 142.892 42.0941 144.045 45.84C145.38 51.045 138.045 62.775 135.915 63.615C135.664 63.7194 135.403 63.7949 135.135 63.84C132.03 64.41 128.085 61.65 126.765 58.92" stroke="white" stroke-width="0.86" stroke-linecap="round" stroke-linejoin="round"/>
<path d="M121.635 75.105V74.745C121.635 65.97 121.155 57.99 121.89 49.245" stroke="white" stroke-width="0.86" stroke-linecap="round" stroke-linejoin="round"/>
<path d="M135 64.155L135.09 64.5C135.87 67.815 136.08 72 137.52 74.88" stroke="white" stroke-width="0.84" stroke-linecap="round" stroke-linejoin="round"/>
<path d="M123.93 44.205C123.567 43.6512 123.133 43.147 122.64 42.705C119.115 39.705 116.79 46.395 118.245 48.3C118.702 48.7744 119.288 49.1042 119.931 49.2482C120.574 49.3922 121.244 49.3441 121.86 49.11C122.14 49.0265 122.411 48.916 122.67 48.78" stroke="white" stroke-width="0.86" stroke-linecap="round" stroke-linejoin="round"/>
<path d="M138.975 35.3249C139.62 35.3249 146.625 33.8249 149.07 31.7399C149.805 31.1099 150.135 30.4049 149.745 29.6699C148.8 27.8099 142.65 29.7749 136.53 32.3099C130.71 34.7249 124.89 37.6349 123.555 38.3099L123.33 38.4149" stroke="white" stroke-width="0.86" stroke-linecap="round" stroke-linejoin="round"/>
<path d="M132.09 44.85C131.473 44.6683 130.822 44.6333 130.189 44.7479C129.556 44.8625 128.959 45.1235 128.445 45.51" stroke="white" stroke-width="0.86" stroke-linecap="round" stroke-linejoin="round"/>
<path d="M121.965 45.42C121.319 45.9959 120.49 46.3253 119.625 46.35" stroke="white" stroke-width="0.86" stroke-linecap="round" stroke-linejoin="round"/>
<path d="M140.265 45.09C139.275 44.625 137.01 44.76 136.62 45.735C135.975 47.31 136.935 50.595 137.34 52.47C137.625 53.76 138.075 56.235 135.84 55.575" stroke="white" stroke-width="0.86" stroke-linecap="round" stroke-linejoin="round"/>
<path d="M132.75 58.77C133.017 59.0588 133.345 59.2842 133.711 59.4299C134.076 59.5755 134.469 59.6377 134.862 59.6118C135.254 59.5859 135.636 59.4727 135.979 59.2803C136.322 59.088 136.618 58.8214 136.845 58.5" stroke="white" stroke-width="0.86" stroke-linecap="round" stroke-linejoin="round"/>
<path d="M119.715 78.345C119.43 78.345 111.225 78.09 106.62 80.49C101.34 83.25 80.295 99.6 74.76 109.5L64.11 140.52H64.305C65.43 140.835 70.89 142.41 71.985 142.62C72.0394 142.631 72.0955 142.631 72.15 142.62C72.615 142.62 85.65 118.08 85.65 118.08L105.045 103.575L110.505 99.495" stroke="white" stroke-width="0.86" stroke-linecap="round" stroke-linejoin="round"/>
<path d="M69.765 149.265C69.5327 150.748 69.0562 152.183 68.355 153.51C66.18 157.62 62.355 159.33 60.96 156.81" stroke="white" stroke-width="0.86" stroke-linecap="round" stroke-linejoin="round"/>
<path d="M66.93 149.19C66.6443 150.793 65.9865 152.306 65.0096 153.609C64.0326 154.912 62.7638 155.967 61.305 156.69L60.96 156.855C60.165 157.215 58.755 157.71 58.245 156.66C58.0997 156.305 58.0768 155.912 58.18 155.542C58.2833 155.173 58.5067 154.848 58.815 154.62H58.92" stroke="white" stroke-width="0.86" stroke-linecap="round" stroke-linejoin="round"/>
<path d="M63.87 148.395C63.51 150.39 60.735 153.465 58.8 154.575C58.4349 154.809 58.0173 154.948 57.585 154.98C55.545 154.98 55.65 152.865 57.195 151.815C62.475 148.215 61.23 142.065 64.305 140.61" stroke="white" stroke-width="0.86" stroke-linecap="round" stroke-linejoin="round"/>
<path d="M68.415 153.54C68.6876 153.714 68.9968 153.821 69.3182 153.855C69.6396 153.889 69.9644 153.847 70.2669 153.733C70.5695 153.62 70.8416 153.438 71.0616 153.201C71.2817 152.965 71.4438 152.68 71.535 152.37C72.0861 151.044 72.4058 149.634 72.48 148.2C72.693 146.401 72.5295 144.577 72 142.845" stroke="white" stroke-width="0.86" stroke-linecap="round" stroke-linejoin="round"/>
<path d="M219.165 140.355C219.395 141.185 219.336 142.068 219 142.86C218.63 143.74 217.953 144.456 217.095 144.876C216.238 145.295 215.257 145.389 214.335 145.14L213.855 144.975C213.237 144.719 212.695 144.308 212.28 143.784C211.865 143.259 211.59 142.637 211.483 141.976C211.375 141.316 211.438 140.639 211.666 140.01C211.893 139.381 212.277 138.82 212.782 138.381C213.287 137.941 213.896 137.638 214.55 137.5C215.205 137.362 215.884 137.393 216.523 137.591C217.162 137.789 217.741 138.146 218.203 138.63C218.665 139.114 218.996 139.708 219.165 140.355Z" stroke="white" stroke-width="0.86" stroke-linecap="round" stroke-linejoin="round"/>
<path d="M219.495 140.25C220.635 138.75 219.885 137.07 218.475 135.99C218.166 135.745 217.829 135.539 217.47 135.375C216.201 134.712 214.723 134.571 213.351 134.979C211.979 135.388 210.82 136.316 210.12 137.565" stroke="white" stroke-width="0.86" stroke-linecap="round" stroke-linejoin="round"/>
<path d="M218.805 135.915C219.21 133.74 216.735 132.915 215.805 132.72C215.643 132.676 215.477 132.645 215.31 132.63C212.775 132.21 210.51 132.63 209.055 135.24" stroke="white" stroke-width="0.86" stroke-linecap="round" stroke-linejoin="round"/>
<path d="M119.715 78.315C120.195 77.085 120.345 75.525 121.545 74.79H121.635C123.135 74.1 131.955 73.29 136.905 74.625C137.139 74.6906 137.362 74.7918 137.565 74.925C138.711 75.767 139.527 76.9815 139.875 78.36C139.875 78.36 151.53 78.9 155.7 81.51C163.2 86.25 178.995 115.59 180.69 117.27C184.635 121.2 199.44 129.735 205.125 132.72C205.824 133.152 206.568 133.504 207.345 133.77C208.335 131.505 213.345 129.18 215.385 132.36" stroke="white" stroke-width="0.86" stroke-linecap="round" stroke-linejoin="round"/>
<path d="M154.5 108.135C154.5 108.135 169.5 125.685 172.305 127.35C182.68 132.332 193.333 136.714 204.21 140.475C205.335 140.835 206.4 141.15 207.36 141.405C207.555 141.453 207.737 141.546 207.89 141.676C208.044 141.806 208.165 141.97 208.245 142.155C208.86 143.655 210.765 146.985 214.38 145.155" stroke="white" stroke-width="0.86" stroke-linecap="round" stroke-linejoin="round"/>
<path d="M149.13 31.815L221.91 23.655V30.48V279.96V279.975" stroke="white" stroke-width="0.86" stroke-linecap="round" stroke-linejoin="round"/>
<path d="M204.165 140.385C205.77 139.29 206.235 133.815 205.095 132.705" stroke="white" stroke-width="0.86" stroke-linecap="round" stroke-linejoin="round"/>
</svg>
