<svg width="300" height="300" viewBox="0 0 300 300" fill="none" xmlns="http://www.w3.org/2000/svg">
<path d="M132.105 264.825C135.24 265.2 138.225 266.94 137.49 270.96H113.205C114 267 111 265.2 107.82 264.825C106.236 264.62 104.671 264.289 103.14 263.835V263.64C103.14 263.355 103.14 261.945 103.14 259.635H116.55C117.735 259.905 125.565 264 132.105 264.825Z" fill="white"/>
<path d="M113.205 270.96L78.585 271.11C78.585 270.645 78.585 266.415 78.495 259.635H92.265C93.195 259.83 98.01 262.32 103.155 263.82C104.686 264.274 106.251 264.605 107.835 264.81C111 265.2 114 267 113.205 270.96Z" fill="white"/>
<path d="M93.45 136.5C98.52 136.98 102.45 133.89 104.58 131.85L104.67 131.94C109.17 132.195 113.415 133.26 115.17 135.975H115.29C118.995 131.76 127.38 130.47 131.25 133.86H131.49C131.835 132.72 132.495 130.425 133.305 127.665H133.5C135 139.02 136.14 149.4 136.23 154.23L77.37 154.5C77.505 151.755 78.21 143.07 78.87 133.335L78.945 133.14C79.695 133.395 80.445 133.635 81.195 133.86C85.202 135.069 89.3004 135.952 93.45 136.5Z" fill="white"/>
<path d="M80.28 106.305C78.2011 108.659 76.2435 111.117 74.415 113.67C73.11 115.875 75.525 118.56 79.38 121.17V121.08C79.86 114.45 80.16 109.17 80.28 106.305ZM85.305 124.5V124.74C85.305 124.74 81.075 127.08 81.27 133.5L81.15 133.89C80.415 133.665 79.65 133.425 78.9 133.17C69.705 130.035 59.295 124.26 57.795 114C57.21 109.92 59.46 106.68 61.245 103.02C63.48 98.4 76.44 81.585 79.605 79.02C83.19 76.02 95.445 74.28 95.445 74.28C95.7212 73.0815 96.4118 72.0191 97.395 71.28C98.895 70.605 107.595 70.35 112.56 70.905C112.849 70.937 113.129 71.0236 113.385 71.16C113.95 71.4791 114.435 71.9235 114.802 72.4592C115.168 72.9949 115.407 73.6075 115.5 74.25L141 69.39C136.005 59.715 132.495 54 126 42.735V42.615C126.491 41.4536 127.289 40.4485 128.31 39.7082C129.33 38.968 130.534 38.5208 131.79 38.415C134.64 41.52 159.645 68.985 156.63 73.305C153.03 78.495 128.13 89.67 128.13 89.67C128.775 93.75 129.63 99.21 130.665 105.87V105.975C125.235 105.975 119.625 107.775 117.96 111.675H117.81C115.05 103.17 93.51 103.5 92.445 106.5C92.145 107.31 92.055 115.74 92.115 122.88H92.01C91.1397 122.933 90.3036 123.238 89.6033 123.757C88.9029 124.276 88.3685 124.988 88.065 125.805C87.18 125.4 86.235 124.95 85.305 124.5Z" fill="white"/>
<path d="M78.51 273.93H113.13V271.08H78.51V273.93Z" stroke="white" stroke-width="0.86" stroke-linecap="round" stroke-linejoin="round"/>
<path d="M137.43 271.095H113.19V273.945H137.43V271.095Z" stroke="white" stroke-width="0.86" stroke-linecap="round" stroke-linejoin="round"/>
<path d="M132.495 264.84V237.255H184.035V253.62" stroke="white" stroke-width="0.86" stroke-miterlimit="10" stroke-linecap="round"/>
<path d="M184.035 267.765V273.945H132.495" stroke="white" stroke-width="0.86" stroke-miterlimit="10" stroke-linecap="round"/>
<path d="M229.83 246C224.09 240.925 216.903 237.777 209.28 237" stroke="white" stroke-width="0.86" stroke-miterlimit="10" stroke-linecap="round"/>
<path d="M230.31 263.835C231.513 266.966 232.128 270.291 232.125 273.645H242.295C242.306 267.086 240.55 260.645 237.21 255" stroke="white" stroke-width="0.86" stroke-miterlimit="10" stroke-linecap="round"/>
<path d="M209.22 247.245C215.077 247.959 220.511 250.666 224.61 254.91" stroke="white" stroke-width="0.86" stroke-miterlimit="10" stroke-linecap="round"/>
<path d="M214.05 238.23L212.025 247.56" stroke="white" stroke-width="0.86" stroke-miterlimit="10" stroke-linecap="round"/>
<path d="M222.54 241.2L218.385 250.155" stroke="white" stroke-width="0.86" stroke-miterlimit="10" stroke-linecap="round"/>
<path d="M229.26 245.58L223.215 253.59" stroke="white" stroke-width="0.86" stroke-miterlimit="10" stroke-linecap="round"/>
<path d="M231.81 262.29L239.715 260.145" stroke="white" stroke-width="0.86" stroke-miterlimit="10" stroke-linecap="round"/>
<path d="M231.78 268.725L241.62 267.915" stroke="white" stroke-width="0.86" stroke-miterlimit="10" stroke-linecap="round"/>
<path d="M173.505 256.5C178.726 264.6 186.916 270.328 196.315 272.454C205.714 274.58 215.572 272.934 223.771 267.869C231.969 262.804 237.853 254.725 240.159 245.368C242.464 236.012 241.007 226.124 236.1 217.83L227.445 223.17C229.376 226.144 230.693 229.474 231.319 232.965C231.945 236.455 231.868 240.035 231.092 243.495C230.315 246.956 228.856 250.226 226.798 253.114C224.741 256.002 222.127 258.45 219.111 260.315C216.095 262.179 212.736 263.422 209.233 263.971C205.729 264.52 202.152 264.363 198.71 263.51C195.268 262.658 192.031 261.126 189.189 259.005C186.347 256.884 183.957 254.217 182.16 251.16L173.505 256.5Z" stroke="white" stroke-width="0.86" stroke-miterlimit="10" stroke-linecap="round"/>
<path d="M239.58 225.915L230.295 228.9" stroke="white" stroke-width="0.86" stroke-miterlimit="10" stroke-linecap="round"/>
<path d="M241.275 235.575L231.645 235.95" stroke="white" stroke-width="0.86" stroke-miterlimit="10" stroke-linecap="round"/>
<path d="M240.81 244.545L231 242.235" stroke="white" stroke-width="0.86" stroke-miterlimit="10" stroke-linecap="round"/>
<path d="M238.02 252.885L228.855 248.88" stroke="white" stroke-width="0.86" stroke-miterlimit="10" stroke-linecap="round"/>
<path d="M232.365 261.585L225.105 254.685" stroke="white" stroke-width="0.86" stroke-miterlimit="10" stroke-linecap="round"/>
<path d="M224.76 267.99L219.735 259.47" stroke="white" stroke-width="0.86" stroke-miterlimit="10" stroke-linecap="round"/>
<path d="M216.15 271.785L212.97 262.785" stroke="white" stroke-width="0.86" stroke-miterlimit="10" stroke-linecap="round"/>
<path d="M207.36 273.72L206.205 263.91" stroke="white" stroke-width="0.86" stroke-miterlimit="10" stroke-linecap="round"/>
<path d="M199.35 273.525L200.28 263.535" stroke="white" stroke-width="0.86" stroke-miterlimit="10" stroke-linecap="round"/>
<path d="M191.055 271.29L194.55 261.84" stroke="white" stroke-width="0.86" stroke-miterlimit="10" stroke-linecap="round"/>
<path d="M189.54 259.26L182.805 266.64" stroke="white" stroke-width="0.86" stroke-miterlimit="10" stroke-linecap="round"/>
<path d="M185.04 255.15L177.09 261.03" stroke="white" stroke-width="0.86" stroke-miterlimit="10" stroke-linecap="round"/>
<path d="M160.68 197.01C147.464 199.693 135.708 207.174 127.68 218.01" stroke="white" stroke-width="0.86" stroke-miterlimit="10" stroke-linecap="round"/>
<path d="M153.435 215.325C155.789 214.083 158.262 213.078 160.815 212.325" stroke="white" stroke-width="0.86" stroke-miterlimit="10" stroke-linecap="round"/>
<path d="M134.31 237.27C136.886 229.94 141.585 223.544 147.81 218.895" stroke="white" stroke-width="0.86" stroke-miterlimit="10" stroke-linecap="round"/>
<path d="M128.715 264.165L132.465 262.95" stroke="white" stroke-width="0.86" stroke-miterlimit="10" stroke-linecap="round"/>
<path d="M118.71 252.66L131.745 252.105" stroke="white" stroke-width="0.86" stroke-miterlimit="10" stroke-linecap="round"/>
<path d="M122.235 240.33L132.435 242.79" stroke="white" stroke-width="0.86" stroke-miterlimit="10" stroke-linecap="round"/>
<path d="M125.34 228.3L135.87 233.01" stroke="white" stroke-width="0.86" stroke-miterlimit="10" stroke-linecap="round"/>
<path d="M130.74 214.26L141.42 224.43" stroke="white" stroke-width="0.86" stroke-miterlimit="10" stroke-linecap="round"/>
<path d="M141.93 204.75L148.395 215.73" stroke="white" stroke-width="0.86" stroke-miterlimit="10" stroke-linecap="round"/>
<path d="M154.665 199.155L159.345 212.445" stroke="white" stroke-width="0.86" stroke-miterlimit="10" stroke-linecap="round"/>
<path d="M144.54 249.69L140.04 254.19" stroke="white" stroke-width="0.86" stroke-miterlimit="10" stroke-linecap="round"/>
<path d="M139.98 249.69L144.48 254.19" stroke="white" stroke-width="0.86" stroke-miterlimit="10" stroke-linecap="round"/>
<path d="M183 144C181.314 144 179.666 144.5 178.265 145.437C176.864 146.374 175.772 147.705 175.127 149.263C174.483 150.821 174.315 152.535 174.645 154.188C174.975 155.841 175.788 157.359 176.981 158.55C178.174 159.741 179.693 160.551 181.347 160.878C183.001 161.205 184.714 161.034 186.271 160.387C187.827 159.74 189.157 158.646 190.091 157.243C191.026 155.839 191.523 154.191 191.52 152.505C191.52 151.387 191.299 150.28 190.871 149.247C190.443 148.214 189.815 147.276 189.024 146.486C188.232 145.696 187.293 145.07 186.259 144.643C185.226 144.217 184.118 143.998 183 144ZM187.695 157.185C187.635 157.248 187.563 157.297 187.483 157.331C187.403 157.365 187.317 157.383 187.23 157.383C187.143 157.383 187.057 157.365 186.977 157.331C186.897 157.297 186.825 157.248 186.765 157.185C185.895 156.3 184.455 154.86 183 153.42L179.235 157.185C179.179 157.248 179.109 157.298 179.031 157.332C178.954 157.366 178.87 157.382 178.785 157.38C178.658 157.377 178.535 157.337 178.43 157.265C178.325 157.193 178.243 157.092 178.194 156.975C178.145 156.858 178.13 156.729 178.153 156.604C178.175 156.479 178.233 156.363 178.32 156.27C178.695 155.91 180.345 154.245 182.085 152.505L178.335 148.755C178.273 148.697 178.223 148.627 178.188 148.55C178.153 148.472 178.133 148.389 178.13 148.304C178.128 148.219 178.142 148.134 178.172 148.055C178.202 147.975 178.247 147.902 178.305 147.84C178.363 147.778 178.433 147.728 178.51 147.693C178.588 147.658 178.671 147.638 178.756 147.636C178.841 147.633 178.926 147.647 179.005 147.677C179.085 147.707 179.158 147.752 179.22 147.81C179.355 147.93 181.11 149.7 183 151.59L186.78 147.81C186.903 147.692 187.067 147.626 187.237 147.626C187.408 147.626 187.572 147.692 187.695 147.81C187.755 147.87 187.803 147.941 187.836 148.02C187.868 148.098 187.885 148.182 187.885 148.268C187.885 148.353 187.868 148.437 187.836 148.515C187.803 148.594 187.755 148.665 187.695 148.725L183.93 152.475L187.71 156.24C187.823 156.371 187.882 156.541 187.873 156.714C187.865 156.887 187.79 157.05 187.665 157.17L187.695 157.185Z" fill="#586CF5"/>
<path d="M167.28 249.69L162.78 254.19" stroke="white" stroke-width="0.86" stroke-miterlimit="10" stroke-linecap="round"/>
<path d="M162.705 249.69L167.205 254.19" stroke="white" stroke-width="0.86" stroke-miterlimit="10" stroke-linecap="round"/>
<path d="M160.95 237.24V197.415H209.22V263.13" stroke="white" stroke-width="0.86" stroke-miterlimit="10" stroke-linecap="round"/>
<path d="M234.135 218.895C235.95 218.175 239.055 212.775 236.49 208.14C233.715 203.1 229.11 203.355 227.22 204.3C228.72 207.78 232.485 215.835 234.015 218.925" stroke="white" stroke-width="0.86" stroke-miterlimit="10" stroke-linecap="round"/>
<path d="M222 207.33C220.185 208.065 217.08 213.45 219.645 218.085C222.42 223.125 227.025 222.87 228.915 221.94C227.415 218.46 223.65 210.39 222.12 207.315" stroke="white" stroke-width="0.86" stroke-miterlimit="10" stroke-linecap="round"/>
<path d="M138.615 261.315C139.995 261.315 139.995 270.57 141.375 270.57C142.755 270.57 142.755 261.315 144.15 261.315C145.545 261.315 145.53 270.57 146.91 270.57C148.29 270.57 148.29 261.315 149.67 261.315C151.05 261.315 151.05 270.57 152.43 270.57C153.81 270.57 153.825 261.315 155.205 261.315C156.585 261.315 156.585 270.57 157.98 270.57C159.375 270.57 159.36 261.315 160.74 261.315C162.12 261.315 162.135 270.57 163.515 270.57C164.895 270.57 164.91 261.315 166.29 261.315C167.67 261.315 167.685 270.57 169.065 270.57" stroke="white" stroke-width="0.86" stroke-miterlimit="10" stroke-linecap="round"/>
<path d="M169.845 237.15L178.125 221.295" stroke="white" stroke-width="0.86" stroke-miterlimit="10" stroke-linecap="round"/>
<path d="M179.04 221.22C180.896 221.22 182.4 219.716 182.4 217.86C182.4 216.004 180.896 214.5 179.04 214.5C177.184 214.5 175.68 216.004 175.68 217.86C175.68 219.716 177.184 221.22 179.04 221.22Z" stroke="white" stroke-width="0.86" stroke-miterlimit="10" stroke-linecap="round"/>
<path d="M141.885 237.15L150.165 221.295" stroke="white" stroke-width="0.86" stroke-miterlimit="10" stroke-linecap="round"/>
<path d="M151.08 221.22C152.936 221.22 154.44 219.716 154.44 217.86C154.44 216.004 152.936 214.5 151.08 214.5C149.224 214.5 147.72 216.004 147.72 217.86C147.72 219.716 149.224 221.22 151.08 221.22Z" stroke="white" stroke-width="0.86" stroke-miterlimit="10" stroke-linecap="round"/>
<path d="M188.955 257.97V215.07H209.055" stroke="white" stroke-width="0.86" stroke-miterlimit="10" stroke-linecap="round"/>
<path d="M179.28 197.415C179.28 197.415 159.78 173.16 159.39 172.815C158.775 172.155 151.11 176.73 153.3 185.94C155.49 195.15 161.1 197.34 161.1 197.34" stroke="white" stroke-width="0.86" stroke-miterlimit="10" stroke-linecap="round"/>
<path d="M176.13 193.23C176.683 192.856 177.357 192.706 178.016 192.809C178.675 192.912 179.271 193.261 179.684 193.785C180.096 194.31 180.295 194.971 180.239 195.636C180.184 196.302 179.879 196.921 179.385 197.37" stroke="white" stroke-width="0.86" stroke-miterlimit="10" stroke-linecap="round"/>
<path d="M172.89 189.105C173.443 188.731 174.117 188.581 174.776 188.684C175.436 188.787 176.031 189.136 176.444 189.66C176.856 190.185 177.055 190.846 176.999 191.512C176.944 192.177 176.639 192.796 176.145 193.245" stroke="white" stroke-width="0.86" stroke-miterlimit="10" stroke-linecap="round"/>
<path d="M169.65 184.995C170.203 184.621 170.877 184.471 171.536 184.574C172.196 184.677 172.791 185.026 173.204 185.55C173.616 186.075 173.815 186.736 173.759 187.402C173.704 188.067 173.399 188.686 172.905 189.135" stroke="white" stroke-width="0.86" stroke-miterlimit="10" stroke-linecap="round"/>
<path d="M166.41 180.87C166.963 180.496 167.637 180.346 168.296 180.449C168.956 180.552 169.551 180.901 169.964 181.425C170.376 181.95 170.575 182.611 170.519 183.276C170.464 183.942 170.159 184.561 169.665 185.01" stroke="white" stroke-width="0.86" stroke-miterlimit="10" stroke-linecap="round"/>
<path d="M163.155 176.76C163.704 176.316 164.407 176.109 165.109 176.184C165.81 176.258 166.454 176.609 166.898 177.158C167.341 177.707 167.548 178.409 167.474 179.111C167.399 179.813 167.049 180.456 166.5 180.9" stroke="white" stroke-width="0.86" stroke-miterlimit="10" stroke-linecap="round"/>
<path d="M159.915 172.635C160.467 172.235 161.152 172.063 161.827 172.156C162.502 172.249 163.115 172.6 163.538 173.135C163.96 173.67 164.159 174.348 164.094 175.026C164.028 175.704 163.702 176.331 163.185 176.775" stroke="white" stroke-width="0.86" stroke-miterlimit="10" stroke-linecap="round"/>
<path d="M205.5 194.085C204.54 191.73 198.495 181.485 203.235 179.94C206.325 178.92 214.38 189.555 211.815 191.13C209.82 192.36 204.945 180.225 206.46 177.825C209.13 173.61 216.96 183.675 217.29 186.21C217.725 189 215.79 187.71 214.83 186.105C212.73 182.73 210.675 176.805 213.78 173.475" stroke="white" stroke-width="0.86" stroke-miterlimit="10" stroke-linecap="round"/>
<path d="M149.685 194.73C147.765 194.925 139.005 197.085 138.9 193.305C138.9 190.845 148.305 187.305 148.905 189.495C149.37 191.22 139.485 192.12 138.075 190.5C135.585 187.65 144.585 184.185 146.52 184.5C148.455 184.815 147.225 185.895 145.905 186.255C142.995 187.05 138.24 187.26 136.485 184.29" stroke="white" stroke-width="0.86" stroke-miterlimit="10" stroke-linecap="round"/>
<path d="M188.31 167.28H170.085C169.204 167.329 168.339 167.027 167.681 166.439C167.023 165.851 166.625 165.026 166.575 164.145V141.15C166.625 140.268 167.023 139.441 167.68 138.851C168.338 138.261 169.202 137.955 170.085 138H195.87C196.75 137.955 197.612 138.259 198.27 138.846C198.927 139.433 199.326 140.255 199.38 141.135V164.13C199.33 165.011 198.932 165.836 198.274 166.424C197.616 167.012 196.751 167.314 195.87 167.265H192.375" stroke="white" stroke-width="0.86" stroke-linecap="round" stroke-linejoin="round"/>
<path d="M192.48 165.435C192.48 165.435 191.52 172.365 189.825 173.685C188.13 175.005 188.49 164.1 188.49 164.1" stroke="white" stroke-width="0.86" stroke-linecap="round" stroke-linejoin="round"/>
<path d="M113.82 43.14C113.902 43.14 113.983 43.1564 114.059 43.1882C114.135 43.2201 114.203 43.2667 114.26 43.3254C114.318 43.3841 114.363 43.4537 114.393 43.53C114.423 43.6064 114.437 43.688 114.435 43.77C114.435 43.852 114.419 43.9333 114.387 44.0089C114.355 44.0845 114.308 44.153 114.25 44.2103C114.191 44.2676 114.121 44.3126 114.045 44.3426C113.969 44.3726 113.887 44.387 113.805 44.385C113.715 44.399 113.623 44.3934 113.536 44.3685C113.448 44.3437 113.367 44.3002 113.298 44.241C113.229 44.1819 113.174 44.1085 113.136 44.0259C113.098 43.9433 113.078 43.8534 113.078 43.7625C113.078 43.6716 113.098 43.5817 113.136 43.4991C113.174 43.4165 113.229 43.3431 113.298 43.284C113.367 43.2248 113.448 43.1814 113.536 43.1565C113.623 43.1316 113.715 43.126 113.805 43.14H113.82Z" fill="white"/>
<path d="M105.405 42.87C105.488 42.8719 105.569 42.8902 105.645 42.9236C105.721 42.9571 105.789 43.0052 105.846 43.0651C105.903 43.125 105.948 43.1955 105.978 43.2727C106.008 43.3499 106.022 43.4323 106.02 43.515C106.02 43.597 106.004 43.6783 105.972 43.7539C105.94 43.8295 105.893 43.8979 105.835 43.9553C105.776 44.0126 105.706 44.0575 105.63 44.0876C105.554 44.1176 105.472 44.132 105.39 44.13C105.307 44.128 105.226 44.1098 105.15 44.0763C105.074 44.0429 105.006 43.9948 104.949 43.9349C104.892 43.875 104.847 43.8045 104.817 43.7273C104.787 43.6501 104.773 43.5677 104.775 43.485C104.775 43.403 104.791 43.3217 104.823 43.2461C104.855 43.1705 104.902 43.102 104.96 43.0447C105.019 42.9874 105.089 42.9424 105.165 42.9124C105.241 42.8824 105.323 42.868 105.405 42.87Z" fill="white"/>
<path d="M102.78 223.29C102.915 239.28 103.11 253.08 103.185 259.635C103.185 261.945 103.185 263.355 103.185 263.64" stroke="white" stroke-width="0.86" stroke-miterlimit="10"/>
<path d="M87.855 159.735C88.05 166.215 83.55 170.1 78 171.645C76.4765 172.062 74.9124 172.314 73.335 172.395" stroke="white" stroke-width="0.86" stroke-miterlimit="10" stroke-linecap="round"/>
<path d="M111.15 167.31C110.318 186.21 107.493 204.969 102.72 223.275C99.555 236.025 95.865 248.22 92.325 259.47V259.62C93.255 259.815 98.07 262.305 103.215 263.805C104.746 264.259 106.311 264.59 107.895 264.795C111.045 265.17 114.015 266.91 113.28 270.93L78.66 271.08C78.66 270.615 78.66 266.385 78.57 259.605C78.375 240.93 77.94 202.98 78.075 171.615C78.075 165.735 78.075 160.095 78.21 154.845" stroke="white" stroke-width="0.86" stroke-linecap="round" stroke-linejoin="round"/>
<path d="M135.225 155.13C134.28 196.515 125.22 232.08 116.55 259.62C117.75 259.875 125.55 264.03 132.12 264.795C135.255 265.17 138.24 266.91 137.505 270.93H112.92" stroke="white" stroke-width="0.86" stroke-linecap="round" stroke-linejoin="round"/>
<path d="M117.12 259.635H116.55H103.41" stroke="white" stroke-width="0.86" stroke-miterlimit="10"/>
<path d="M92.2801 259.635H92.2651H78.5701" stroke="white" stroke-width="0.86" stroke-miterlimit="10"/>
<path d="M119.805 41.115C121.125 46.305 113.805 58.515 111.66 59.34C111.399 59.4445 111.127 59.52 110.85 59.565C107.76 60.12 103.86 57.375 102.54 54.66" stroke="white" stroke-width="0.86" stroke-miterlimit="10" stroke-linecap="round"/>
<path d="M98.49 38.325C98.595 37.59 98.7 36.825 98.835 35.94C99.022 34.6204 99.2874 33.313 99.63 32.025C100.047 30.2708 100.857 28.6345 102 27.24C106.365 22.365 111.135 25.995 114.66 31.02C115.64 32.4359 116.527 33.914 117.315 35.445" stroke="white" stroke-width="0.86" stroke-miterlimit="10" stroke-linecap="round"/>
<path d="M97.41 71.025C97.41 62.145 96.945 53.76 97.68 44.895" stroke="white" stroke-width="0.86" stroke-miterlimit="10"/>
<path d="M110.805 59.205V59.565C111.123 63.4853 112.002 67.3397 113.415 71.01" stroke="white" stroke-width="0.86" stroke-miterlimit="10"/>
<path d="M99.72 39.9C99.3581 39.3452 98.9243 38.8408 98.43 38.4C94.92 35.4 92.595 42.06 94.035 43.965C94.4918 44.4395 95.078 44.7692 95.7207 44.9132C96.3635 45.0572 97.0343 45.0092 97.65 44.775C97.929 44.6886 98.2 44.5782 98.46 44.445" stroke="white" stroke-width="0.86" stroke-miterlimit="10" stroke-linecap="round"/>
<path d="M99.15 35.82L98.835 35.94C96.885 36.57 86.955 39.315 86.835 35.94C86.835 33.87 93.03 32.715 99.585 32.07C106.425 31.38 113.61 31.245 114.405 31.17" stroke="white" stroke-width="0.86" stroke-miterlimit="10"/>
<path d="M97.755 41.1C97.1154 41.6882 96.2838 42.024 95.415 42.045" stroke="white" stroke-width="0.86" stroke-miterlimit="10" stroke-linecap="round"/>
<path d="M78.825 133.365C78.21 143.1 77.505 151.785 77.325 154.53L136.245 154.5C136.155 149.595 135 139.215 133.5 127.86" stroke="white" stroke-width="0.86" stroke-linecap="round" stroke-linejoin="round"/>
<path d="M80.28 106.305C80.16 109.17 79.86 114.45 79.455 121.035" stroke="white" stroke-width="0.86" stroke-linecap="round" stroke-linejoin="round"/>
<path d="M88.65 126L88.125 125.76C87.18 125.34 86.235 124.89 85.305 124.44C83.265 123.433 81.2865 122.306 79.38 121.065C75.525 118.5 73.11 115.815 74.415 113.565C76.2436 111.012 78.2011 108.554 80.28 106.2C83.9646 101.794 87.976 97.6728 92.28 93.87" stroke="white" stroke-width="0.86" stroke-linejoin="round"/>
<path d="M125.595 32.445C125.49 32.265 125.235 31.845 124.89 31.335C124.005 30.06 122.61 28.155 122.34 27.78C121.395 26.46 120.3 26.61 118.905 27.225C117.99 27.63 114.87 28.545 115.185 30.015C115.62 31.98 119.19 30.015 119.88 30.12C120.57 30.225 121.245 31.845 121.77 32.715" stroke="white" stroke-width="0.86" stroke-miterlimit="10" stroke-linecap="round"/>
<path d="M123.12 33.15C122.672 33.0104 122.216 32.8953 121.755 32.805C119.4 32.385 118.38 33.15 117.93 34.095C117.69 34.575 117.48 35.025 117.285 35.46C116.763 36.3847 116.431 37.4048 116.31 38.46C116.28 38.7097 116.328 38.9625 116.446 39.1843C116.564 39.4062 116.748 39.5865 116.972 39.7009C117.196 39.8153 117.449 39.8583 117.698 39.8242C117.947 39.7901 118.18 39.6804 118.365 39.51" stroke="white" stroke-width="0.86" stroke-miterlimit="10" stroke-linecap="round"/>
<path d="M130.5 105.87C129.525 99.21 128.61 93.75 127.965 89.67C127.965 89.67 152.91 78.495 156.465 73.305C159.465 68.985 134.475 41.52 131.625 38.415L131.37 38.13C131.37 38.13 126.975 30.135 127.725 27.735C128.64 24.735 126.09 24.735 125.19 27.93C124.799 29.0148 124.686 30.1802 124.86 31.32" stroke="white" stroke-width="0.86" stroke-miterlimit="10" stroke-linecap="round"/>
<path d="M85.29 124.74C85.29 124.74 81.075 127.08 81.27 133.5" stroke="white" stroke-width="0.86" stroke-miterlimit="10" stroke-linecap="round"/>
<path d="M93.465 136.5C89.2994 135.945 85.1858 135.052 81.165 133.83C80.43 133.605 79.665 133.365 78.915 133.11C69.705 130.035 59.295 124.26 57.795 114C57.21 109.92 59.46 106.68 61.245 103.02C63.48 98.4 76.44 81.585 79.605 79.02C83.19 76.02 95.445 74.28 95.445 74.28C95.7212 73.0815 96.4118 72.019 97.395 71.28C98.895 70.605 107.595 70.35 112.56 70.905C112.849 70.937 113.129 71.0236 113.385 71.16C113.95 71.4791 114.435 71.9235 114.802 72.4592C115.168 72.9949 115.407 73.6075 115.5 74.25L141 69.39C136.005 59.715 132.495 54 126 42.735V42.615C125.655 41.955 123.885 38.61 123.81 38.58C123.735 38.55 121.65 38.58 121.65 38.58L121.17 39.915C121.074 40.2339 120.874 40.5116 120.602 40.7044C120.331 40.8973 120.003 40.9942 119.67 40.98C119.055 40.98 118.5 40.65 118.5 40.185C118.48 40.0005 118.48 39.8145 118.5 39.63C118.643 38.3646 119.166 37.1722 120 36.21C120.795 35.595 122.235 35.82 123.42 35.925" stroke="white" stroke-width="0.86" stroke-linecap="round" stroke-linejoin="round"/>
<path d="M131.685 38.415C130.429 38.5208 129.225 38.968 128.205 39.7082C127.184 40.4485 126.386 41.4536 125.895 42.615" stroke="white" stroke-width="0.86" stroke-miterlimit="10" stroke-linecap="round"/>
<path d="M107.46 54.435C107.936 54.082 108.509 53.8828 109.101 53.864C109.693 53.8452 110.277 54.0078 110.775 54.33" stroke="white" stroke-width="0.86" stroke-linecap="round" stroke-linejoin="round"/>
<path d="M106.845 39.585C106.593 39.3481 106.294 39.1667 105.967 39.0526C105.64 38.9384 105.293 38.894 104.948 38.9223C104.604 38.9506 104.268 39.0509 103.965 39.2167C103.661 39.3825 103.395 39.6102 103.185 39.885" stroke="white" stroke-width="0.86" stroke-miterlimit="10" stroke-linecap="round"/>
<path d="M115.05 39.54C114.8 39.3012 114.503 39.1181 114.177 39.0027C113.851 38.8874 113.505 38.8424 113.16 38.8707C112.816 38.8991 112.481 39.0001 112.179 39.1672C111.876 39.3343 111.612 39.5636 111.405 39.84" stroke="white" stroke-width="0.86" stroke-miterlimit="10" stroke-linecap="round"/>
<path d="M111.315 40.035C110.55 41.865 111.315 44.745 111.63 46.65C111.795 47.955 112.035 50.46 109.815 49.65" stroke="white" stroke-width="0.86" stroke-miterlimit="10" stroke-linecap="round"/>
<path d="M117.735 111.855C117.754 111.793 117.779 111.732 117.81 111.675C119.475 107.775 125.085 106.005 130.515 105.975C133.544 105.876 136.553 106.504 139.29 107.805" stroke="white" stroke-width="0.86" stroke-linecap="round" stroke-linejoin="round"/>
<path d="M92.4449 106.5C93.5099 103.5 115.05 103.215 117.66 111.705L115.215 135.465" stroke="white" stroke-width="0.86" stroke-linecap="round" stroke-linejoin="round"/>
<path d="M139.5 107.91C138.81 109.17 135.495 120.3 133.275 127.86C132.465 130.62 131.775 132.915 131.46 134.055C131.469 134.089 131.469 134.126 131.46 134.16" stroke="white" stroke-width="0.86" stroke-linecap="round" stroke-linejoin="round"/>
<path d="M131.235 133.995C127.365 130.605 118.98 131.895 115.275 136.11" stroke="white" stroke-width="0.86" stroke-linecap="round" stroke-linejoin="round"/>
<path d="M92.265 128.46C92.265 127.44 92.265 126.3 92.265 125.1C92.265 124.395 92.265 123.6 92.265 122.91C92.265 115.77 92.265 107.34 92.595 106.53" stroke="white" stroke-width="0.86" stroke-linecap="round" stroke-linejoin="round"/>
<path d="M115.155 136.035C113.415 133.32 109.155 132.255 104.655 132" stroke="white" stroke-width="0.86" stroke-linecap="round" stroke-linejoin="round"/>
<path d="M101.73 126.51C102.96 125.19 101.595 123.105 99.945 124.455C97.59 126.39 94.5 128.46 92.265 128.445H91.71H91.38" stroke="white" stroke-width="0.86" stroke-linejoin="round"/>
<path d="M97.5 133.41C100.052 131.903 102.414 130.095 104.535 128.025L104.7 127.83C105.255 127.095 105.36 124.83 103.56 125.19C102.862 125.507 102.234 125.961 101.715 126.525C99.8344 128.276 97.6747 129.7 95.325 130.74" stroke="white" stroke-width="0.86" stroke-linecap="round" stroke-linejoin="round"/>
<path d="M93.345 136.5H93.45C98.52 136.98 102.45 133.89 104.58 131.85C105.315 131.13 105.81 130.53 106.08 130.35C106.995 129.24 106.275 127.515 104.58 128.055" stroke="white" stroke-width="0.86" stroke-linejoin="round"/>
<path d="M91.77 128.715C91.7615 128.605 91.7615 128.495 91.77 128.385C91.6191 127.831 91.5851 127.251 91.6703 126.683C91.7555 126.115 91.9581 125.571 92.265 125.085" stroke="white" stroke-width="0.86" stroke-linejoin="round"/>
<path d="M87.9301 126.27C87.9301 126.165 88.0351 126 88.1251 125.82C88.4286 125.003 88.963 124.291 89.6634 123.772C90.3637 123.253 91.1998 122.948 92.0701 122.895" stroke="white" stroke-width="0.86" stroke-linejoin="round"/>
<path d="M88.65 126L88.125 125.76C87.18 125.34 86.235 124.89 85.305 124.44C83.265 123.433 81.2865 122.306 79.38 121.065C75.525 118.5 73.11 115.815 74.415 113.565C76.2436 111.012 78.2011 108.554 80.28 106.2C83.9646 101.794 87.976 97.6728 92.28 93.87" stroke="black" stroke-width="0.86" stroke-linecap="round" stroke-linejoin="round"/>
<path d="M101.325 261.975C103.035 262.815 106.065 264.675 107.82 264.825C110.97 265.095 113.085 266.64 113.145 270.96" stroke="black" stroke-width="0.86" stroke-linecap="square" stroke-linejoin="round"/>
</svg>
